<?xml version="1.0" encoding="UTF-8" ?>
<!DOCTYPE svg PUBLIC "-//W3C//DTD SVG 1.1//EN" "http://www.w3.org/Graphics/SVG/1.1/DTD/svg11.dtd">
<svg width="408pt" height="192pt" viewBox="0 0 408 192" version="1.1" xmlns="http://www.w3.org/2000/svg">
<g id="#ffdc08ff">
<path fill="#ffdc08" opacity="1.00" d=" M 304.40 7.28 C 304.82 5.17 305.08 3.03 305.65 0.95 C 305.48 7.98 309.95 15.64 305.97 22.22 C 305.66 21.73 305.03 20.76 304.71 20.27 C 304.29 20.49 303.44 20.91 303.02 21.12 C 301.32 18.36 302.37 15.12 302.13 12.10 C 301.83 8.70 302.02 5.29 302.55 1.92 C 304.10 3.18 303.69 5.55 304.40 7.28 Z" />
<path fill="#ffdc08" opacity="1.00" d=" M 346.66 17.28 C 347.25 17.90 349.05 18.75 347.88 19.73 C 345.80 22.18 345.27 25.87 342.27 27.48 C 340.68 29.26 338.89 30.94 338.11 33.26 C 335.72 32.86 333.31 32.35 330.88 32.70 C 331.64 31.32 332.21 29.85 332.57 28.31 C 333.22 28.75 334.52 29.63 335.18 30.07 C 335.22 29.24 335.31 27.60 335.35 26.78 C 338.34 25.60 340.56 22.81 342.24 20.13 C 343.72 20.26 345.20 20.49 346.66 20.80 C 346.66 19.92 346.66 18.16 346.66 17.28 Z" />
<path fill="#ffdc08" opacity="1.00" d=" M 264.98 24.09 C 266.28 24.76 267.65 25.28 269.09 25.53 C 268.55 26.44 268.01 27.35 267.47 28.26 C 268.71 28.24 269.95 28.23 271.21 28.24 C 272.23 31.31 275.50 33.18 278.15 34.85 C 278.03 36.38 277.91 37.90 277.78 39.42 C 275.76 38.74 273.85 37.78 271.91 36.91 C 270.28 34.24 267.40 32.46 264.61 31.16 C 265.00 28.83 265.46 26.46 264.98 24.09 Z" />
<path fill="#ffdc08" opacity="1.00" d=" M 279.12 38.53 C 280.80 37.86 281.43 40.49 279.74 40.85 C 278.11 41.53 277.47 38.81 279.12 38.53 Z" />
<path fill="#ffdc08" opacity="1.00" d=" M 301.76 68.82 C 303.75 67.46 305.86 66.28 308.00 65.18 C 313.76 63.27 319.95 66.28 324.07 70.27 C 326.13 72.80 325.11 76.05 324.94 78.97 C 325.20 82.92 322.55 86.72 319.08 88.42 C 316.43 89.46 313.67 90.17 311.00 91.13 C 309.35 90.29 307.34 89.75 306.47 87.93 C 306.09 88.33 305.33 89.15 304.95 89.55 C 304.68 88.14 304.18 86.83 303.10 85.85 C 304.10 86.66 305.13 87.45 306.18 88.22 C 306.86 84.72 310.83 83.60 313.93 83.66 C 315.46 82.09 317.83 81.70 319.31 80.16 C 320.65 77.16 319.12 73.20 316.24 71.66 C 312.37 69.94 307.66 70.12 304.50 73.15 C 304.18 74.77 303.61 76.33 302.75 77.73 C 303.08 78.36 303.42 78.99 303.78 79.61 C 303.49 79.86 302.92 80.36 302.63 80.61 C 302.43 80.01 302.02 78.81 301.82 78.21 C 300.47 79.28 299.74 80.68 299.60 82.41 C 296.55 81.45 298.75 77.43 298.27 75.07 L 299.97 76.15 C 298.61 73.69 300.06 70.70 301.76 68.82 Z" />
<path fill="#ffdc08" opacity="1.00" d=" M 299.90 99.95 C 299.57 96.77 302.60 94.70 305.54 95.02 C 306.25 96.01 307.16 96.79 308.26 97.35 C 308.28 97.92 308.33 99.05 308.35 99.61 C 312.53 102.15 316.59 104.86 319.82 108.57 C 319.56 106.64 319.34 104.71 319.16 102.78 C 320.89 105.09 318.99 109.96 323.14 109.84 C 322.71 110.08 321.84 110.57 321.41 110.82 C 321.66 112.35 321.91 113.88 322.15 115.42 C 320.89 114.81 319.10 114.45 319.35 112.64 C 316.35 113.43 314.38 110.37 311.97 109.10 C 310.41 106.99 306.43 107.62 306.43 104.43 C 303.54 103.91 302.67 100.57 299.90 99.95 Z" />
<path fill="#ffdc08" opacity="1.00" d=" M 298.72 106.95 C 299.76 106.10 300.86 105.33 302.08 104.73 C 301.76 107.01 300.43 111.53 297.48 110.51 C 297.31 114.68 295.50 118.71 293.01 122.02 C 292.15 123.12 291.19 125.58 292.98 126.26 C 299.36 128.11 306.23 124.59 312.42 127.46 C 315.67 128.52 319.44 129.31 321.33 132.51 C 325.02 138.43 322.01 145.98 325.23 152.10 C 325.11 154.08 324.86 156.05 324.22 157.93 C 323.26 158.32 322.31 158.71 321.36 159.11 C 319.92 156.51 317.60 154.11 317.79 150.94 C 318.04 146.52 315.37 142.26 317.04 137.91 C 317.46 134.52 313.86 132.66 310.94 132.79 C 304.64 132.82 298.34 132.42 292.04 132.39 C 289.68 132.23 287.12 131.00 286.59 128.48 C 284.74 124.52 288.07 120.97 289.69 117.60 C 290.74 115.86 293.94 113.59 290.41 112.09 L 292.46 112.39 C 293.56 110.34 294.63 108.26 296.08 106.42 C 296.74 106.56 298.06 106.82 298.72 106.95 Z" />
</g>
<g id="#9dd85aff">
<path fill="#9dd85a" opacity="1.00" d=" M 295.17 45.21 C 300.41 38.21 310.84 36.34 318.51 40.22 C 324.77 43.51 328.51 49.83 332.99 55.03 C 338.24 60.52 342.94 66.50 347.80 72.33 C 357.53 85.14 367.62 97.69 377.87 110.09 C 383.18 116.57 387.68 123.69 393.30 129.91 C 394.15 129.63 395.01 129.37 395.87 129.10 C 396.29 130.65 396.48 132.27 397.04 133.79 C 400.34 138.70 405.03 142.63 407.61 148.03 L 408.00 147.12 L 408.00 148.56 L 407.61 148.16 C 407.23 148.66 406.47 149.65 406.09 150.15 C 401.57 151.24 396.79 150.94 392.16 151.03 C 392.60 150.62 393.49 149.79 393.93 149.38 L 393.04 148.67 C 392.92 148.16 392.69 147.13 392.58 146.62 C 394.85 146.41 397.15 146.28 399.30 145.40 C 399.69 145.65 400.48 146.13 400.88 146.37 L 402.62 146.12 C 401.33 144.43 399.34 143.62 397.81 142.24 C 389.55 132.49 380.76 123.16 373.31 112.74 C 367.73 105.34 361.63 98.36 355.46 91.46 C 343.63 76.97 331.60 62.64 319.88 48.07 C 316.97 44.75 312.23 44.18 308.07 44.30 C 304.48 44.25 301.72 47.10 299.85 49.87 C 294.09 60.03 289.30 70.83 282.24 80.19 C 272.01 101.93 260.88 123.25 249.28 144.29 C 246.32 149.78 242.75 155.03 240.75 160.96 C 242.07 163.58 245.30 161.67 247.48 161.72 C 247.28 164.16 247.28 166.62 247.63 169.05 C 244.46 169.46 240.87 170.04 238.11 167.99 C 234.41 165.65 233.22 160.33 235.57 156.63 C 239.64 149.27 242.82 141.46 246.99 134.15 C 249.20 130.28 250.57 125.95 253.33 122.40 C 266.69 102.24 276.14 79.89 287.72 58.73 C 290.26 54.25 292.15 49.39 295.17 45.21 Z" />
<path fill="#9dd85a" opacity="1.00" d=" M 212.87 47.88 C 221.29 47.28 229.70 46.55 238.11 45.95 C 239.55 45.77 240.94 46.24 242.28 46.71 C 254.27 51.16 266.31 55.44 278.29 59.91 C 274.40 67.25 270.38 74.53 266.60 81.94 C 262.01 92.91 258.03 104.16 253.34 115.09 C 248.85 121.56 243.16 127.14 238.63 133.59 C 235.34 140.78 232.63 148.23 229.50 155.49 C 223.14 157.40 216.86 159.56 210.47 161.34 C 202.39 162.18 194.27 162.56 186.18 163.31 C 186.28 163.97 186.48 165.28 186.58 165.94 C 182.08 165.11 177.60 163.48 172.96 163.97 C 167.94 164.46 162.95 165.27 157.91 165.56 C 151.86 165.99 145.75 167.68 139.70 166.40 C 134.63 167.99 129.21 167.50 123.98 168.13 C 123.59 167.74 122.79 166.97 122.39 166.58 C 117.43 167.45 112.44 168.12 107.46 168.82 C 107.19 169.16 106.66 169.84 106.39 170.19 C 96.30 171.55 86.23 173.15 76.13 174.49 C 68.99 174.53 61.88 175.27 54.77 175.80 C 54.62 176.29 54.33 177.26 54.18 177.75 C 51.50 179.61 48.84 181.50 46.16 183.35 C 43.29 182.68 40.42 182.01 37.55 181.35 C 35.74 179.03 33.99 176.66 32.34 174.22 C 30.97 176.99 29.77 179.84 28.69 182.73 C 26.84 183.85 25.09 185.23 23.00 185.87 C 19.19 186.19 15.35 185.87 11.54 186.29 C 12.55 177.91 16.00 169.51 13.47 161.06 C 14.64 158.73 15.73 156.36 16.79 153.97 C 11.26 150.72 9.20 144.39 5.63 139.42 C 3.60 137.07 4.12 133.95 4.27 131.10 C 2.82 129.69 1.36 128.30 0.00 126.82 L 0.00 126.37 C 2.18 123.22 5.89 122.18 9.37 121.18 C 8.48 118.83 6.56 116.55 7.01 113.90 C 7.51 110.27 7.11 106.63 6.99 103.00 C 6.60 94.92 8.68 86.99 8.75 78.93 C 9.34 74.78 9.99 70.64 10.13 66.44 C 19.72 65.93 29.42 66.41 38.89 64.59 C 44.52 63.76 50.15 62.94 55.64 61.40 C 57.15 60.79 58.55 61.60 59.86 62.26 C 69.89 61.36 79.94 60.99 89.97 60.28 C 94.94 60.93 99.91 60.26 104.87 59.89 C 105.03 58.15 105.19 56.41 105.35 54.67 C 108.52 54.99 111.69 55.76 114.89 55.62 C 116.92 54.96 118.79 53.87 120.84 53.26 C 121.89 53.77 122.65 55.16 123.99 54.81 C 129.45 54.46 134.92 53.97 140.38 53.52 C 140.60 54.05 141.05 55.11 141.27 55.64 C 149.85 55.83 158.42 53.85 167.02 54.85 C 173.03 54.67 179.16 54.51 184.95 52.72 C 194.11 51.88 203.31 51.30 212.49 50.55 C 212.58 49.88 212.77 48.55 212.87 47.88 M 214.13 55.27 C 215.13 70.39 216.52 85.48 217.56 100.60 C 217.78 103.83 218.65 106.97 219.04 110.19 C 227.80 109.83 236.49 108.58 245.25 108.18 C 245.23 105.48 245.01 102.79 244.53 100.13 C 238.35 100.52 232.20 101.32 226.01 101.42 C 225.69 96.03 225.67 90.57 224.15 85.34 C 228.61 85.11 233.06 84.65 237.52 84.46 C 236.98 81.44 236.93 78.37 236.40 75.36 C 232.29 76.23 228.12 76.63 223.94 76.84 C 223.40 72.23 222.43 67.66 222.41 63.00 C 228.71 62.32 235.03 61.92 241.36 61.50 C 241.02 58.99 240.78 56.46 240.75 53.93 C 238.55 53.24 236.24 53.53 233.99 53.72 C 227.38 54.32 220.75 54.72 214.13 55.27 M 189.53 59.84 C 189.95 64.73 189.95 69.65 190.63 74.52 C 192.13 82.94 192.24 91.52 193.06 100.02 C 194.95 99.89 196.84 99.78 198.73 99.68 C 198.84 91.48 197.58 83.37 196.98 75.20 C 198.20 75.19 199.41 75.17 200.63 75.16 C 202.98 83.14 205.76 91.00 208.11 98.99 C 209.93 98.97 211.75 98.84 213.56 98.56 C 212.36 94.74 211.33 90.88 210.45 86.98 C 209.52 82.73 207.47 78.75 207.08 74.38 C 208.55 74.25 210.02 74.12 211.49 74.00 C 211.49 68.72 210.71 63.49 210.28 58.24 C 203.36 58.70 196.44 59.25 189.53 59.84 M 178.11 61.46 C 178.12 73.24 180.22 84.95 180.24 96.72 C 177.42 96.86 174.60 97.07 171.79 97.26 C 171.72 93.13 171.93 88.97 171.18 84.89 C 169.83 77.56 169.94 70.06 169.05 62.69 C 167.13 61.99 165.11 62.76 163.19 63.02 C 164.08 72.37 164.72 81.74 165.42 91.10 C 165.34 95.48 165.44 99.85 166.04 104.20 C 173.19 103.10 180.43 102.80 187.63 102.25 C 187.33 88.52 185.28 74.86 184.95 61.12 C 182.67 61.28 180.40 61.41 178.11 61.46 M 127.85 62.02 C 128.09 70.37 129.61 78.65 130.58 86.95 C 126.72 78.77 122.69 70.65 118.16 62.80 C 116.20 63.03 114.23 63.21 112.25 63.34 C 112.05 77.56 114.49 91.65 116.11 105.72 C 118.14 105.58 120.21 105.69 122.19 105.17 C 122.54 97.43 121.67 89.68 120.25 82.07 C 123.98 89.78 127.92 97.38 131.82 105.00 C 134.10 104.87 136.37 104.72 138.65 104.54 C 138.86 90.09 137.18 75.66 134.33 61.51 C 132.17 61.67 130.01 61.83 127.85 62.02 M 137.58 63.45 C 138.18 65.89 138.40 68.41 138.33 70.93 C 141.37 70.85 144.39 70.60 147.43 70.46 C 148.44 81.69 149.16 92.95 150.11 104.18 C 152.04 104.08 153.97 104.04 155.88 103.71 C 157.10 100.37 155.79 96.67 155.66 93.21 C 155.15 85.24 154.06 77.33 153.56 69.36 C 155.99 69.34 158.41 69.30 160.83 69.16 C 160.56 66.83 160.27 64.51 159.94 62.19 C 152.48 62.47 145.05 63.24 137.58 63.45 M 88.58 68.73 C 89.83 82.45 91.14 96.19 93.24 109.83 C 99.92 109.36 106.59 108.72 113.27 108.19 C 113.08 105.35 113.14 102.51 113.22 99.67 C 108.24 101.18 103.08 101.83 97.89 101.97 C 97.44 98.72 97.00 95.46 96.97 92.18 C 100.13 91.78 103.28 91.35 106.44 90.94 C 106.38 88.75 106.25 86.55 105.86 84.39 C 102.80 84.24 99.72 84.10 96.67 84.50 C 95.94 81.70 95.19 78.80 95.75 75.90 C 100.48 75.29 105.19 74.51 109.95 74.14 C 109.47 71.78 109.16 69.39 108.91 67.00 C 102.13 67.58 95.35 68.06 88.58 68.73 M 81.42 68.39 C 80.36 79.00 79.79 89.69 78.34 100.24 C 75.56 89.94 72.83 79.61 70.54 69.19 C 68.52 69.03 66.48 69.05 64.53 69.64 C 66.80 78.38 67.81 87.46 71.02 95.94 C 72.08 100.41 73.01 104.91 74.14 109.37 C 77.30 109.57 80.46 109.19 83.59 108.76 C 83.94 95.16 86.37 81.60 86.11 67.98 C 84.55 68.12 82.98 68.26 81.42 68.39 M 36.14 72.48 C 36.33 74.84 36.66 77.19 37.03 79.54 C 38.35 79.40 39.67 79.25 41.00 79.11 C 41.11 82.71 41.26 86.34 42.32 89.81 C 43.35 95.97 44.33 102.14 45.27 108.31 C 43.87 108.52 42.47 108.72 41.07 108.93 C 41.64 111.26 41.46 114.12 42.92 116.05 C 48.68 115.96 54.40 114.33 60.15 113.72 C 63.35 113.67 66.37 111.01 66.75 107.89 C 64.87 96.29 63.68 84.56 60.61 73.20 C 59.43 71.46 57.48 70.43 55.89 69.10 C 49.39 70.68 42.76 71.56 36.14 72.48 M 17.13 73.77 C 15.32 88.80 13.63 103.86 13.53 119.02 C 15.64 119.01 17.76 119.00 19.87 119.00 C 20.05 116.57 20.34 114.14 20.82 111.75 C 23.77 111.46 26.73 111.21 29.69 111.17 C 30.35 113.25 30.76 115.43 31.67 117.42 C 33.75 118.23 36.07 117.84 38.25 118.02 C 36.56 102.64 30.68 88.18 25.88 73.60 C 22.96 73.39 20.03 73.46 17.13 73.77 M 203.51 110.37 C 203.56 114.98 202.21 119.44 202.00 124.03 C 201.51 132.49 201.05 140.96 200.55 149.42 C 202.28 149.29 204.01 149.14 205.74 148.97 C 205.92 146.68 206.11 144.38 206.28 142.09 C 209.10 142.00 212.16 140.89 214.86 141.80 C 215.72 143.91 216.31 146.13 216.99 148.31 C 218.52 148.28 220.04 148.24 221.57 148.20 C 218.97 135.19 215.45 122.32 211.06 109.79 C 208.53 109.93 206.02 110.13 203.51 110.37 M 162.52 115.57 C 163.07 121.37 164.56 127.05 164.63 132.89 C 165.04 139.26 166.40 145.52 167.35 151.83 C 173.43 152.25 179.36 150.25 185.45 150.33 C 184.53 143.23 184.10 136.07 182.90 129.02 C 182.11 129.06 180.53 129.16 179.74 129.21 C 179.16 124.10 178.04 119.06 177.69 113.92 C 172.61 114.03 167.53 114.70 162.52 115.57 M 186.72 115.07 C 186.84 126.78 188.28 138.42 189.10 150.09 C 191.31 150.26 193.52 150.09 195.71 149.78 C 195.42 144.85 195.40 139.89 194.74 134.99 C 193.93 128.45 194.27 121.73 192.52 115.34 C 191.06 113.98 188.56 115.24 186.72 115.07 M 152.92 117.93 C 151.66 121.25 151.07 124.74 150.44 128.22 C 148.70 124.90 146.94 121.61 145.08 118.36 C 143.74 118.58 142.39 118.81 141.05 119.04 C 140.53 125.72 141.81 132.40 142.11 139.07 C 142.72 144.01 142.23 149.16 144.01 153.89 C 145.46 153.78 146.92 153.69 148.38 153.60 C 148.99 147.38 147.97 141.19 147.32 135.03 C 149.03 138.20 150.06 141.69 151.83 144.82 L 152.77 144.39 C 153.25 141.52 153.63 138.62 154.68 135.88 C 154.19 141.55 155.18 147.20 155.42 152.86 C 157.21 153.08 159.02 153.09 160.82 152.96 C 160.83 141.24 160.46 129.37 157.66 117.94 C 156.24 117.17 154.46 117.97 152.92 117.93 M 116.13 121.15 C 116.63 124.38 116.69 127.67 117.43 130.86 C 119.53 138.71 119.86 146.90 121.39 154.87 L 121.91 155.26 C 127.78 154.72 133.56 153.48 139.43 152.90 C 137.27 141.58 135.57 130.17 133.98 118.74 C 128.02 119.51 122.10 120.47 116.13 121.15 M 92.45 121.70 C 94.69 134.28 96.48 146.94 98.18 159.61 C 105.00 159.21 111.69 157.63 118.49 156.94 C 118.44 154.67 118.12 152.42 117.36 150.28 C 112.66 150.88 108.09 152.20 103.39 152.79 C 103.31 144.35 100.68 136.26 99.77 127.93 C 99.34 125.55 97.95 123.42 98.08 120.93 C 96.20 121.18 94.33 121.44 92.45 121.70 M 28.32 123.08 C 27.40 129.11 26.50 135.14 25.69 141.18 C 22.02 136.47 19.17 131.18 15.62 126.40 C 13.03 125.56 10.02 126.44 7.28 126.52 C 7.25 126.80 7.18 127.36 7.15 127.64 C 12.37 135.50 17.91 143.17 23.26 150.96 C 21.38 161.35 19.09 171.67 17.50 182.10 C 20.02 181.31 23.31 181.71 25.37 180.09 C 26.96 174.48 28.14 168.75 29.43 163.07 C 30.70 163.53 32.09 163.92 33.00 165.00 C 36.29 168.85 38.78 173.32 41.96 177.25 C 44.40 177.32 46.70 176.32 49.00 175.66 C 47.78 172.57 45.47 170.12 43.72 167.35 C 39.45 161.46 35.74 155.15 31.07 149.57 C 32.75 140.10 35.44 130.79 36.67 121.27 C 33.89 121.86 31.10 122.46 28.32 123.08 M 46.18 124.36 C 46.04 131.45 48.04 138.36 47.40 145.43 C 48.27 153.01 48.70 160.65 50.17 168.15 C 57.40 167.77 64.61 166.92 71.85 166.85 C 71.33 160.68 70.80 154.52 70.45 148.35 C 68.40 149.07 66.33 149.75 64.26 150.41 C 64.41 153.92 64.72 157.42 65.03 160.92 C 61.98 161.18 58.94 161.44 55.88 161.46 C 54.84 154.35 54.59 147.15 54.16 139.99 C 53.94 136.80 52.30 133.39 53.12 130.30 C 56.03 129.78 58.99 129.70 61.94 129.69 C 61.83 133.38 62.11 137.05 62.33 140.73 C 64.63 141.00 66.93 141.25 69.24 141.49 C 68.81 135.29 68.21 129.11 67.88 122.91 C 60.64 123.14 53.42 124.03 46.18 124.36 M 71.84 123.81 C 72.14 134.62 74.38 145.24 74.58 156.08 C 74.93 157.17 74.16 159.19 75.75 159.48 C 81.72 159.13 87.67 158.44 93.65 158.19 C 92.30 146.54 90.97 134.86 90.56 123.12 C 84.35 122.47 78.10 124.09 71.84 123.81 Z" />
<path fill="#9dd85a" opacity="1.00" d=" M 196.15 66.01 C 199.00 65.56 201.90 65.50 204.77 65.22 C 204.82 65.86 204.92 67.14 204.97 67.78 C 201.93 67.91 198.89 68.08 195.86 68.24 C 195.93 67.68 196.08 66.57 196.15 66.01 Z" />
<path fill="#9dd85a" opacity="1.00" d=" M 48.13 78.30 C 49.85 78.10 51.56 77.92 53.28 77.77 C 54.41 84.45 55.12 91.26 57.26 97.71 C 58.05 100.53 58.40 103.45 59.10 106.29 C 57.16 106.61 55.21 106.90 53.27 107.19 C 52.56 102.79 51.99 98.38 51.13 94.01 C 49.98 88.80 49.90 83.38 48.13 78.30 Z" />
<path fill="#9dd85a" opacity="1.00" d=" M 21.94 103.97 C 23.69 98.05 21.35 91.51 23.53 85.74 C 24.82 91.55 26.46 97.28 27.45 103.15 C 25.61 103.40 23.78 103.67 21.94 103.97 Z" />
<path fill="#9dd85a" opacity="1.00" d=" M 374.95 101.01 C 377.35 102.31 378.51 104.89 379.31 107.37 C 377.16 105.82 375.91 103.41 374.95 101.01 Z" />
<path fill="#9dd85a" opacity="1.00" d=" M 382.26 112.25 C 382.75 112.83 382.75 112.83 382.26 112.25 Z" />
<path fill="#9dd85a" opacity="1.00" d=" M 384.61 115.86 C 388.13 117.52 389.09 121.70 391.06 124.73 C 391.48 124.72 392.33 124.69 392.75 124.68 C 392.76 124.99 392.78 125.60 392.79 125.91 C 391.67 125.57 390.36 125.34 389.89 124.10 C 388.39 121.19 386.41 118.59 384.61 115.86 Z" />
<path fill="#9dd85a" opacity="1.00" d=" M 169.11 120.48 C 170.44 120.39 171.77 120.31 173.11 120.22 C 173.74 123.53 174.03 126.89 174.25 130.25 C 172.82 130.35 171.39 130.45 169.97 130.54 C 169.71 127.18 168.87 123.86 169.11 120.48 Z" />
<path fill="#9dd85a" opacity="1.00" d=" M 208.63 121.08 C 210.56 125.54 211.61 130.32 213.08 134.95 C 211.20 135.09 209.31 135.24 207.43 135.38 C 207.66 130.59 208.82 125.88 208.63 121.08 Z" />
<path fill="#9dd85a" opacity="1.00" d=" M 122.22 125.54 C 124.51 125.61 127.36 124.09 129.33 125.45 C 131.06 133.09 132.21 140.89 133.03 148.69 C 130.68 149.04 128.33 149.32 125.96 149.42 C 125.02 141.41 123.64 133.47 122.22 125.54 Z" />
<path fill="#9dd85a" opacity="1.00" d=" M 77.70 129.04 C 80.17 128.76 82.65 128.53 85.14 128.66 C 86.22 136.87 87.01 145.11 87.41 153.39 C 84.95 153.55 82.50 153.73 80.05 153.92 C 79.43 145.61 78.92 137.29 77.70 129.04 Z" />
<path fill="#9dd85a" opacity="1.00" d=" M 171.11 136.35 C 173.39 136.19 175.65 135.87 177.88 135.33 C 178.61 138.46 179.27 141.64 179.23 144.87 C 176.84 145.15 174.46 145.51 172.10 145.99 C 171.70 142.78 171.24 139.58 171.11 136.35 Z" />
<path fill="#9dd85a" opacity="1.00" d=" M 378.45 148.56 C 380.79 147.21 383.52 146.95 386.14 146.51 C 386.81 147.33 387.47 148.17 388.10 149.03 C 384.88 149.03 381.64 149.00 378.45 148.56 Z" />
<path fill="#9dd85a" opacity="1.00" d=" M 253.74 161.44 C 260.72 161.50 268.51 159.26 274.82 163.19 C 267.67 165.16 260.36 166.49 253.12 168.07 C 252.98 165.85 253.07 163.58 253.74 161.44 Z" />
</g>
<g id="#f6f6f6ff">
<path fill="#f6f6f6" opacity="1.00" d=" M 214.13 55.27 C 220.75 54.72 227.38 54.32 233.99 53.72 C 236.24 53.53 238.55 53.24 240.75 53.93 C 240.78 56.46 241.02 58.99 241.36 61.50 C 235.03 61.92 228.71 62.32 222.41 63.00 C 222.43 67.66 223.40 72.23 223.94 76.84 C 228.12 76.63 232.29 76.23 236.40 75.36 C 236.93 78.37 236.98 81.44 237.52 84.46 C 233.06 84.65 228.61 85.11 224.15 85.34 C 225.67 90.57 225.69 96.03 226.01 101.42 C 232.20 101.32 238.35 100.52 244.53 100.13 C 245.01 102.79 245.23 105.48 245.25 108.18 C 236.49 108.58 227.80 109.83 219.04 110.19 C 218.65 106.97 217.78 103.83 217.56 100.60 C 216.52 85.48 215.13 70.39 214.13 55.27 Z" />
<path fill="#f6f6f6" opacity="1.00" d=" M 189.53 59.84 C 196.44 59.25 203.36 58.70 210.28 58.24 C 210.71 63.49 211.49 68.72 211.49 74.00 C 210.02 74.12 208.55 74.25 207.08 74.38 C 207.47 78.75 209.52 82.73 210.45 86.98 C 211.33 90.88 212.36 94.74 213.56 98.56 C 211.75 98.84 209.93 98.97 208.11 98.99 C 205.76 91.00 202.98 83.14 200.63 75.16 C 199.41 75.17 198.20 75.19 196.98 75.20 C 197.58 83.37 198.84 91.48 198.73 99.68 C 196.84 99.78 194.95 99.89 193.06 100.02 C 192.24 91.52 192.13 82.94 190.63 74.52 C 189.95 69.65 189.95 64.73 189.53 59.84 M 196.15 66.01 C 196.08 66.57 195.93 67.68 195.86 68.24 C 198.89 68.08 201.93 67.91 204.97 67.78 C 204.92 67.14 204.82 65.86 204.77 65.22 C 201.90 65.50 199.00 65.56 196.15 66.01 Z" />
<path fill="#f6f6f6" opacity="1.00" d=" M 178.11 61.46 C 180.40 61.41 182.67 61.28 184.95 61.12 C 185.28 74.86 187.33 88.52 187.63 102.25 C 180.43 102.80 173.19 103.10 166.04 104.20 C 165.44 99.85 165.34 95.48 165.42 91.10 C 164.72 81.74 164.08 72.37 163.19 63.02 C 165.11 62.76 167.13 61.99 169.05 62.69 C 169.94 70.06 169.83 77.56 171.18 84.89 C 171.93 88.97 171.72 93.13 171.79 97.26 C 174.60 97.07 177.42 96.86 180.24 96.72 C 180.22 84.95 178.12 73.24 178.11 61.46 Z" />
<path fill="#f6f6f6" opacity="1.00" d=" M 127.85 62.02 C 130.01 61.83 132.17 61.67 134.33 61.51 C 137.18 75.66 138.86 90.09 138.65 104.54 C 136.37 104.72 134.10 104.87 131.82 105.00 C 127.92 97.38 123.98 89.78 120.25 82.07 C 121.67 89.68 122.54 97.43 122.19 105.17 C 120.21 105.69 118.14 105.58 116.11 105.72 C 114.49 91.65 112.05 77.56 112.25 63.34 C 114.23 63.21 116.20 63.03 118.16 62.80 C 122.69 70.65 126.72 78.77 130.58 86.95 C 129.61 78.65 128.09 70.37 127.85 62.02 Z" />
<path fill="#f6f6f6" opacity="1.00" d=" M 137.58 63.45 C 145.05 63.24 152.48 62.47 159.94 62.19 C 160.27 64.51 160.56 66.83 160.83 69.16 C 158.41 69.30 155.99 69.34 153.56 69.36 C 154.06 77.33 155.15 85.24 155.66 93.21 C 155.79 96.67 157.10 100.37 155.88 103.71 C 153.97 104.04 152.04 104.08 150.11 104.18 C 149.16 92.95 148.44 81.69 147.43 70.46 C 144.39 70.60 141.37 70.85 138.33 70.93 C 138.40 68.41 138.18 65.89 137.58 63.45 Z" />
<path fill="#f6f6f6" opacity="1.00" d=" M 88.58 68.73 C 95.35 68.06 102.13 67.58 108.91 67.00 C 109.16 69.39 109.47 71.78 109.95 74.14 C 105.19 74.51 100.48 75.29 95.75 75.90 C 95.19 78.80 95.94 81.70 96.67 84.50 C 99.72 84.10 102.80 84.24 105.86 84.39 C 106.25 86.55 106.38 88.75 106.44 90.94 C 103.28 91.35 100.13 91.78 96.97 92.18 C 97.00 95.46 97.44 98.72 97.89 101.97 C 103.08 101.83 108.24 101.18 113.22 99.67 C 113.14 102.51 113.08 105.35 113.27 108.19 C 106.59 108.72 99.92 109.36 93.24 109.83 C 91.14 96.19 89.83 82.45 88.58 68.73 Z" />
<path fill="#f6f6f6" opacity="1.00" d=" M 81.42 68.39 C 82.98 68.26 84.55 68.12 86.11 67.98 C 86.37 81.60 83.94 95.16 83.59 108.76 C 80.46 109.19 77.30 109.57 74.14 109.37 C 73.01 104.91 72.08 100.41 71.02 95.94 C 67.81 87.46 66.80 78.38 64.53 69.64 C 66.48 69.05 68.52 69.03 70.54 69.19 C 72.83 79.61 75.56 89.94 78.34 100.24 C 79.79 89.69 80.36 79.00 81.42 68.39 Z" />
<path fill="#f6f6f6" opacity="1.00" d=" M 36.14 72.48 C 42.76 71.56 49.39 70.68 55.89 69.10 C 57.48 70.43 59.43 71.46 60.61 73.20 C 63.68 84.56 64.87 96.29 66.75 107.89 C 66.37 111.01 63.35 113.67 60.15 113.72 C 54.40 114.33 48.68 115.96 42.92 116.05 C 41.46 114.12 41.64 111.26 41.07 108.93 C 42.47 108.72 43.87 108.52 45.27 108.31 C 44.33 102.14 43.35 95.97 42.32 89.81 C 41.26 86.34 41.11 82.71 41.00 79.11 C 39.67 79.25 38.35 79.40 37.03 79.54 C 36.66 77.19 36.33 74.84 36.14 72.48 M 48.13 78.30 C 49.90 83.38 49.98 88.80 51.13 94.01 C 51.99 98.38 52.56 102.79 53.27 107.19 C 55.21 106.90 57.16 106.61 59.10 106.29 C 58.40 103.45 58.05 100.53 57.26 97.71 C 55.12 91.26 54.41 84.45 53.28 77.77 C 51.56 77.92 49.85 78.10 48.13 78.30 Z" />
<path fill="#f6f6f6" opacity="1.00" d=" M 17.13 73.77 C 20.03 73.46 22.96 73.39 25.88 73.60 C 30.68 88.18 36.56 102.64 38.25 118.02 C 36.07 117.84 33.75 118.23 31.67 117.42 C 30.76 115.43 30.35 113.25 29.69 111.17 C 26.73 111.21 23.77 111.46 20.82 111.75 C 20.34 114.14 20.05 116.57 19.87 119.00 C 17.76 119.00 15.64 119.01 13.53 119.02 C 13.63 103.86 15.32 88.80 17.13 73.77 M 21.94 103.97 C 23.78 103.67 25.61 103.40 27.45 103.15 C 26.46 97.28 24.82 91.55 23.53 85.74 C 21.35 91.51 23.69 98.05 21.94 103.97 Z" />
<path fill="#f6f6f6" opacity="1.00" d=" M 203.51 110.37 C 206.02 110.13 208.53 109.93 211.06 109.79 C 215.45 122.32 218.97 135.19 221.57 148.20 C 220.04 148.24 218.52 148.28 216.99 148.31 C 216.31 146.13 215.72 143.91 214.86 141.80 C 212.16 140.89 209.10 142.00 206.28 142.09 C 206.11 144.38 205.92 146.68 205.74 148.97 C 204.01 149.14 202.28 149.29 200.55 149.42 C 201.05 140.96 201.51 132.49 202.00 124.03 C 202.21 119.44 203.56 114.98 203.51 110.37 M 208.63 121.08 C 208.82 125.88 207.66 130.59 207.43 135.38 C 209.31 135.24 211.20 135.09 213.08 134.95 C 211.61 130.32 210.56 125.54 208.63 121.08 Z" />
<path fill="#f6f6f6" opacity="1.00" d=" M 162.52 115.57 C 167.53 114.70 172.61 114.03 177.69 113.92 C 178.04 119.06 179.16 124.10 179.74 129.21 C 180.53 129.16 182.11 129.06 182.90 129.02 C 184.10 136.07 184.53 143.23 185.45 150.33 C 179.36 150.25 173.43 152.25 167.35 151.83 C 166.40 145.52 165.04 139.26 164.63 132.89 C 164.56 127.05 163.07 121.37 162.52 115.57 M 169.11 120.48 C 168.87 123.86 169.71 127.18 169.97 130.54 C 171.39 130.45 172.82 130.35 174.25 130.25 C 174.03 126.89 173.74 123.53 173.11 120.22 C 171.77 120.31 170.44 120.39 169.11 120.48 M 171.11 136.35 C 171.24 139.58 171.70 142.78 172.10 145.99 C 174.46 145.51 176.84 145.15 179.23 144.87 C 179.27 141.64 178.61 138.46 177.88 135.33 C 175.65 135.87 173.39 136.19 171.11 136.35 Z" />
<path fill="#f6f6f6" opacity="1.00" d=" M 186.72 115.07 C 188.56 115.24 191.06 113.98 192.52 115.34 C 194.27 121.73 193.93 128.45 194.74 134.99 C 195.40 139.89 195.42 144.85 195.71 149.78 C 193.52 150.09 191.31 150.26 189.10 150.09 C 188.28 138.42 186.84 126.78 186.72 115.07 Z" />
<path fill="#f6f6f6" opacity="1.00" d=" M 152.92 117.93 C 154.46 117.97 156.24 117.17 157.66 117.94 C 160.46 129.37 160.83 141.24 160.82 152.96 C 159.02 153.09 157.21 153.08 155.42 152.86 C 155.18 147.20 154.19 141.55 154.68 135.88 C 153.63 138.62 153.25 141.52 152.77 144.39 L 151.83 144.82 C 150.06 141.69 149.03 138.20 147.32 135.03 C 147.97 141.19 148.99 147.38 148.38 153.60 C 146.92 153.69 145.46 153.78 144.01 153.89 C 142.23 149.16 142.72 144.01 142.11 139.07 C 141.81 132.40 140.53 125.72 141.05 119.04 C 142.39 118.81 143.74 118.58 145.08 118.36 C 146.94 121.61 148.70 124.90 150.44 128.22 C 151.07 124.74 151.66 121.25 152.92 117.93 Z" />
<path fill="#f6f6f6" opacity="1.00" d=" M 116.13 121.15 C 122.10 120.47 128.02 119.51 133.98 118.74 C 135.57 130.17 137.27 141.58 139.43 152.90 C 133.56 153.48 127.78 154.72 121.91 155.26 L 121.39 154.87 C 119.86 146.90 119.53 138.71 117.43 130.86 C 116.69 127.67 116.63 124.38 116.13 121.15 M 122.22 125.54 C 123.64 133.47 125.02 141.41 125.96 149.42 C 128.33 149.32 130.68 149.04 133.03 148.69 C 132.21 140.89 131.06 133.09 129.33 125.45 C 127.36 124.09 124.51 125.61 122.22 125.54 Z" />
<path fill="#f6f6f6" opacity="1.00" d=" M 92.45 121.70 C 94.33 121.44 96.20 121.18 98.08 120.93 C 97.95 123.42 99.34 125.55 99.77 127.93 C 100.68 136.26 103.31 144.35 103.39 152.79 C 108.09 152.20 112.66 150.88 117.36 150.28 C 118.12 152.42 118.44 154.67 118.49 156.94 C 111.69 157.63 105.00 159.21 98.18 159.61 C 96.48 146.94 94.69 134.28 92.45 121.70 Z" />
<path fill="#f6f6f6" opacity="1.00" d=" M 28.32 123.08 C 31.10 122.46 33.89 121.86 36.67 121.27 C 35.44 130.79 32.75 140.10 31.07 149.57 C 35.74 155.15 39.45 161.46 43.72 167.35 C 45.47 170.12 47.78 172.57 49.00 175.66 C 46.70 176.32 44.40 177.32 41.96 177.25 C 38.78 173.32 36.29 168.85 33.00 165.00 C 32.09 163.92 30.70 163.53 29.43 163.07 C 28.14 168.75 26.96 174.48 25.37 180.09 C 23.31 181.71 20.02 181.31 17.50 182.10 C 19.09 171.67 21.38 161.35 23.26 150.96 C 17.91 143.17 12.37 135.50 7.15 127.64 C 7.18 127.36 7.25 126.80 7.28 126.52 C 10.02 126.44 13.03 125.56 15.62 126.40 C 19.17 131.18 22.02 136.47 25.69 141.18 C 26.50 135.14 27.40 129.11 28.32 123.08 Z" />
<path fill="#f6f6f6" opacity="1.00" d=" M 46.18 124.36 C 53.42 124.03 60.64 123.14 67.88 122.91 C 68.21 129.11 68.81 135.29 69.24 141.49 C 66.93 141.25 64.63 141.00 62.33 140.73 C 62.11 137.05 61.83 133.38 61.94 129.69 C 58.99 129.70 56.03 129.78 53.12 130.30 C 52.30 133.39 53.94 136.80 54.16 139.99 C 54.59 147.15 54.84 154.35 55.88 161.46 C 58.94 161.44 61.98 161.18 65.03 160.92 C 64.72 157.42 64.41 153.92 64.26 150.41 C 66.33 149.75 68.40 149.07 70.45 148.35 C 70.80 154.52 71.33 160.68 71.85 166.85 C 64.61 166.92 57.40 167.77 50.17 168.15 C 48.70 160.65 48.27 153.01 47.40 145.43 C 48.04 138.36 46.04 131.45 46.18 124.36 Z" />
<path fill="#f6f6f6" opacity="1.00" d=" M 71.84 123.81 C 78.10 124.09 84.35 122.47 90.56 123.12 C 90.97 134.86 92.30 146.54 93.65 158.19 C 87.67 158.44 81.72 159.13 75.75 159.48 C 74.16 159.19 74.93 157.17 74.58 156.08 C 74.38 145.24 72.14 134.62 71.84 123.81 M 77.70 129.04 C 78.92 137.29 79.43 145.61 80.05 153.92 C 82.50 153.73 84.95 153.55 87.41 153.39 C 87.01 145.11 86.22 136.87 85.14 128.66 C 82.65 128.53 80.17 128.76 77.70 129.04 Z" />
</g>
<g id="#de3655ff">
<path fill="#de3655" opacity="1.00" d=" M 344.28 130.10 C 344.69 129.54 345.10 128.98 345.52 128.42 C 347.45 130.06 349.26 131.84 350.71 133.93 C 355.98 129.33 363.23 127.29 370.13 128.32 C 377.35 129.05 383.39 133.64 388.58 138.38 C 391.06 140.42 391.75 143.68 392.58 146.62 C 392.69 147.13 392.92 148.16 393.04 148.67 C 392.67 150.36 391.47 151.54 390.14 152.54 C 389.46 151.36 388.81 150.18 388.10 149.03 C 387.47 148.17 386.81 147.33 386.14 146.51 C 384.18 144.27 382.46 141.82 380.43 139.65 C 378.31 137.73 375.47 136.93 372.81 136.09 C 369.57 135.26 366.40 133.50 362.95 134.10 C 359.57 134.29 356.61 136.04 353.76 137.69 C 356.80 140.27 360.25 142.53 362.65 145.78 C 364.62 147.10 366.57 148.77 369.07 148.89 C 369.46 150.81 370.63 153.21 368.71 154.70 C 366.74 156.60 364.14 154.48 362.04 153.88 C 361.48 152.62 361.12 151.11 359.81 150.40 C 356.03 147.82 351.96 145.44 349.37 141.53 C 346.58 145.81 344.19 150.72 344.78 155.99 C 344.92 160.78 347.91 164.75 350.55 168.51 C 355.06 174.20 362.75 175.77 369.62 176.15 L 369.88 174.17 C 367.33 174.96 364.89 174.04 362.73 172.73 C 365.39 174.02 369.16 172.64 371.17 175.02 C 375.01 174.36 378.48 172.51 381.99 170.90 C 382.42 171.27 383.29 172.01 383.72 172.37 C 385.42 171.29 387.14 170.25 388.92 169.28 C 388.59 173.26 384.48 174.33 382.01 176.69 C 380.64 176.61 379.28 176.51 377.92 176.43 C 377.68 176.83 377.19 177.65 376.95 178.05 C 371.81 180.56 365.72 181.73 360.17 179.91 C 355.27 178.23 349.92 176.73 346.33 172.75 C 338.32 164.74 336.99 151.66 341.59 141.60 C 342.53 139.18 345.92 137.80 345.40 134.95 C 349.41 134.88 346.98 130.28 344.28 130.10 Z" />
<path fill="#de3655" opacity="1.00" d=" M 357.23 170.28 C 357.82 170.75 357.82 170.75 357.23 170.28 Z" />
<path fill="#de3655" opacity="1.00" d=" M 360.92 172.28 C 359.54 171.62 359.47 170.93 360.71 170.24 C 362.05 170.91 362.12 171.59 360.92 172.28 Z" />
</g>
<g id="#0352c0ff">
<path fill="#0352c0" opacity="1.00" d=" M 258.39 143.45 C 262.87 140.01 268.13 137.22 273.99 137.77 C 280.62 139.54 288.19 139.54 293.43 144.64 C 301.08 150.58 302.77 160.95 302.21 170.06 C 301.87 172.38 300.43 174.35 299.23 176.30 C 298.37 177.50 297.31 179.13 295.54 178.69 C 295.82 179.91 296.12 181.12 296.49 182.32 C 294.88 182.51 293.26 182.67 291.65 182.83 C 293.01 182.26 294.37 181.69 295.73 181.14 C 294.84 180.28 293.95 179.43 293.06 178.58 C 294.78 173.53 295.22 168.17 295.92 162.91 C 295.42 158.35 292.57 154.55 290.50 150.59 C 287.02 145.16 280.02 143.58 273.96 144.00 C 264.26 144.35 255.35 151.77 253.74 161.44 C 253.07 163.58 252.98 165.85 253.12 168.07 C 254.07 173.76 257.49 178.96 261.97 182.52 C 262.48 182.00 263.51 180.95 264.02 180.43 C 263.84 181.06 263.48 182.33 263.30 182.96 C 266.85 184.59 270.69 185.39 274.29 186.87 C 274.36 187.37 274.49 188.36 274.56 188.86 C 276.04 189.55 279.95 188.81 279.74 190.84 C 276.16 192.39 272.34 190.48 268.64 190.47 C 269.01 188.66 267.49 188.13 266.19 187.55 C 266.06 187.90 265.80 188.60 265.66 188.95 C 261.95 187.34 257.92 186.01 254.99 183.08 C 251.40 179.12 249.38 174.04 247.63 169.05 C 247.28 166.62 247.28 164.16 247.48 161.72 C 248.35 154.36 252.99 148.21 258.39 143.45 Z" />
<path fill="#0352c0" opacity="1.00" d=" M 259.40 177.07 C 260.65 176.73 261.92 178.74 261.12 179.76 C 259.85 180.01 258.85 178.09 259.40 177.07 Z" />
<path fill="#0352c0" opacity="1.00" d=" M 276.31 186.12 C 277.53 185.30 278.33 185.53 278.71 186.80 C 277.48 187.62 276.68 187.39 276.31 186.12 Z" />
</g>
</svg>
