<?xml version="1.0" encoding="UTF-8" ?>
<!DOCTYPE svg PUBLIC "-//W3C//DTD SVG 1.1//EN" "http://www.w3.org/Graphics/SVG/1.1/DTD/svg11.dtd">
<svg width="840pt" height="405pt" viewBox="0 0 840 405" version="1.1" xmlns="http://www.w3.org/2000/svg">
<g id="#ffffffff">
<path fill="#ffffff" opacity="1.00" d=" M 153.67 19.72 C 154.41 18.42 155.23 16.86 156.94 16.78 C 162.82 16.65 168.19 19.55 172.54 23.28 C 178.09 28.07 183.78 33.24 186.68 40.13 C 188.80 46.75 188.80 54.70 184.34 60.40 C 176.73 72.08 163.48 77.93 151.18 83.32 C 138.40 87.91 125.35 92.92 115.08 102.08 C 111.93 105.17 108.77 108.65 107.60 113.01 C 106.97 115.00 108.10 117.28 110.15 117.83 C 122.20 121.21 134.96 120.57 147.19 118.51 C 163.47 116.56 178.76 110.02 194.88 107.34 C 191.84 101.55 189.73 94.48 192.06 88.09 C 193.83 84.71 197.09 81.89 200.95 81.28 C 203.85 81.31 206.39 82.95 208.93 84.17 C 208.76 82.42 209.45 80.86 210.26 79.35 C 210.87 77.43 212.78 76.27 213.21 74.28 C 214.31 73.59 214.95 72.47 215.22 71.22 C 217.49 70.82 218.68 68.63 220.28 67.19 C 222.09 66.22 224.04 65.74 226.11 65.95 C 226.28 67.99 225.66 70.13 223.28 70.18 C 220.98 73.16 217.09 75.11 215.83 78.74 C 215.39 79.12 214.53 79.88 214.10 80.27 C 214.18 81.89 213.59 83.30 212.45 84.45 C 215.23 84.03 218.07 83.14 220.90 83.73 C 223.77 84.11 225.88 86.28 227.89 88.17 C 228.43 91.05 229.00 94.00 228.60 96.94 C 227.85 101.08 224.97 104.34 222.60 107.67 C 228.58 109.13 235.03 110.85 239.24 115.69 C 244.41 121.06 244.11 129.26 242.90 136.09 C 241.20 142.98 234.73 146.94 228.55 149.35 C 212.44 155.75 195.28 159.17 178.08 160.98 C 145.57 164.83 113.14 170.37 81.75 179.82 C 73.98 182.53 64.72 184.91 60.62 192.83 C 58.90 195.42 60.69 198.50 62.87 200.14 C 70.93 206.38 80.18 210.85 89.57 214.71 C 107.30 222.59 125.63 229.02 144.02 235.18 C 156.27 239.34 169.04 241.80 181.86 243.38 C 199.28 245.50 217.07 247.15 234.51 244.53 C 234.70 228.32 233.72 212.06 235.20 195.90 C 235.42 191.65 237.96 187.37 242.18 186.08 C 246.78 184.30 251.56 186.31 255.89 187.93 C 260.72 189.68 264.40 193.42 267.77 197.16 C 275.13 205.11 278.57 216.43 277.62 227.13 C 277.38 234.41 272.58 240.79 266.87 244.89 C 260.28 248.53 252.90 250.94 245.43 251.81 C 244.18 264.23 243.19 276.75 240.31 288.93 C 235.07 308.60 224.91 326.61 212.83 342.88 C 200.04 358.86 182.59 370.68 163.84 378.59 C 153.91 381.91 143.45 383.35 133.16 385.14 C 123.16 387.03 112.87 386.60 102.86 385.06 C 92.53 382.91 83.04 378.03 73.73 373.22 C 58.22 365.25 45.36 352.53 36.44 337.62 C 33.81 333.64 33.65 327.67 37.14 324.14 C 40.33 320.59 43.68 317.15 47.42 314.15 C 52.12 322.14 56.95 330.07 62.28 337.66 C 65.07 341.83 69.05 344.97 72.95 348.04 C 80.45 353.77 87.95 359.86 96.89 363.19 C 104.39 366.17 112.06 368.78 119.93 370.63 C 130.75 373.54 142.10 371.61 152.84 369.34 C 164.74 366.66 176.18 361.92 186.62 355.62 C 199.99 346.45 210.10 333.42 218.87 319.95 C 231.27 300.20 234.92 276.33 234.49 253.36 C 226.36 254.27 218.16 254.75 209.97 254.44 C 178.69 253.07 147.52 248.62 117.20 240.79 C 107.10 238.14 96.88 235.94 86.91 232.81 C 74.39 228.98 61.48 225.63 50.14 218.87 C 44.94 215.89 42.27 210.21 39.99 204.93 C 37.37 198.43 37.45 189.96 42.79 184.84 C 48.90 179.14 56.42 175.19 64.12 172.09 C 72.71 169.21 81.63 167.49 90.51 165.76 C 115.65 161.08 140.93 157.25 166.17 153.14 C 180.08 150.74 194.20 148.95 207.63 144.42 C 214.08 141.96 220.98 138.50 223.82 131.78 C 225.96 127.53 223.56 122.57 219.80 120.18 C 211.53 114.30 200.75 113.36 190.91 114.21 C 181.90 115.57 173.28 118.68 164.60 121.35 C 150.51 126.02 135.86 128.87 121.12 130.39 C 112.12 130.80 103.00 131.22 94.11 129.48 C 88.84 128.16 83.77 124.77 81.50 119.70 C 80.04 116.38 81.82 112.63 84.17 110.21 C 91.75 101.76 102.10 96.52 112.55 92.53 C 123.65 87.86 135.01 83.83 145.90 78.69 C 154.07 74.82 161.53 69.25 167.02 62.01 C 171.31 56.23 173.08 48.53 171.37 41.51 C 168.51 32.40 162.67 23.65 153.67 19.72 M 247.92 204.92 C 245.87 217.00 246.70 229.30 246.10 241.49 C 250.07 239.88 253.66 237.47 257.02 234.84 C 260.92 231.94 262.44 226.58 261.50 221.93 C 260.38 214.16 256.85 206.00 249.93 201.75 C 248.76 202.47 247.89 203.46 247.92 204.92 Z" />
<path fill="#ffffff" opacity="1.00" d=" M 596.14 130.11 C 598.80 127.85 601.54 125.67 603.82 123.00 C 602.40 129.10 595.15 132.29 595.29 138.95 C 594.79 145.33 601.99 147.90 604.00 153.24 C 607.45 161.83 603.19 172.54 594.86 176.57 C 599.85 171.40 603.10 163.97 601.16 156.76 C 600.07 152.15 595.37 149.92 593.20 145.94 C 590.09 140.86 591.77 133.91 596.14 130.11 Z" />
<path fill="#ffffff" opacity="1.00" d=" M 502.32 133.09 C 510.97 130.00 521.36 128.43 529.66 133.31 C 535.41 136.60 536.39 144.00 535.89 150.00 C 534.84 160.97 530.88 171.65 524.84 180.85 C 521.95 184.88 518.44 189.66 513.04 190.00 C 510.10 190.12 507.94 187.92 506.49 185.64 C 513.10 177.60 519.19 169.05 523.82 159.71 C 526.19 154.46 528.66 148.75 527.75 142.87 C 527.21 139.21 523.89 136.48 520.24 136.34 C 510.92 135.40 502.54 140.90 495.89 146.83 C 483.01 158.50 473.70 173.53 466.13 189.03 C 457.40 207.75 450.79 228.14 451.50 249.02 C 452.10 259.76 454.73 271.42 463.09 278.87 C 469.18 284.51 478.17 285.40 486.04 284.02 C 497.37 282.03 507.17 275.18 515.43 267.47 C 523.14 260.08 529.48 251.28 534.00 241.60 C 534.92 242.26 535.86 242.93 536.80 243.60 C 528.47 259.42 517.27 274.44 501.72 283.78 C 490.31 290.86 475.98 293.29 462.95 289.90 C 453.72 287.52 446.36 280.43 441.99 272.17 C 438.12 264.68 436.39 256.27 435.57 247.93 C 429.63 258.67 421.48 268.49 410.87 274.86 C 404.54 278.59 396.68 280.42 389.51 278.27 C 384.68 276.76 381.12 272.09 381.05 267.02 C 380.64 258.94 384.75 251.72 387.64 244.46 C 390.34 238.20 393.21 231.29 391.41 224.37 C 389.98 219.18 384.68 216.73 380.80 213.59 C 376.23 225.45 370.86 236.98 365.23 248.36 C 359.53 258.78 352.22 268.74 342.01 275.12 C 336.19 278.85 329.01 281.05 322.13 279.48 C 318.35 278.67 315.13 275.79 313.92 272.12 C 311.96 266.67 312.96 260.79 314.16 255.30 C 309.56 263.02 304.90 271.13 297.57 276.60 C 293.64 279.57 288.24 280.98 283.50 279.22 C 278.86 277.49 275.99 272.96 274.40 268.49 C 271.96 261.47 273.14 253.85 274.81 246.80 C 277.26 237.57 280.13 228.32 284.92 220.00 C 286.25 217.90 287.60 215.50 289.99 214.46 C 293.09 214.37 295.70 216.47 298.03 218.29 C 293.52 225.89 290.10 234.11 287.43 242.52 C 284.98 250.20 283.49 258.59 285.67 266.51 C 286.45 269.35 288.70 272.32 291.99 271.98 C 297.60 271.51 301.20 266.50 304.49 262.49 C 314.16 249.29 320.79 234.23 328.23 219.75 C 331.48 220.91 336.94 220.86 337.80 224.99 C 334.83 233.47 330.55 241.46 327.83 250.05 C 325.79 256.43 323.29 263.32 325.03 270.04 C 326.13 274.12 331.16 274.67 334.56 273.39 C 344.15 270.01 351.33 262.17 357.17 254.15 C 365.99 240.78 372.16 225.87 377.32 210.75 C 372.85 204.64 376.94 195.79 383.00 192.41 C 384.83 191.55 386.65 193.18 386.45 195.08 C 387.19 198.58 384.60 201.61 384.44 205.00 C 385.13 208.67 388.88 210.33 391.52 212.46 C 397.26 216.50 403.60 221.51 404.54 228.96 C 405.83 237.36 402.04 245.25 398.80 252.74 C 396.73 257.54 394.18 262.60 394.98 267.99 C 395.23 270.44 397.68 271.80 399.92 271.95 C 404.60 272.26 409.03 270.19 412.83 267.65 C 422.40 261.20 429.83 251.99 435.34 241.94 C 435.80 215.16 446.15 189.26 461.50 167.58 C 472.04 153.10 485.37 139.73 502.32 133.09 Z" />
<path fill="#ffffff" opacity="1.00" d=" M 719.32 138.28 C 723.93 133.71 729.97 129.21 736.84 130.18 C 740.58 130.57 741.67 134.81 741.76 137.95 C 741.98 149.68 736.21 160.40 730.18 170.08 C 719.05 186.92 704.86 201.76 688.54 213.62 C 686.94 216.74 686.00 220.14 684.64 223.37 C 686.60 224.27 688.47 225.66 689.08 227.84 C 691.33 237.08 691.33 247.20 696.33 255.56 C 699.54 261.23 707.20 262.37 712.88 260.15 C 717.75 258.33 720.83 253.88 723.83 249.89 C 725.80 247.32 727.18 244.35 728.18 241.28 C 736.30 217.71 745.78 194.54 757.58 172.56 C 764.66 159.82 772.16 146.96 782.82 136.84 C 787.27 132.76 793.23 128.93 799.54 130.34 C 803.23 131.30 803.75 135.83 803.79 139.02 C 803.55 150.90 797.55 161.66 791.31 171.42 C 780.27 187.68 766.44 202.09 750.53 213.63 C 748.94 216.75 747.99 220.15 746.64 223.37 C 748.61 224.28 750.50 225.68 751.10 227.89 C 753.32 237.10 753.34 247.20 758.32 255.54 C 762.25 262.34 772.18 262.67 778.11 258.43 C 783.74 253.97 787.40 247.60 791.20 241.62 C 792.17 242.24 793.16 242.86 794.15 243.48 C 790.35 253.93 782.08 263.30 771.02 266.06 C 764.42 267.52 758.10 263.89 753.18 259.86 C 753.18 273.61 750.64 287.31 746.13 300.29 C 743.00 309.05 739.05 317.77 732.72 324.73 C 729.48 328.30 724.36 331.25 719.47 329.43 C 715.35 328.14 712.95 324.01 712.12 320.00 C 710.72 312.89 711.64 305.58 712.71 298.48 C 714.98 284.99 718.60 271.77 722.51 258.68 C 717.94 262.29 712.84 265.82 706.88 266.37 C 700.95 266.70 695.61 263.45 691.18 259.86 C 691.18 273.60 688.64 287.28 684.15 300.24 C 681.10 308.80 677.26 317.28 671.23 324.18 C 668.04 327.85 663.09 331.08 658.05 329.62 C 653.28 328.41 650.60 323.56 649.92 319.01 C 648.68 310.96 649.96 302.80 651.34 294.86 C 653.95 281.38 657.51 268.09 661.70 255.03 C 655.53 259.48 647.72 262.38 640.04 261.05 C 636.69 260.33 633.06 259.92 630.44 257.48 C 624.52 270.66 610.61 278.10 597.05 281.00 C 586.46 283.61 575.33 280.88 565.70 276.26 C 552.98 270.07 543.20 258.22 539.68 244.50 C 537.38 235.39 536.59 225.69 538.63 216.45 C 540.15 209.91 543.35 203.81 547.72 198.72 C 553.89 191.71 561.38 185.44 570.45 182.68 C 581.79 179.38 594.07 179.22 605.42 182.54 C 612.92 184.79 619.43 189.61 624.36 195.62 C 626.37 198.82 628.75 201.75 631.14 204.68 C 634.83 201.45 639.88 198.73 644.89 200.44 C 650.87 201.88 654.91 207.36 656.37 213.09 C 658.20 220.37 658.82 228.27 656.26 235.46 C 653.51 243.40 649.22 251.08 642.75 256.57 C 652.04 257.18 662.89 252.37 665.63 242.85 C 672.99 221.28 681.52 200.08 691.82 179.73 C 699.52 165.05 707.62 150.21 719.32 138.28 M 726.81 144.79 C 721.56 148.13 718.13 153.52 714.69 158.55 C 705.29 173.24 698.20 189.27 691.61 205.38 C 706.89 191.13 720.77 174.99 730.51 156.42 C 732.10 152.64 734.94 148.45 733.47 144.25 C 731.52 142.61 728.74 143.68 726.81 144.79 M 779.90 153.90 C 768.73 169.69 760.97 187.55 753.63 205.35 C 763.15 196.55 772.00 186.98 779.73 176.56 C 785.86 168.15 791.92 159.43 795.40 149.54 C 796.31 147.34 796.55 143.08 793.07 143.43 C 787.09 144.08 783.31 149.51 779.90 153.90 M 567.28 191.13 C 556.40 196.62 548.66 207.80 547.21 219.88 C 546.20 229.28 548.54 239.19 554.18 246.84 C 560.30 255.97 571.16 261.04 581.92 261.83 C 590.44 262.31 599.39 262.34 607.19 258.39 C 619.00 252.93 627.30 240.96 628.74 228.09 C 631.07 208.90 615.88 190.09 597.14 186.76 C 587.08 184.95 576.38 186.44 567.28 191.13 M 633.75 210.95 C 638.19 223.29 637.91 236.98 633.25 249.21 C 637.08 250.08 640.92 248.25 643.17 245.14 C 647.06 239.93 649.20 233.47 649.87 227.04 C 649.67 221.36 648.25 215.14 643.98 211.09 C 641.20 208.39 636.54 208.14 633.75 210.95 M 663.42 295.89 C 662.30 302.81 661.01 309.96 662.41 316.93 C 662.72 318.96 664.68 321.39 666.93 320.04 C 669.86 318.26 671.49 315.05 673.16 312.16 C 678.20 302.40 681.23 291.74 683.57 281.04 C 685.24 273.13 686.59 265.00 685.69 256.90 C 684.96 250.39 682.08 244.41 679.22 238.61 C 673.09 257.44 667.04 276.38 663.42 295.89 M 741.21 238.61 C 734.99 257.78 728.81 277.06 725.24 296.94 C 724.21 303.51 723.06 310.30 724.40 316.90 C 724.71 318.92 726.63 321.38 728.89 320.06 C 731.82 318.31 733.46 315.10 735.12 312.24 C 740.49 301.84 743.62 290.44 745.98 279.02 C 747.46 271.75 748.53 264.26 747.68 256.83 C 746.94 250.35 744.07 244.38 741.21 238.61 Z" />
<path fill="#ffffff" opacity="1.00" d=" M 597.48 159.13 C 596.98 151.86 587.24 148.58 588.83 140.77 C 589.32 147.67 597.41 149.86 599.25 156.11 C 602.19 164.41 597.65 173.96 590.11 178.07 C 595.07 173.14 598.57 166.29 597.48 159.13 Z" />
<path fill="#ffffff" opacity="1.00" d=" M 582.57 190.91 C 590.85 189.60 599.69 190.71 606.93 195.11 C 614.90 199.61 620.41 207.57 623.25 216.14 C 626.04 224.33 623.91 233.39 620.06 240.87 C 614.98 250.80 604.29 257.00 593.38 258.10 C 583.89 258.91 573.61 257.93 565.60 252.32 C 551.39 242.68 547.08 221.05 556.88 206.87 C 562.60 198.13 572.50 192.83 582.57 190.91 Z" />
</g>
</svg>
