<?xml version="1.0" encoding="UTF-8" ?>
<!DOCTYPE svg PUBLIC "-//W3C//DTD SVG 1.1//EN" "http://www.w3.org/Graphics/SVG/1.1/DTD/svg11.dtd">
<svg width="840pt" height="405pt" viewBox="0 0 840 405" version="1.1" xmlns="http://www.w3.org/2000/svg">
<g id="#aa78f1fa">
<path fill="#aa78f1" opacity="0.98" d=" M 154.11 19.80 C 153.49 15.78 158.99 16.51 161.72 17.32 C 172.82 21.28 181.94 30.52 186.91 41.06 C 192.73 55.63 179.89 67.82 168.69 74.66 C 153.96 84.41 135.58 86.78 121.30 97.32 C 116.37 100.99 111.26 104.96 108.62 110.66 C 107.62 112.76 106.91 116.47 109.25 117.72 C 114.07 118.62 118.89 119.55 123.74 120.32 C 126.88 120.89 130.19 121.39 133.31 120.42 C 154.14 118.80 173.98 111.95 194.18 107.10 C 195.69 106.98 197.22 106.86 198.74 106.70 C 205.22 106.98 211.73 107.11 218.22 106.76 C 219.73 106.93 221.25 107.11 222.76 107.32 C 231.27 109.89 242.23 113.79 243.03 123.98 C 243.00 127.32 243.01 130.68 243.01 134.03 C 242.73 137.50 241.05 141.15 238.74 143.75 C 221.74 154.54 201.28 157.89 181.65 160.41 C 162.11 162.73 142.60 165.44 123.35 169.47 C 104.33 174.01 84.55 176.93 67.01 186.02 C 62.93 188.45 57.64 193.83 61.22 198.82 C 76.67 210.98 95.61 217.28 113.68 224.42 C 130.44 230.14 146.79 237.53 164.35 240.52 C 176.33 243.06 188.60 243.84 200.74 245.30 C 210.17 246.04 219.92 246.90 229.30 245.39 C 230.57 245.14 231.85 245.01 233.16 245.00 C 233.60 244.97 234.49 244.90 234.94 244.87 C 235.07 238.91 235.04 232.95 235.00 226.99 C 235.01 220.28 235.03 213.58 234.97 206.88 C 234.96 205.20 234.94 201.84 234.93 200.15 C 234.93 194.89 236.03 186.35 243.00 185.99 C 246.66 184.20 250.37 186.11 253.87 187.16 C 271.64 193.98 282.35 215.93 276.02 234.02 C 270.96 246.35 256.97 249.93 245.16 252.21 C 244.41 275.37 239.77 298.79 228.05 319.00 C 219.23 335.40 208.36 351.08 193.08 362.08 C 184.40 367.98 175.60 374.01 165.72 377.72 C 156.54 381.75 146.40 382.65 136.64 384.46 C 133.06 384.78 129.63 386.28 126.00 386.03 C 121.66 385.98 117.32 385.98 112.99 386.00 C 100.07 386.63 88.34 380.34 76.98 375.03 C 60.12 366.91 45.96 353.71 36.37 337.67 C 33.87 334.44 35.46 329.91 35.16 326.23 C 38.94 322.64 42.53 318.86 46.26 315.22 C 46.65 315.19 47.42 315.12 47.81 315.09 C 53.52 324.05 58.84 333.28 65.24 341.78 C 74.64 349.55 84.13 357.49 95.33 362.57 C 107.75 367.23 120.48 372.53 134.00 372.04 C 143.57 372.29 152.77 369.06 161.98 366.89 C 173.89 362.88 185.75 357.74 194.95 348.96 C 206.32 339.19 215.11 326.57 222.57 313.63 C 230.01 299.29 232.87 283.19 234.29 267.26 C 234.98 262.55 235.23 257.79 234.93 253.05 C 233.64 253.21 231.05 253.53 229.75 253.70 C 228.18 253.94 226.58 254.02 225.00 254.02 C 218.66 253.99 212.33 253.95 205.99 254.01 C 174.88 253.27 144.08 247.79 114.00 240.00 C 93.49 234.60 72.49 229.94 53.28 220.69 C 45.12 217.36 40.96 209.03 38.88 201.02 C 37.58 195.19 38.91 188.51 43.18 184.17 C 52.84 176.86 63.87 170.93 75.92 168.84 C 111.15 161.32 146.90 156.78 182.35 150.50 C 195.73 147.99 209.92 145.61 220.93 136.95 C 222.35 134.32 223.82 131.70 224.96 128.94 C 224.31 122.21 217.78 118.23 211.94 116.10 C 202.82 113.50 192.85 112.72 183.71 115.68 C 163.37 121.37 143.31 128.85 122.00 130.02 C 114.66 129.98 107.32 130.00 99.98 130.01 C 91.36 130.61 79.13 124.29 81.27 114.26 C 89.41 101.87 103.52 95.94 116.85 90.80 C 133.39 83.34 152.36 78.94 164.78 64.79 C 170.38 58.89 173.16 50.42 171.63 42.33 C 168.60 33.06 163.14 24.23 154.11 19.80 M 249.19 202.09 C 246.27 205.50 247.72 210.98 246.98 214.99 L 246.00 215.01 C 246.01 217.76 246.02 223.26 246.03 226.01 C 245.83 230.42 246.04 234.84 246.28 239.26 C 246.23 239.72 246.13 240.62 246.08 241.08 C 250.89 239.92 254.55 236.19 258.66 233.62 C 264.42 226.28 261.17 216.34 256.93 209.05 C 254.93 206.36 252.83 202.41 249.19 202.09 Z" />
</g>
<g id="#f71b39fc">
<path fill="#f71b39" opacity="1.00" d=" M 215.43 71.41 C 218.60 69.09 221.60 65.10 226.02 66.00 C 225.98 66.70 225.90 68.10 225.85 68.80 C 220.18 72.44 215.32 77.51 213.00 83.94 C 217.63 84.33 223.59 82.81 226.77 87.22 C 231.61 93.50 227.75 102.34 222.76 107.32 C 221.25 107.11 219.73 106.93 218.22 106.76 C 211.82 106.14 205.06 104.96 198.74 106.70 C 197.22 106.86 195.69 106.98 194.18 107.10 C 191.11 99.43 188.14 88.85 196.21 83.24 C 199.89 79.64 204.89 81.76 208.76 83.82 C 209.90 79.18 212.71 75.25 215.43 71.41 Z" />
</g>
<g id="#dd54acff">
<path fill="#dd54ac" opacity="1.00" d=" M 198.74 106.70 C 205.06 104.96 211.82 106.14 218.22 106.76 C 211.73 107.11 205.22 106.98 198.74 106.70 Z" />
</g>
<g id="#8960c2cb">
<path fill="#8960c2" opacity="0.80" d=" M 123.74 120.32 C 126.91 120.09 130.16 119.67 133.31 120.42 C 130.19 121.39 126.88 120.89 123.74 120.32 Z" />
</g>
<g id="#553c797e">
<path fill="#553c79" opacity="0.49" d=" M 243.03 123.98 L 244.00 124.01 C 243.76 126.51 243.26 131.52 243.01 134.03 C 243.01 130.68 243.00 127.32 243.03 123.98 Z" />
</g>
<g id="#86572fe6">
<path fill="#86572f" opacity="0.90" d=" M 593.17 145.96 C 587.82 136.76 596.38 129.00 603.04 123.90 C 601.98 129.88 594.43 133.28 595.04 139.94 C 596.28 145.69 602.52 148.34 604.17 153.90 C 606.78 161.60 604.21 170.89 597.01 175.08 C 599.10 169.66 602.95 164.48 601.68 158.31 C 600.65 153.15 596.04 150.06 593.17 145.96 Z" />
</g>
<g id="#6a4b969d">
<path fill="#6a4b96" opacity="0.62" d=" M 99.98 130.01 C 107.32 130.00 114.66 129.98 122.00 130.02 L 122.00 130.99 C 114.67 131.00 107.34 131.13 100.02 130.96 L 99.98 130.01 Z" />
</g>
<g id="#67489299">
<path fill="#674892" opacity="0.60" d=" M 511.01 130.00 C 514.13 131.16 521.49 127.92 523.03 130.98 C 519.01 130.99 514.99 130.99 510.99 130.97 L 511.01 130.00 Z" />
</g>
<g id="#a977eff9">
<path fill="#a977ef" opacity="0.98" d=" M 726.71 132.70 C 730.44 130.19 735.70 128.55 739.72 131.28 C 741.46 134.77 742.59 138.83 741.69 142.72 C 738.96 158.81 729.41 172.84 718.94 184.94 C 710.61 195.94 700.02 204.77 689.23 213.22 C 687.24 216.24 685.36 220.05 685.18 223.65 C 691.10 226.49 689.97 234.49 691.19 239.94 C 692.75 246.92 694.19 255.10 700.28 259.69 C 705.02 261.29 710.69 262.11 715.00 259.00 C 725.43 252.45 728.44 240.02 732.42 229.23 C 744.95 197.14 758.05 164.25 781.20 138.20 C 786.49 133.71 794.50 126.93 801.72 131.28 C 803.46 134.77 804.59 138.83 803.69 142.72 C 800.96 158.81 791.41 172.84 780.94 184.94 C 772.61 195.94 762.02 204.77 751.23 213.22 C 749.24 216.24 747.36 220.05 747.18 223.65 C 753.35 226.67 751.89 235.09 753.34 240.72 C 755.02 247.50 756.37 256.29 763.06 259.95 C 769.76 262.73 777.48 260.59 781.81 254.81 C 785.92 251.35 787.38 245.84 791.22 242.15 C 792.67 241.44 794.70 243.23 793.66 244.70 C 790.08 253.75 783.39 261.73 774.10 265.19 C 766.58 267.79 758.80 264.92 753.00 260.07 C 753.80 280.57 747.36 300.82 737.66 318.69 C 733.65 324.02 728.21 331.86 720.34 329.60 C 715.02 328.93 711.80 322.96 711.97 318.01 C 711.98 313.99 711.99 309.98 712.00 305.98 C 712.99 289.91 718.35 274.48 722.06 258.95 C 717.26 262.38 712.41 266.77 706.00 266.00 C 700.19 266.68 695.51 263.02 691.00 260.07 C 691.80 280.57 685.36 300.82 675.66 318.69 C 672.84 321.87 670.59 325.95 666.87 328.16 C 665.47 328.70 664.06 329.21 662.68 329.78 C 655.79 331.50 649.42 324.75 649.97 318.01 C 649.98 313.99 649.99 309.98 650.00 305.98 C 651.20 288.89 656.73 272.44 661.08 256.02 C 651.83 261.37 639.68 263.31 630.18 258.02 C 623.98 271.20 609.87 278.71 596.01 281.05 C 580.63 284.61 564.75 277.75 553.18 267.82 C 544.51 258.78 538.52 246.61 537.97 234.00 C 537.99 229.65 538.00 225.31 537.99 220.98 C 538.94 207.73 547.98 196.93 558.01 189.01 C 576.34 176.35 603.59 176.50 620.72 191.32 C 624.13 195.31 627.25 199.55 630.23 203.88 C 635.19 204.43 638.31 197.29 643.94 200.03 C 652.31 202.14 657.33 210.40 657.39 218.71 C 661.05 233.31 651.60 245.89 643.91 257.01 C 651.34 256.54 659.00 253.79 663.67 247.70 C 675.82 214.19 688.61 180.42 708.77 150.77 C 714.41 144.43 718.73 136.52 726.71 132.70 M 730.28 143.31 C 726.48 144.83 722.54 146.89 720.53 150.59 C 715.39 157.30 710.48 164.27 706.98 171.99 C 701.62 182.85 695.83 193.61 691.95 205.09 C 699.27 199.41 704.79 191.81 711.01 185.00 C 720.14 174.03 728.72 162.22 733.62 148.68 C 736.84 145.18 732.68 142.82 730.28 143.31 M 792.28 143.31 C 788.48 144.83 784.54 146.89 782.53 150.59 C 777.39 157.30 772.48 164.27 768.98 171.99 C 763.62 182.85 757.83 193.61 753.95 205.09 C 761.27 199.41 766.79 191.81 773.01 185.00 C 782.14 174.03 790.72 162.22 795.62 148.68 C 798.83 145.18 794.68 142.82 792.28 143.31 M 581.34 186.48 C 575.53 187.82 569.47 188.84 564.62 192.56 C 549.91 201.27 542.80 220.93 549.09 236.99 C 553.43 252.72 570.10 262.83 586.00 262.05 C 596.92 263.21 608.26 259.85 616.27 252.27 C 627.83 242.07 632.95 224.26 626.03 209.98 C 618.60 193.20 599.58 182.59 581.34 186.48 M 636.33 209.36 C 635.76 209.56 634.62 209.97 634.06 210.18 C 634.51 215.52 637.06 220.57 637.05 226.00 C 637.10 233.82 636.08 241.76 633.09 249.04 C 636.15 249.17 639.52 249.08 641.86 246.84 C 649.22 238.06 652.54 224.69 646.69 214.27 C 644.12 211.35 640.78 207.68 636.33 209.36 M 679.20 239.09 C 675.13 249.53 672.54 260.42 669.18 271.08 C 666.19 284.59 661.36 297.95 661.99 312.00 C 661.04 314.94 662.53 317.70 664.17 319.91 C 669.42 321.40 671.21 314.92 673.57 311.65 C 676.54 304.43 679.92 297.37 681.56 289.69 C 684.47 276.97 688.43 263.67 684.38 250.68 C 682.73 246.88 681.79 242.11 679.20 239.09 M 741.20 239.09 C 737.13 249.53 734.54 260.42 731.18 271.08 C 728.19 284.59 723.36 297.95 723.99 312.00 C 723.03 314.94 724.53 317.70 726.17 319.91 C 731.42 321.40 733.21 314.92 735.57 311.65 C 738.54 304.43 741.92 297.37 743.56 289.69 C 746.47 276.97 750.43 263.67 746.38 250.68 C 744.73 246.88 743.79 242.11 741.20 239.09 Z" />
</g>
<g id="#a877eff8">
<path fill="#a877ef" opacity="0.97" d=" M 502.08 133.13 C 504.99 132.21 507.85 130.74 510.99 130.97 C 514.99 130.99 519.01 130.99 523.03 130.98 C 528.75 131.38 534.24 135.95 535.41 141.67 C 538.04 154.35 532.45 166.77 526.77 177.78 C 523.81 182.36 520.71 187.19 515.71 189.74 C 512.73 190.89 505.72 188.48 507.30 184.32 C 515.23 175.76 521.10 165.54 525.94 154.99 C 527.12 150.27 529.94 144.03 526.24 139.76 C 522.70 134.89 515.72 135.78 510.67 137.61 C 493.75 144.06 483.06 160.07 473.77 174.78 C 462.38 194.01 454.26 215.44 451.70 237.74 C 451.02 242.52 450.33 247.55 451.59 252.31 C 452.99 265.98 459.60 281.79 474.72 284.31 C 478.23 285.20 481.75 285.19 485.27 284.28 C 498.36 282.02 509.43 273.79 518.26 264.26 C 525.16 258.18 529.47 249.91 534.09 242.11 C 535.11 242.68 537.85 242.69 536.35 244.33 C 524.71 265.93 506.16 288.75 480.00 291.03 C 476.63 290.98 473.34 290.97 470.00 291.03 C 458.86 290.73 448.42 283.65 443.08 273.95 C 438.58 266.40 436.53 257.58 435.85 248.89 C 429.51 255.44 425.83 264.84 417.84 269.86 C 411.83 274.60 404.99 279.14 397.00 279.01 C 388.35 281.04 379.23 272.85 380.97 263.99 C 382.45 252.30 390.15 242.57 391.98 230.96 C 393.53 223.15 386.81 216.70 380.28 214.01 C 377.71 222.66 373.32 230.64 369.90 238.96 C 363.28 254.29 353.28 269.19 338.29 277.28 C 332.07 280.11 324.28 281.56 318.14 277.85 C 312.00 272.77 311.91 263.99 313.98 256.88 C 308.95 260.94 307.41 268.16 302.32 272.31 C 296.93 278.93 286.38 283.36 279.18 276.85 C 273.94 270.27 271.74 261.60 273.31 253.28 C 275.80 241.77 279.31 230.35 285.07 220.05 C 286.49 217.94 287.44 215.01 290.21 214.33 C 293.03 214.89 295.87 215.98 297.84 218.16 C 291.95 229.40 286.80 241.12 284.68 253.72 C 284.11 256.54 283.59 259.54 284.57 262.33 C 285.40 265.77 286.55 269.38 289.20 271.88 C 294.31 272.83 298.56 269.17 301.81 265.81 C 313.19 252.19 319.69 235.44 328.17 220.06 C 331.64 220.32 336.54 221.54 337.90 224.99 C 333.18 237.78 326.11 249.94 324.53 263.68 C 322.70 268.86 327.55 276.64 333.72 273.68 C 346.98 268.88 356.52 256.98 362.67 244.70 C 368.73 234.72 372.63 223.61 376.65 212.70 C 377.84 210.26 375.84 208.12 375.05 205.94 C 376.06 200.35 378.33 192.84 384.83 192.06 C 388.45 195.96 385.40 200.56 384.34 204.79 C 388.50 214.35 403.33 216.19 404.02 227.98 C 403.98 230.97 404.00 234.00 404.02 237.01 C 403.91 243.71 399.42 249.39 397.58 255.66 C 395.41 260.22 393.40 266.09 396.29 270.71 C 401.37 273.88 407.68 271.19 412.01 268.01 C 421.05 261.58 429.40 253.41 434.35 243.33 C 436.06 238.45 435.71 233.14 436.23 228.07 C 439.24 209.61 446.17 191.88 455.95 175.98 C 467.12 157.97 482.11 141.31 502.08 133.13 Z" />
</g>
<g id="#7d512bd8">
<path fill="#7d512b" opacity="0.85" d=" M 588.95 142.89 C 590.54 143.81 590.58 146.06 591.91 147.28 C 594.46 150.62 599.05 152.82 599.60 157.38 C 601.52 163.79 598.51 169.87 594.86 174.90 C 594.07 175.71 593.11 176.10 591.96 176.07 C 594.43 172.68 596.60 169.13 597.51 164.99 C 598.18 162.71 598.88 160.07 597.51 157.98 C 595.63 152.36 588.95 149.09 588.95 142.89 Z" />
</g>
<g id="#24170c3f">
<path fill="#24170c" opacity="0.25" d=" M 593.17 145.96 C 596.04 150.06 600.65 153.15 601.68 158.31 C 602.95 164.48 599.10 169.66 597.01 175.08 C 596.04 176.46 595.33 176.40 594.86 174.90 C 598.51 169.87 601.52 163.79 599.60 157.38 C 599.05 152.82 594.46 150.62 591.91 147.28 C 592.23 146.95 592.86 146.29 593.17 145.96 Z" />
</g>
<g id="#482f197d">
<path fill="#482f19" opacity="0.49" d=" M 597.51 157.98 C 598.88 160.07 598.18 162.71 597.51 164.99 C 596.39 162.92 596.36 160.04 597.51 157.98 Z" />
</g>
<g id="#0a070911">
<path fill="#0a0709" opacity="0.07" d=" M 581.34 186.48 C 599.58 182.59 618.60 193.20 626.03 209.98 C 632.95 224.26 627.83 242.07 616.27 252.27 C 608.26 259.85 596.92 263.21 586.00 262.05 C 570.10 262.83 553.43 252.72 549.09 236.99 C 542.80 220.93 549.91 201.27 564.62 192.56 C 569.47 188.84 575.53 187.82 581.34 186.48 M 585.01 190.00 L 585.00 190.97 C 569.43 191.99 553.55 203.58 552.00 219.98 L 551.05 220.03 C 551.45 222.44 549.78 227.06 551.98 228.03 C 552.34 244.30 566.96 257.82 582.99 258.03 C 585.49 258.27 590.49 258.76 592.99 259.00 L 593.02 258.02 C 611.25 257.42 625.35 239.90 624.70 222.28 C 622.45 207.06 610.71 192.93 595.02 190.99 C 592.51 190.74 587.51 190.24 585.01 190.00 Z" />
</g>
<g id="#4830257a">
<path fill="#483025" opacity="0.48" d=" M 585.01 190.00 C 587.51 190.24 592.51 190.74 595.02 190.99 C 591.63 190.97 588.35 191.03 585.00 190.97 L 585.01 190.00 Z" />
</g>
<g id="#946034fd">
<path fill="#946034" opacity="1.00" d=" M 552.00 219.98 C 553.55 203.58 569.43 191.99 585.00 190.97 C 588.35 191.03 591.63 190.97 595.02 190.99 C 610.71 192.93 622.45 207.06 624.70 222.28 C 625.35 239.90 611.25 257.42 593.02 258.02 C 589.63 257.99 586.34 257.98 582.99 258.03 C 566.96 257.82 552.34 244.30 551.98 228.03 C 551.96 225.34 551.97 222.65 552.00 219.98 Z" />
</g>
<g id="#3a295357">
<path fill="#3a2953" opacity="0.34" d=" M 234.35 206.91 C 233.66 205.04 233.06 201.20 234.93 200.15 C 234.94 201.84 234.96 205.20 234.97 206.88 L 234.35 206.91 Z" />
</g>
<g id="#65478f96">
<path fill="#65478f" opacity="0.59" d=" M 234.35 206.91 L 234.97 206.88 C 235.03 213.58 235.01 220.28 235.00 226.99 L 234.04 227.01 C 234.23 220.32 233.35 213.54 234.35 206.91 Z" />
</g>
<g id="#6144898f">
<path fill="#614489" opacity="0.56" d=" M 246.00 215.01 L 246.98 214.99 C 247.02 218.66 247.02 222.31 247.02 225.99 L 246.03 226.01 C 246.02 223.26 246.01 217.76 246.00 215.01 Z" />
</g>
<g id="#37241b5f">
<path fill="#37241b" opacity="0.37" d=" M 551.05 220.03 L 552.00 219.98 C 551.97 222.65 551.96 225.34 551.98 228.03 C 549.78 227.06 551.45 222.44 551.05 220.03 Z" />
</g>
<g id="#47326469">
<path fill="#473264" opacity="0.41" d=" M 537.04 221.03 L 537.99 220.98 C 538.00 225.31 537.99 229.65 537.97 234.00 L 537.01 234.00 C 536.98 229.67 536.83 225.35 537.04 221.03 Z" />
</g>
<g id="#39285155">
<path fill="#392851" opacity="0.33" d=" M 246.03 226.01 L 247.02 225.99 C 247.04 230.42 246.96 234.86 246.28 239.26 C 246.04 234.84 245.83 230.42 246.03 226.01 Z" />
</g>
<g id="#583e7d83">
<path fill="#583e7d" opacity="0.51" d=" M 234.04 227.01 L 235.00 226.99 C 235.04 232.95 235.07 238.91 234.94 244.87 C 234.49 244.90 233.60 244.97 233.16 245.00 C 234.47 239.08 233.79 233.00 234.04 227.01 Z" />
</g>
<g id="#6e4d9ca3">
<path fill="#6e4d9c" opacity="0.64" d=" M 404.02 227.98 C 407.23 228.13 404.25 234.53 404.96 236.97 L 404.02 237.01 C 404.00 234.00 403.98 230.97 404.02 227.98 Z" />
</g>
<g id="#5b408086">
<path fill="#5b4080" opacity="0.53" d=" M 451.59 252.31 C 450.33 247.55 451.02 242.52 451.70 237.74 C 451.82 242.56 452.55 247.52 451.59 252.31 Z" />
</g>
<g id="#3a285256">
<path fill="#3a2852" opacity="0.34" d=" M 200.74 245.30 C 210.24 245.01 219.83 244.52 229.30 245.39 C 219.92 246.90 210.17 246.04 200.74 245.30 Z" />
</g>
<g id="#6b4b989e">
<path fill="#6b4b98" opacity="0.62" d=" M 229.75 253.70 C 231.05 253.53 233.64 253.21 234.93 253.05 C 235.23 257.79 234.98 262.55 234.29 267.26 C 233.97 262.88 234.16 258.50 233.93 254.13 C 232.53 253.98 231.14 253.83 229.75 253.70 Z" />
</g>
<g id="#4933676c">
<path fill="#493367" opacity="0.42" d=" M 205.99 254.01 C 212.33 253.95 218.66 253.99 225.00 254.02 L 225.00 254.99 C 218.67 254.98 212.35 255.16 206.03 254.95 L 205.99 254.01 Z" />
</g>
<g id="#7854a9b1">
<path fill="#7854a9" opacity="0.69" d=" M 284.57 262.33 C 283.59 259.54 284.11 256.54 284.68 253.72 C 285.11 256.57 285.21 259.50 284.57 262.33 Z" />
</g>
<g id="#2b1c104b">
<path fill="#2b1c10" opacity="0.29" d=" M 582.99 258.03 C 586.34 257.98 589.63 257.99 593.02 258.02 L 592.99 259.00 C 590.49 258.76 585.49 258.27 582.99 258.03 Z" />
</g>
<g id="#5d418389">
<path fill="#5d4183" opacity="0.54" d=" M 474.72 284.31 C 478.20 284.04 481.78 283.77 485.27 284.28 C 481.75 285.19 478.23 285.20 474.72 284.31 Z" />
</g>
<g id="#36264d50">
<path fill="#36264d" opacity="0.31" d=" M 470.00 291.03 C 473.34 290.97 476.63 290.98 480.00 291.03 L 480.00 292.00 C 477.50 291.76 472.50 291.27 470.00 291.03 Z" />
</g>
<g id="#51397378">
<path fill="#513973" opacity="0.47" d=" M 649.00 318.00 C 650.14 314.86 646.91 307.43 650.00 305.98 C 649.99 309.98 649.98 313.99 649.97 318.01 L 649.00 318.00 Z" />
<path fill="#513973" opacity="0.47" d=" M 711.00 318.00 C 712.14 314.86 708.91 307.43 712.00 305.98 C 711.99 309.98 711.98 313.99 711.97 318.01 L 711.00 318.00 Z" />
</g>
<g id="#381f3c41">
<path fill="#381f3c" opacity="0.25" d=" M 662.68 329.78 C 664.06 329.21 665.47 328.70 666.87 328.16 C 667.36 328.66 670.47 329.91 668.09 330.01 C 666.47 330.07 663.06 332.33 662.68 329.78 Z" />
</g>
<g id="#37264d51">
<path fill="#37264d" opacity="0.32" d=" M 112.99 386.00 C 117.32 385.98 121.66 385.98 126.00 386.03 L 126.00 386.99 C 121.67 386.98 117.35 387.17 113.03 386.96 L 112.99 386.00 Z" />
</g>
</svg>
