<svg xmlns="http://www.w3.org/2000/svg" viewBox="0 0 65.895 65.895"><path fill="#181818" d="M59.904 41.869v-.014a4.2 4.2 0 004.068-4.19 4.208 4.208 0 00-4.203-4.203 4.2 4.2 0 00-1.525.295l-.021-.002a1.399 1.399 0 100 2.798 1.39 1.39 0 001.086-.527 1.705 1.705 0 012.164 1.639c0 .939-.764 1.704-1.703 1.704h-9.494v-21.85V5.86c0-2.944-1.015-5.543-4.443-5.699-8.035-.365-16.165 0-24.208 0-3.015 0-5.719.92-5.869 4.476-.132 3.113 0 6.26 0 9.375v25.356h-9.63c-.939 0-1.703-.765-1.703-1.704s.764-1.703 1.703-1.703c.194 0 .381.043.561.106.256.335.655.554 1.108.554a1.396 1.396 0 00.046-2.793 4.205 4.205 0 00-1.716-.367 4.208 4.208 0 00-4.203 4.203 4.209 4.209 0 004.203 4.204h5.264v21.526H6.126c-1.609 0-1.611 2.5 0 2.5h53.778c1.609 0 1.611-2.5 0-2.5h-5.379V41.868h5.379zM20.582 2.662c3.507-.318 7.19 0 10.709 0h12.573c.684 0 1.486-.121 2.162 0 1.914.344 1.75 1.8 1.75 3.199V39.369h-29.52V19.97 7.678c-.001-2.165-.544-4.756 2.326-5.016zm11.125 39.207v21.526h-7.659V41.869h7.659zm2.5 0h7.659v21.526h-7.659V41.869zm-12.658 0v21.526H13.89V41.869h7.659zm30.476 21.526h-7.659V41.869h7.659v21.526z"/></svg>