<svg xmlns="http://www.w3.org/2000/svg" width="634.538" height="634.538"><g fill="#181818"><path d="M185.057 410.545c-35.66 0-64.537-28.94-64.537-64.58 0-35.646 28.877-64.566 64.537-64.566s64.556 28.92 64.556 64.566c.01 35.63-28.896 64.58-64.556 64.58zm.02-155.145c-49.999 0-90.535 40.571-90.535 90.555 0 50.003 40.536 90.545 90.535 90.545s90.54-40.522 90.54-90.545c0-49.994-40.552-90.555-90.54-90.555z"/><path d="M358.445 445.339s-.817.341-2.47 1.178c-6.146 3.676-24.059 16.716-52.469 57.666-2.976 4.143-6.024 8.519-9.122 13.283-21.189 26.655-53.99 43.799-90.827 43.799-60.156 0-109.425-45.568-115.362-104.207-.107-2.354-.35-4.756-.467-6.982-3.656-41.213-15.155-61.342-20.844-68.947-.467-.68-.934-1.293-1.41-1.73-1.186-1.556-1.906-2.178-1.906-2.178-16.936-19.381-26.995-44.724-26.995-72.599 0-61.449 49.853-111.307 111.321-111.307 24.753 0 47.718 7.936 66.219 21.788.467.466 1.055.695 1.521 1.415 1.556 1.542 4.614 3.909 8.894 7.215.229.253.359.481.598.481 15.973 12.098 49.391 32.562 98.757 41.694 23.894 2.49 45.238 13.959 60.525 30.91 15.404 16.925 24.729 39.297 24.729 64.074.011 36.758-20.585 68.451-50.692 84.447zm57.666-164.329c-18.282-20.261-43.799-33.992-72.409-36.963-59.066-10.911-99.029-35.416-118.157-49.877-.287 0-.428-.277-.705-.568-5.11-3.953-8.786-6.793-10.624-8.631-.578-.855-1.278-1.138-1.853-1.707-22.099-16.576-49.58-26.066-79.196-26.066C59.65 157.208 0 216.843 0 290.365c0 33.292 12.039 63.632 32.305 86.874 0 0 .846.68 2.271 2.557.555.545 1.124 1.274 1.683 2.13 6.812 9.024 20.533 33.151 24.924 82.444.141 2.693.428 5.514.588 8.373 7.08 70.113 66.01 124.668 137.996 124.668 44.052 0 83.295-20.528 108.661-52.415 3.705-5.679 7.367-10.921 10.926-15.899 33.997-49.012 55.381-64.58 62.752-68.986 1.975-1.011 2.976-1.419 2.976-1.419 35.981-19.118 60.652-57.103 60.652-101.038-.041-29.602-11.224-56.378-29.623-76.644z"/><path d="M149.729 323.511s13.361-17.484 36.233-18.588c14.897-.219 24.199 4.201 27.078 8.183 2.878 3.978 7.746 18.155-9.301 23.019-3.545.447-9.749-1.965-9.749-1.965s-12.627-3.549-20.811 5.737c-3.316 4.221-4.653 7.536-5.31 9.754-.666 2.217-3.661 11.3-13.683 11.066-10.006-.224-15.982-9.958-13.322-19.04 2.66-9.083 8.865-18.166 8.865-18.166zM231.234 164.126s13.201 7.298 20.499-8.63c7.312-15.934 18.384-36.312 52.031-57.778 17.047-12.18 60.205-28.779 104.48-31.435 20.383-1.556 73.945-4.425 134.616 27.89 12.836 7.08 55.108 33.866 62.197 78.37 2.237 16.818 3.326 48.413-34.288 82.867-4.435 3.686-6.651 6.345-6.651 11.324s-.214 159.282-.214 159.282-1.342 19.041-19.255 19.041H443.243s-13.294-.681-15.715 12.175c-.215 4.882 1.342 16.162 12.175 16.162h97.187s23.902 2.431 37.187-10.162c13.283-12.651 18.146-22.386 18.146-37.206V281.034s1.789-8.864 7.1-14.28c5.299-5.417 32.537-34.945 35.173-72.982.457-26.528-2.217-50.427-27.015-81.865C582.713 80.472 538.408 54.8 493.705 45.06c-44.714-9.749-119.991-18.15-196.134 23.908-40.735 21.69-57.865 47.81-66.335 62.868-8.496 15.034-11.006 24.336-.002 32.29z"/></g></svg>