<svg xmlns="http://www.w3.org/2000/svg" viewBox="0 0 66.854 66.854"><path fill="#181818" d="M57.339 15.874C57.288 7.557 51.191.425 42.664.017 37.391-.236 32.269 2.37 29.292 6.708c-2.617 3.814-2.67 7.956-2.67 12.382 0 .076.011.145.021.214-9.983.84-16.346 11.633-16.622 12.11-.624 1.078-.689 2.203-.18 3.085.027.046.07.08.099.124-.004 3.325-.069 7.188 4.256 7.499 2.209.159 4.49 0 6.703 0 6.758 0 13.586.291 20.339 0 4.438-.191 4.49-3.974 4.49-7.404.056-.076.128-.138.176-.22.509-.882.443-2.006-.181-3.084-.276-.478-6.639-11.271-16.622-12.11.011-.069.021-.138.021-.214 0-3.726-.104-7.285 1.977-10.586 2.775-4.402 8.107-6.754 13.23-5.794 4.942.926 8.99 4.762 10.16 9.655.387 1.617.35 3.225.35 4.865v48.416c0 1.609 2.5 1.611 2.5 0V30.978c0-5.034.031-10.07 0-15.104zM41.465 39.622c-.656.12-1.438 0-2.103 0H16.304c-.658 0-1.451.119-2.103 0-1.828-.333-1.892-2.131-1.82-3.758.075.004.141.023.218.023h30.542c.05 0 .093-.013.142-.015.072 1.626.004 3.418-1.818 3.75zm2.093-6.956c.205.354.193.554.18.583-.02.027-.187.138-.595.138H12.6c-.408 0-.575-.11-.594-.137-.014-.03-.026-.23.179-.584.063-.109 6.424-10.92 15.687-10.92 9.238 0 15.623 10.812 15.686 10.92z"/><path fill="#181818" d="M16.836 46.807v3.174c0 1.609 2.5 1.611 2.5 0v-3.174c0-1.609-2.5-1.612-2.5 0zM16.836 55.654v3.174c0 1.609 2.5 1.611 2.5 0v-3.174c0-1.609-2.5-1.612-2.5 0zM26.633 46.807v3.174c0 1.609 2.5 1.611 2.5 0v-3.174c0-1.609-2.5-1.612-2.5 0zM26.633 55.654v3.174c0 1.609 2.5 1.611 2.5 0v-3.174c0-1.609-2.5-1.612-2.5 0zM36.45 46.807v3.174c0 1.609 2.5 1.611 2.5 0v-3.174c0-1.609-2.5-1.612-2.5 0zM36.45 55.654v3.174c0 1.609 2.5 1.611 2.5 0v-3.174c0-1.609-2.5-1.612-2.5 0z"/></svg>