<svg xmlns="http://www.w3.org/2000/svg" xmlns:xlink="http://www.w3.org/1999/xlink" width="48" height="48"><defs><path fill="#181818" id="prefix__a" d="M14.445 31.168c2.98-1.986 4.488-3.756 5.589-5.047.153-.182.3-.35.443-.514l1.418 1.418-.339.393c-1.111 1.303-2.79 3.273-6.002 5.414-2.361 1.574-2.758 2.984-1.629 5.803.605 1.51 1.664 2.211 3.333 2.211 1.126 0 2.316-.32 3.186-.555.635-.172 1.094-.297 1.474-.297l.21.015c.468.062 1.129.3 2.255.716 1.46.537 3.464 1.275 4.609 1.275 1.651 0 3.123-1.453 3.599-2.436.229-.475.425-.896.542-1.303l1.552 1.551c-.085.189-.171.369-.25.533-.88 1.817-3.056 3.655-5.443 3.655-1.503 0-3.609-.775-5.302-1.4-.729-.27-1.554-.572-1.825-.609-.083.012-.536.133-.9.23-.977.264-2.314.625-3.707.625-2.487 0-4.28-1.199-5.188-3.467-1.488-3.715-.8-6.094 2.375-8.211zM7 23c0-1.545.925-6.262 3.756-6.971.041-.01.086-.006.128-.016l6.467 6.467c.358 2.939-1.113 4.703-1.648 5.23-.759.75-1.758 1.146-2.89 1.146-1.541 0-2.849-.703-3.339-1.008C7.879 26.869 7 25.146 7 23zm2 0c0 1.467.512 2.525 1.522 3.148.558.344 1.451.709 2.291.709.611 0 1.097-.186 1.483-.568.546-.541 1.713-2.102.755-4.936-.343-1.018-2.169-3.414-3.56-3.414-.087 0-.169.01-.25.029C9.87 18.314 9 21.674 9 23zm20.342-4.99c-.143 0-.287-.006-.435-.018-.933-.08-1.707-.48-2.239-1.154-.909-1.154-1.114-3-.664-5.988l.11-.75c.413-2.86.881-6.1 3.856-6.1 1.063 0 2.16.553 3.088 1.555 1.342 1.449 2.081 3.564 1.93 5.521-.26 3.34-2.137 6.934-5.646 6.934zM29.078 16c2.368.195 3.718-2.531 3.915-5.078.132-1.695-.64-3.184-1.403-4.01-.538-.58-1.128-.912-1.62-.912-1.159 0-1.481 1.656-1.877 4.387l-.11.762c-.349 2.297-.261 3.795.257 4.451.128.164.34.357.838.4zM48 24c0 13.232-10.767 24-24 24S0 37.232 0 24C0 10.766 10.767 0 24 0s24 10.766 24 24zm-9.647 16.652L7.347 9.648C4.02 13.504 2 18.519 2 24c0 12.131 9.869 22 22 22 5.481 0 10.496-2.02 14.353-5.348zM46 24c0-12.131-9.869-22-22-22-5.989 0-11.424 2.408-15.396 6.305l31.092 31.09C43.592 35.424 46 29.988 46 24zM20 4c-2.793 0-5.241 3.395-5.866 5.742a8.473 8.473 0 00-.203 1.059l2.032 2.033a5.767 5.767 0 01.104-2.576C16.566 8.381 18.519 6 20 6c.246 0 .418.078.576.262.584.682.756 2.482.436 4.588-.068.447-.127.896-.184 1.338-.303 2.33-.563 3.857-1.375 3.857-.084 0-.175-.01-.27-.027-.018-.004-.032-.012-.051-.014l1.683 1.682c1.422-.865 1.726-3.16 1.996-5.24.056-.428.112-.863.177-1.295.249-1.635.463-4.611-.896-6.191A2.683 2.683 0 0020 4zm20.987 18.043c-.078 1.857-.294 3.191-1.165 4.51l-.182.277c-1.063 1.621-1.765 2.693-3.387 3.135a8.137 8.137 0 01-2.082.291c-.299 0-.58-.035-.86-.074l-4.378-4.379c-.065-1.879 1.166-3.746 2.234-5.355.721-1.088 3.43-3.695 5.854-3.695.542 0 1.038.131 1.474.385 2.432 1.432 2.562 3.282 2.492 4.905zm-3.506-3.182a.895.895 0 00-.46-.109c-1.347 0-3.554 1.842-4.188 2.801-2.201 3.316-2.423 4.443-1.126 5.74.647.648 1.454.963 2.464.963.483 0 1.009-.074 1.561-.223.849-.23 1.188-.701 2.235-2.299l.186-.283c.618-.936.771-1.949.837-3.494.062-1.489-.139-2.289-1.509-3.096z"/></defs><use xlink:href="#prefix__a"/></svg>