<svg xmlns="http://www.w3.org/2000/svg" viewBox="0 0 70.77 70.77"><path fill="#181818" d="M68.183 16.46c-1.63-.846-2.038-1.825-2.843-3.407-.442-.87-.918-1.63-1.772-2.145-.862-.52-2.736-.485-3.365-1.195-.666-.752-.106-2.509.019-3.399.192-1.367-.072-2.698-1.375-2.808-.214-.071-.468-.068-.752.047-.23.047-.407.143-.545.264-2.502 1.23-4.523 3.749-6.355 5.725-3.037 3.277-5.961 6.671-9.185 9.768-2.622 2.519-4.988 4.771-8.777 4.527-5.262-.339-10.39-1.794-15.677-1.977-3.546-.123-7.558.257-10.479 2.41-2.339-2.603-4.167-5.495-4.653-9.053-.217-1.587-2.626-.911-2.411.665.541 3.955 2.658 7.236 5.275 10.133-3.111 3.964-2.73 9.543-1.148 14.025.422 1.197.955 2.447 1.037 3.73.103 1.609-.562 3.31-1.053 4.823-.799 2.457-1.436 4.701-1.12 7.306.458 3.788 1.743 10.682 6.491 11.361 1.654.237 3.782-.249 4.525-1.926.878-1.982-1.106-4.435-1.757-6.24-.559-1.549-1.193-3.536-.329-5.061.675-1.191 2.173-2.025 3.177-2.908.882-.775 1.742-1.607 2.353-2.621.685-1.138.674-2.422 1.195-3.563 1.119-2.452 6.013-3.057 8.39-3.196a20.04 20.04 0 016.102.553c4.946 1.23 8.98 3.573 9.82 8.881.704 4.453.594 10.575 3.83 14.113 2.005 2.192 8.529 3.154 7.924-1.362-.137-1.024-.678-1.936-1.288-2.751-.506-.675-1.457-1.238-1.839-1.935-1.089-1.991-.4-5.532-.239-7.661.127-1.682.128-3.478.735-5.071.459-1.204 1.263-2.184 1.987-3.229 1.188-1.715 1.485-3.462 1.711-5.512.304-2.762.346-5.545.514-8.316.136-2.252-.278-5.701 2.815-5.642 1.399.027 2.558.974 3.898 1.221 1.128.208 2.381.008 3.469-.322 2.25-.683 4.017-2.328 4.264-4.769.195-1.955-1.016-2.677-2.569-3.483zM53.642 32.651c-.107 2.161-.176 4.348-.536 6.485-.36 2.138-1.769 3.387-2.764 5.233-1.267 2.351-1.334 5.035-1.517 7.642-.156 2.224-.378 4.607.06 6.817.321 1.619 1.069 2.139 2.132 3.328.981 1.097 2.041 2.635-.209 2.512-1.419-.078-2.296-1.029-2.931-2.204-2.434-4.5-1.393-10.079-3.123-14.768-2.495-6.762-12.129-8.97-18.521-8.395-2.484.224-4.9.811-7.124 1.96-2.141 1.106-2.515 1.765-3.034 3.95-1.151 4.839-7.58 5.793-6.971 11.334.232 2.115 1.038 3.968 1.905 5.884.438.967 1.427 1.949-.475 2.39-.636.147-1.228-.104-1.726-.431-1.022-.669-1.579-2.102-1.983-3.188-1.001-2.692-1.806-5.945-1.237-8.806.494-2.482 1.704-4.77 2.016-7.302.28-2.277-.58-4.312-1.306-6.424-.989-2.879-1.27-5.891-.257-8.827 1.78-5.157 7.488-5.706 12.206-5.452 5.209.28 10.294 1.773 15.501 1.974 3.416.132 5.807-1.518 8.307-3.698a58.889 58.889 0 003.129-2.972c1.976 3.38 4.995 5.721 8.586 7.376-.181 1.992-.056 4.11-.128 5.582zM66.697 21.95c-3.661 2.254-8.084-2.996-11.465.756-.446.495-.76 1.129-.989 1.838-3.071-1.548-5.582-3.671-7.227-6.74 1.443-1.538 2.85-3.112 4.267-4.664 1.396-1.53 2.789-3.068 4.26-4.527.622-.617 1.328-1.397 2.104-1.989l-.006.04c-.059.392-.126.79-.154 1.186-.067.953-.068 1.994.381 2.869.787 1.535 2.438 1.464 3.848 2.116 1.938.898 1.983 3.561 3.679 4.893.597.469 1.339.645 1.937 1.071.527.375.831.155.934.982.101.84-.99 1.813-1.569 2.169z"/></svg>