<svg height="32" width="32" xmlns="http://www.w3.org/2000/svg"><path fill="#181818" d="M6.584 3A2.59 2.59 0 004 5.584V9H2.5a.5.5 0 00-.5.5v5a.5.5 0 00.5.5H4v2H2.5a.5.5 0 00-.5.5v5a.5.5 0 00.5.5H4v3.418A2.588 2.588 0 006.584 29h20.832A2.588 2.588 0 0030 26.418V5.584A2.59 2.59 0 0027.416 3H6.584zm0 1h20.832A1.57 1.57 0 0129 5.584v20.834c0 .886-.698 1.582-1.584 1.582H6.584A1.568 1.568 0 015 26.418v-3.84a.5.5 0 00-.113-.402.5.5 0 00-.002-.004.5.5 0 00-.031-.033.5.5 0 00-.004-.004.5.5 0 00-.034-.03.5.5 0 00-.003-.001.5.5 0 00-.395-.104H3v-4h1.5a.5.5 0 00.494-.613.5.5 0 00.006-.084v-2.604a.5.5 0 00-.006-.088A.5.5 0 004.5 14H3v-4h1.424a.5.5 0 00.39-.107.5.5 0 00.01-.006.5.5 0 00.004-.004.5.5 0 00.033-.031.5.5 0 00.002-.002.5.5 0 000-.002.5.5 0 00.137-.43V5.584A1.57 1.57 0 016.584 4zm3.43 2.973v.011A2 2 0 008.6 7.57a.5.5 0 00-.014.016 2.006 2.006 0 000 2.828l3.828 3.828c-.217.565-.398 1.149-.4 1.756.001.602.178 1.18.39 1.74l-3.818 3.82a2.006 2.006 0 00-.002 2.827h.002l.01.01a.5.5 0 00.004 0 2.008 2.008 0 002.83 0l3.81-3.811c.57.221 1.158.406 1.772.408a.5.5 0 00.002 0c.608 0 1.193-.182 1.76-.398l3.8 3.8c.778.778 2.051.778 2.828 0a.5.5 0 00.016-.013 2.006 2.006 0 000-2.828l-3.803-3.805c.216-.565.397-1.149.399-1.756-.001-.614-.186-1.202-.407-1.773l3.811-3.81a2.006 2.006 0 000-2.829l-.012-.012a.5.5 0 00-.004-.01 2.006 2.006 0 00-2.828 0l-3.822 3.823c-.56-.212-1.136-.391-1.736-.393a.5.5 0 00-.004 0c-.607 0-1.19.183-1.754.399L11.43 7.559a2.003 2.003 0 00-1.416-.586zm13.974 1.004v.003c.254 0 .508.098.707.297l.012.014a.5.5 0 00.004 0 .987.987 0 010 1.414l-3.996 3.996a.5.5 0 00-.098.57c.26.54.396 1.129.397 1.727a3.994 3.994 0 01-.389 1.707.5.5 0 00.098.57l3.988 3.99a.986.986 0 01.002 1.41h-.002a.5.5 0 00-.016.014.987.987 0 01-1.414 0l-3.986-3.986a.5.5 0 00-.568-.098 3.996 3.996 0 01-1.711.39 3.976 3.976 0 01-1.727-.4.5.5 0 00-.57.098l-3.996 3.996a.99.99 0 01-1.416 0l-.01-.01a.5.5 0 00-.004 0 .987.987 0 010-1.413l4.004-4.006a.5.5 0 00.1-.569 3.997 3.997 0 01-.383-1.693 3.996 3.996 0 01.39-1.71.5.5 0 00-.097-.57L9.293 9.706a.987.987 0 010-1.414.5.5 0 00.018-.02.988.988 0 01.703-.29c.257 0 .511.094.709.292l4.013 4.014a.5.5 0 00.569.1 4.005 4.005 0 011.707-.39c.586 0 1.166.132 1.697.382a.5.5 0 00.566-.1l4.006-4.006a.995.995 0 01.707-.296zM17.014 13c-1.651 0-3 1.35-3 3 0 1.651 1.349 3 3 3 1.65 0 3-1.349 3-3 0-1.65-1.35-3-3-3zm0 1c1.11 0 2 .89 2 2 0 1.11-.89 2-2 2-1.11 0-2-.89-2-2 0-1.11.89-2 2-2z" style="line-height:normal;text-indent:0;text-align:start;text-decoration-line:none;text-decoration-style:solid;text-decoration-color:#181818;text-transform:none;block-progression:tb;white-space:normal;isolation:auto;mix-blend-mode:normal;solid-color:#181818;solid-opacity:1" color="#181818" font-weight="400" font-family="sans-serif" overflow="visible"/></svg>