<svg data-name="Layer 1" viewBox="0 0 32 32" xmlns="http://www.w3.org/2000/svg"><path fill="#181818" d="M23.91 4a1.5 1.5 0 00-1.41-1h-4a1.5 1.5 0 00-1.41 1h-4.18a1.5 1.5 0 00-1.41-1h-2a1.5 1.5 0 00-1.41 1H6v25h20V4h-2.09zM25 5v4H7V5h18zM7 28V10h18v18H7z"/><circle fill="#181818" cx="9" cy="7" r="1"/><circle fill="#181818" cx="17" cy="7" r="1"/><circle fill="#181818" cx="14" cy="7" r="1"/><circle fill="#181818" cx="20" cy="7" r="1"/><circle fill="#181818" cx="23" cy="7" r="1"/><path fill="#181818" d="M12 11h8v1h-8z"/><path fill="#181818" d="M20.5 13h-9A2.5 2.5 0 009 15.5v6a2.5 2.5 0 002.5 2.5h9a2.5 2.5 0 002.5-2.5v-6a2.5 2.5 0 00-2.5-2.5zm1.5 8.5a1.5 1.5 0 01-1.5 1.5h-9a1.5 1.5 0 01-1.5-1.5v-6a1.5 1.5 0 011.5-1.5h9a1.5 1.5 0 011.5 1.5v6z"/></svg>