<svg data-name="Layer 1" viewBox="0 0 32 32" xmlns="http://www.w3.org/2000/svg"><path fill="#181818" d="M6 3v26h20V3H6zm19 1v4H7V4h18zM7 28V9h18v19H7z"/><circle fill="#181818" cx="10" cy="6" r="1"/><circle fill="#181818" cx="14" cy="6" r="1"/><circle fill="#181818" cx="18" cy="6" r="1"/><circle fill="#181818" cx="22" cy="6" r="1"/><path fill="#181818" d="M16 11a7 7 0 107 7 7 7 0 00-7-7zm0 13a6 6 0 116-6 6 6 0 01-6 6z"/><path fill="#181818" d="M16 14a4 4 0 104 4 4 4 0 00-4-4zm0 7a3 3 0 113-3 3 3 0 01-3 3z"/></svg>