<svg data-name="Layer 1" id="prefix__Layer_1" viewBox="0 0 100 100" xmlns="http://www.w3.org/2000/svg"><defs><style>.prefix__cls-1{fill:#181818}</style></defs><path class="prefix__cls-1" d="M5.342 81.594A2.4 2.4 0 007.4 85.222h85.206a2.4 2.4 0 000-4.79H79.931L74.845 72.1a25.429 25.429 0 10-40.681-30.08H33.861c-2.971.01-5.781 1.824-7.706 4.979L5.342 81.594zm71.343-26.621A20.464 20.464 0 0172.221 67.8l-4.034-6.609-.01-.015c-1.944-3.127-4.758-4.917-7.72-4.917h-.031c-2.974.01-5.785 1.826-7.71 4.982l-.01.015-1.1 1.834L41.6 46.94a11.782 11.782 0 00-2.865-3.215 20.642 20.642 0 0137.95 11.248zM64.1 63.689l10.22 16.743H46.8l10.008-16.71c1.038-1.7 2.362-2.675 3.635-2.681h.011c1.268 0 2.6.965 3.646 2.648zM11.632 80.432l18.619-30.959c1.033-1.687 2.355-2.666 3.628-2.67s2.6.965 3.652 2.66L48.84 67.71l-7.619 12.722zM55.521 28.292a2.4 2.4 0 01-2.393-2.4v-8.718a2.394 2.394 0 114.787 0V25.9a2.394 2.394 0 01-2.394 2.392z"/><path class="prefix__cls-1" d="M92.425 59.061h-7.4a2.394 2.394 0 110-4.787h7.4a2.394 2.394 0 010 4.787zM79.007 36.575a2.4 2.4 0 01-3.388-3.387l6.17-6.167a2.393 2.393 0 113.385 3.384zM34.278 37.818a2.39 2.39 0 01-1.692-.7l-6.17-6.17a2.394 2.394 0 013.384-3.386l6.167 6.167a2.4 2.4 0 01-1.692 4.089z"/></svg>