<svg xmlns="http://www.w3.org/2000/svg" viewBox="0 0 72.362 72.362"><path fill="#181818" d="M26.351 33.849l-1.802 5.188c-.317.914 1.131 1.307 1.446.399l1.802-5.188c.318-.914-1.131-1.307-1.446-.399zM22.495 54.04c2.837.115 4.961-2.039 5.277-4.721.027-.114.044-.235.037-.372a1.238 1.238 0 00-.07-.494c-.356-2.542-2.324-4.61-5.034-4.61-2.773 0-5.104 2.333-5.104 5.104-.001 2.698 2.203 4.984 4.894 5.093zm2.814-5.093c-.18 3.337-5.208 3.365-5.208 0-.001-3.368 5.028-3.338 5.208 0zM49.431 54.04c2.837.115 4.961-2.039 5.277-4.721.027-.114.044-.235.037-.372a1.238 1.238 0 00-.07-.494c-.356-2.542-2.324-4.61-5.034-4.61-2.773 0-5.104 2.333-5.104 5.104 0 2.698 2.203 4.984 4.894 5.093zm2.814-5.093c-.18 3.337-5.208 3.365-5.208 0 0-3.368 5.029-3.338 5.208 0zM71.767 29.084L42.017 11.03c-1.293-.785-2.65-1.83-4.138-2.21-2.43-.621-4.362.284-6.335 1.482l-16.457 9.987L.594 29.084c-1.374.834-.119 2.996 1.262 2.159l28.967-17.579c1.112-.675 2.231-1.529 3.416-2.073 2.462-1.131 4.092.127 6.043 1.311l16.576 10.059 13.648 8.282c1.378.837 2.636-1.324 1.261-2.159z"/><path fill="#181818" d="M65.7 61.243h-9.024c.124-.155.24-.317.335-.494.547-1.019.373-2.288.367-3.409 1.625-.597 2.794-2.147 2.794-3.977v-8.831c0-1.885-1.242-3.469-2.945-4.024l-4.484-11.771c-.771-2.022-3.07-3.607-5.235-3.607H24.853c-2.165 0-4.465 1.584-5.236 3.607l-4.483 11.771c-1.703.555-2.945 2.138-2.945 4.024v8.831c0 1.87 1.221 3.443 2.901 4.01-.01 1.113-.174 2.367.368 3.376.095.177.211.339.335.494H7.438c-1.609 0-1.611 2.5 0 2.5H65.7c1.608 0 1.611-2.5 0-2.5zm-12.709-3.63h1.9c.061.953.266 2.438-.95 2.438-1.214 0-1.011-1.487-.95-2.438zM21.953 29.627c.406-1.064 1.762-1.998 2.9-1.998h22.655c1.139 0 2.494.934 2.899 1.998l4.059 10.654h-2.198L49.58 32.51c-.713-2.062-2.98-3.677-5.162-3.677H27.944c-2.182 0-4.45 1.614-5.165 3.674l-2.7 7.774h-2.184l4.058-10.654zm27.669 10.654H22.725l2.415-6.954c.369-1.062 1.679-1.994 2.804-1.994h16.474c1.124 0 2.432.932 2.799 1.994l2.405 6.954zm-34.933 4.25c0-.965.785-1.75 1.75-1.75h39.483c.965 0 1.75.785 1.75 1.75v8.831c0 .965-.785 1.75-1.75 1.75H16.439c-.965 0-1.75-.785-1.75-1.75v-8.831zm3.839 15.52c-1.214 0-1.011-1.486-.95-2.438h1.9c.062.953.266 2.438-.95 2.438zm3.07.698c.503-.938.397-2.086.372-3.136H50.5c-.025 1.051-.132 2.199.372 3.136.095.177.211.339.335.494H21.264c.123-.155.239-.317.334-.494z"/></svg>