<svg xmlns="http://www.w3.org/2000/svg" viewBox="0 0 69.677 69.677"><path fill="#181818" d="M29.999 43.879c0 1.609 2.5 1.611 2.5 0v-9.187h18.875v9.187c0 1.609 2.5 1.611 2.5 0v-19.04c0-2.349-.034-4.701 0-7.05.038-2.611.4-5.429 2.165-7.49 1.803-2.105 4.556-2.649 7.198-2.697 1.607-.029 1.612-2.529 0-2.5-5.274.096-9.768 2.467-11.262 7.786-.633 2.253-.656 4.661-.627 7.03H32.491c.001-.71-.003-1.42.008-2.13.038-2.611.4-5.429 2.165-7.49 1.803-2.105 4.556-2.649 7.198-2.697 1.607-.029 1.612-2.529 0-2.5-5.274.098-9.769 2.469-11.262 7.788-.849 3.024-.601 6.328-.601 9.441v21.549zm2.5-11.687v-7.353c0-.807-.005-1.614-.009-2.421h18.884v9.773l-18.875.001z"/><path fill="#181818" d="M1.203 46.185c3.153.19 4.147 4.998 6.328 6.787 2.309 1.895 5.383 1.394 7.326-.739 1.665-1.828 3.377-7.418 6.719-5.775 2.642 1.298 3.135 5.243 5.647 6.883 2.554 1.667 5.478.648 7.245-1.596 1.605-2.039 3.799-7.822 7.135-4.675 2.146 2.024 2.7 5.417 5.618 6.69 2.669 1.164 5.167-.219 6.753-2.39 1.014-1.389 1.68-3.228 2.991-4.376 1.78-1.559 3.556-.517 4.733 1.154 1.878 2.664 3.06 5.824 6.774 6.039 1.607.093 1.602-2.407 0-2.5-3.084-.179-4.088-4.791-6.117-6.604-2.096-1.873-5.133-1.796-7.158.144-1.819 1.742-3.017 6.464-5.955 6.461-3.017-.004-4.215-4.977-6.204-6.689-2.223-1.914-5.311-1.597-7.299.473-1.745 1.818-3.493 7.609-6.88 5.943-2.647-1.302-3.129-5.244-5.647-6.883-2.495-1.624-5.365-.697-7.145 1.469-2.001 2.436-4.432 8.626-7.927 3.972-2.019-2.689-3.07-6.054-6.939-6.287-1.605-.098-1.599 2.402.002 2.499z"/><path fill="#181818" d="M68.474 62.072c-3.084-.179-4.088-4.791-6.117-6.604-2.096-1.873-5.133-1.796-7.158.144-1.819 1.742-3.017 6.464-5.955 6.461-3.017-.004-4.215-4.977-6.204-6.689-2.223-1.914-5.311-1.597-7.299.473-1.745 1.818-3.493 7.61-6.88 5.943-2.647-1.302-3.129-5.244-5.647-6.883-2.495-1.624-5.365-.697-7.145 1.469-2.001 2.436-4.432 8.626-7.927 3.972-2.019-2.689-3.07-6.054-6.939-6.287-1.607-.097-1.601 2.404 0 2.5 3.153.19 4.147 4.998 6.328 6.787 2.309 1.895 5.383 1.394 7.326-.739 1.665-1.828 3.377-7.418 6.719-5.775 2.642 1.298 3.135 5.243 5.647 6.883 2.554 1.667 5.478.648 7.245-1.596 1.605-2.039 3.799-7.821 7.135-4.675 2.146 2.024 2.7 5.417 5.618 6.69 2.669 1.164 5.167-.219 6.753-2.39 1.014-1.389 1.68-3.228 2.991-4.376 1.78-1.559 3.556-.517 4.733 1.154 1.878 2.664 3.06 5.824 6.774 6.039 1.609.092 1.604-2.408.002-2.501z"/></svg>