<svg viewBox="0 0 256 256" xmlns="http://www.w3.org/2000/svg"><path fill="#181818" d="M137.5 110.5c-3.5-2.1-7.1-4.2-10.7-6.2l-12.3-7.1c-7.6-4.4-16.2-9.4-24.6-14-3.8-2.1-7.4-2.4-10.1-.9-2.7 1.5-4.2 4.7-4.4 8.9-.2 6.5-.2 13.2-.1 20v8.8l-.1 9c0 6.3-.1 12.9.1 19.4.1 4.5 1.6 7.8 4.2 9.4 1.2.7 2.5 1.1 4 1.1 2 0 4.1-.6 6.4-1.7.5-.2 1-.5 1.4-.8l8.8-5.1c12.6-7.3 25.2-14.5 37.8-21.9 1.6-.9 2.9-1.9 4-3 3.8-3.9 3.8-8.5-.1-12.4-1.3-1.6-3-2.7-4.3-3.5zm-4.4 10.1c-12.6 7.3-25.2 14.6-37.7 21.8l-8.8 5.1c-.3.2-.6.3-.9.5-.1.1-.2.1-.3.1v-.2c-.1-6.3-.1-12.8-.1-19.3l.1-8.7c0-3 0-5.9-.1-9.3-.1-6.2-.1-12.5.1-18.7 8.2 4.5 16.7 9.4 24.2 13.8l12.3 7.1c3.5 2 7.1 4 10.5 6.1.3.2 1 .6 1.6 1-.3.4-.6.5-.9.7z"/><path fill="#181818" d="M210.7 27.2H45.4C23 27.2 4.9 45.4 4.9 67.7v104.6c0 22.3 18.2 40.5 40.5 40.5h19.2v11c0 2.7 2.2 5 5 5 2.7 0 5-2.2 5-5v-11h107v11c0 2.7 2.2 5 5 5 2.7 0 5-2.2 5-5v-11h19.2c22.3 0 40.5-18.2 40.5-40.5V67.7c-.2-22.3-18.3-40.5-40.6-40.5zm30.5 145.1c0 16.8-13.7 30.6-30.6 30.6H45.4c-16.8 0-30.6-13.7-30.6-30.6V67.7c0-16.8 13.7-30.6 30.6-30.6h165.3c16.8 0 30.6 13.7 30.6 30.6v104.6z"/><path fill="#181818" d="M174.8 54.3H45.4c-7.4 0-13.4 6-13.4 13.4v104.6c0 7.4 6 13.4 13.4 13.4h129.4c7.4 0 13.4-6 13.4-13.4V67.7c0-7.4-6-13.4-13.4-13.4zm3.4 118c0 1.9-1.6 3.5-3.5 3.5H45.4c-1.9 0-3.5-1.6-3.5-3.5V67.7c0-1.9 1.6-3.5 3.5-3.5h129.4c1.9 0 3.5 1.6 3.5 3.5v104.6z"/><circle fill="#181818" cx="214.6" cy="95.4" r="6.3"/><circle fill="#181818" cx="214.6" cy="67.3" r="6.3"/></svg>