<svg xmlns="http://www.w3.org/2000/svg" viewBox="0 0 69.629 69.629"><path fill="#181818" d="M34.651 49.912a5.782 5.782 0 00-5.776 5.775c0 3.186 2.591 5.776 5.776 5.776s5.776-2.591 5.776-5.776a5.78 5.78 0 00-5.776-5.775zm0 9.051a3.28 3.28 0 01-3.276-3.276c0-1.806 1.47-3.275 3.276-3.275s3.276 1.47 3.276 3.275a3.279 3.279 0 01-3.276 3.276zM69.078 18.976C48.655 4.485 20.875 4.568.546 19.19c-1.294.931-.048 3.101 1.262 2.159 19.673-14.151 46.242-14.24 66.009-.214 1.314.932 2.564-1.235 1.261-2.159z"/><path fill="#181818" d="M59.549 30.135c-14.531-10.907-34.755-10.831-49.194.195-1.262.964-.018 3.136 1.262 2.159 13.814-10.549 32.765-10.633 46.67-.196 1.287.966 2.534-1.203 1.262-2.158zM49.488 41.364a24.748 24.748 0 00-29.538-.104c-1.281.945-.036 3.115 1.262 2.159 8.162-6.018 18.897-5.972 27.015.104 1.288.964 2.535-1.205 1.261-2.159z"/></svg>