<?xml version="1.0" encoding="UTF-8" ?>
<!DOCTYPE svg PUBLIC "-//W3C//DTD SVG 1.1//EN" "http://www.w3.org/Graphics/SVG/1.1/DTD/svg11.dtd">
<svg width="1000pt" height="1000pt" viewBox="0 0 1000 1000" version="1.1" xmlns="http://www.w3.org/2000/svg">
<g id="#ecf0efff">
<path fill="#ecf0ef" opacity="1.00" d=" M 225.83 162.57 C 226.13 159.39 225.47 156.11 226.22 152.99 C 226.43 156.05 226.29 159.13 226.36 162.20 C 227.95 162.25 229.54 162.35 231.13 162.52 C 229.36 162.71 227.59 162.62 225.83 162.57 Z" />
<path fill="#ecf0ef" opacity="1.00" d=" M 567.10 758.87 C 567.19 754.97 570.96 751.90 574.77 752.22 C 591.70 752.78 608.63 753.62 625.56 754.19 C 627.34 754.26 629.13 754.36 630.93 754.45 C 639.98 754.79 649.03 755.18 658.08 755.54 C 668.95 755.96 679.82 756.42 690.70 756.84 C 704.23 757.48 717.77 757.91 731.31 758.47 C 734.19 758.63 737.13 758.48 739.99 759.08 C 743.07 759.77 745.37 762.82 745.30 765.98 C 745.27 771.90 744.84 777.82 744.58 783.75 C 723.31 782.77 702.03 781.79 680.74 781.24 C 672.27 773.48 660.56 769.21 649.07 770.64 C 641.48 771.35 634.40 774.67 628.35 779.21 C 607.71 777.82 587.00 777.47 566.33 776.48 C 566.62 770.61 566.61 764.72 567.10 758.87 M 582.23 761.32 C 577.28 764.03 577.46 772.80 582.93 774.79 C 591.27 775.48 599.68 775.68 608.05 775.88 C 614.90 774.86 615.24 763.06 608.42 761.75 C 601.26 761.25 594.08 761.17 586.92 760.78 C 585.36 760.82 583.63 760.46 582.23 761.32 M 690.54 762.63 C 684.73 764.73 683.88 773.62 689.02 776.95 C 693.24 780.04 699.62 777.02 700.45 772.00 C 702.06 766.42 696.17 760.21 690.54 762.63 Z" />
<path fill="#ecf0ef" opacity="1.00" d=" M 563.62 850.49 C 590.78 851.12 617.93 852.60 645.09 853.56 C 677.12 854.92 709.16 856.06 741.19 857.52 C 741.15 859.04 741.09 860.58 741.01 862.12 C 739.92 865.36 736.30 867.35 732.97 866.88 C 681.64 864.85 630.31 862.82 578.98 860.71 C 575.53 860.65 572.06 860.58 568.65 860.06 C 564.55 858.96 562.81 854.37 563.62 850.49 Z" />
</g>
<g id="#92cff0ff">
<path fill="#92cff0" opacity="1.00" d=" M 233.52 156.21 C 234.94 157.88 236.47 159.45 237.82 161.19 C 238.67 163.60 235.42 162.58 234.10 162.91 C 233.59 162.06 233.08 161.22 232.55 160.38 C 232.62 158.94 233.02 157.56 233.52 156.21 Z" />
</g>
<g id="#ffffffff">
<path fill="#ffffff" opacity="1.00" d=" M 815.70 217.91 C 816.06 217.74 816.79 217.40 817.16 217.23 C 818.21 219.04 819.31 220.83 820.47 222.58 C 820.02 222.96 819.59 223.33 819.17 223.71 C 818.06 221.76 816.41 220.05 815.70 217.91 Z" />
<path fill="#ffffff" opacity="1.00" d=" M 823.55 232.64 C 824.00 232.55 824.92 232.37 825.37 232.28 C 826.38 235.36 828.14 238.26 828.49 241.51 C 828.14 241.56 827.45 241.65 827.11 241.70 C 825.94 238.67 824.96 235.57 823.55 232.64 Z" />
<path fill="#ffffff" opacity="1.00" d=" M 829.58 251.55 C 830.04 251.50 830.97 251.40 831.43 251.35 C 831.95 254.61 832.47 257.87 832.87 261.15 C 832.45 261.03 831.60 260.78 831.18 260.66 C 830.56 257.64 830.36 254.54 829.58 251.55 Z" />
<path fill="#ffffff" opacity="1.00" d=" M 402.44 273.59 C 411.18 268.35 421.83 267.05 431.82 268.31 C 431.19 278.12 428.44 288.15 422.17 295.89 C 409.74 308.91 396.46 321.08 383.02 333.03 C 379.86 335.98 376.31 338.52 373.45 341.79 C 358.60 354.69 343.72 367.58 328.30 379.80 C 305.46 398.60 282.34 417.08 258.79 434.99 C 252.97 438.75 246.68 441.71 240.47 444.76 C 231.23 449.71 221.36 453.38 211.34 456.40 C 209.05 459.10 206.79 461.89 204.01 464.11 L 202.94 464.02 C 203.75 458.56 210.56 457.14 212.25 452.13 C 216.09 443.75 221.48 436.25 226.31 428.46 C 186.36 447.08 146.89 466.73 106.98 485.46 C 111.75 496.91 117.64 507.87 122.84 519.13 C 156.97 590.19 191.19 661.20 225.23 732.30 C 230.97 730.01 236.39 727.02 242.01 724.48 C 243.64 728.52 245.24 732.56 246.87 736.59 C 237.88 741.08 228.72 745.23 219.70 749.69 C 183.94 675.53 148.41 601.25 112.69 527.07 C 105.21 511.08 97.11 495.35 89.95 479.22 C 132.36 459.05 174.58 438.45 216.99 418.29 C 220.02 421.65 223.18 424.98 227.07 427.37 C 231.00 422.29 235.09 417.32 238.94 412.17 C 237.60 411.37 236.25 410.57 234.88 409.84 C 240.63 406.16 247.69 404.62 252.73 399.87 C 269.95 383.69 287.70 368.09 305.22 352.26 C 307.67 349.69 310.35 347.36 313.08 345.09 C 325.19 334.63 337.30 324.17 349.68 314.02 C 367.24 300.54 384.03 285.95 402.44 273.59 M 410.10 273.76 C 415.87 277.42 420.04 282.99 422.80 289.17 C 423.61 285.34 423.98 280.84 421.37 277.59 C 418.70 274.25 414.09 273.71 410.10 273.76 Z" />
<path fill="#ffffff" opacity="1.00" d=" M 831.70 271.28 C 832.12 271.30 832.94 271.36 833.36 271.38 C 833.23 274.58 833.51 277.84 832.79 280.98 C 832.40 280.99 831.63 281.00 831.25 281.00 C 831.37 277.76 831.78 274.52 831.70 271.28 Z" />
<path fill="#ffffff" opacity="1.00" d=" M 494.06 285.01 C 499.27 282.76 504.17 279.74 509.57 277.97 C 521.95 304.48 535.10 330.64 547.34 357.20 C 550.16 357.69 553.02 357.89 555.88 357.96 C 548.54 357.91 541.19 357.74 533.85 357.67 C 523.71 336.82 513.74 315.89 503.69 294.99 C 461.80 315.01 419.99 335.21 378.11 355.28 C 376.67 351.10 375.76 346.73 373.96 342.69 C 414.06 323.60 454.06 304.29 494.06 285.01 Z" />
<path fill="#ffffff" opacity="1.00" d=" M 829.50 291.20 C 829.98 291.23 830.94 291.31 831.43 291.34 C 830.54 294.53 829.72 297.74 828.71 300.90 C 828.31 300.70 827.53 300.30 827.14 300.10 C 828.14 297.19 828.94 294.22 829.50 291.20 Z" />
<path fill="#ffffff" opacity="1.00" d=" M 747.19 295.31 C 748.59 293.23 751.02 294.90 752.88 295.33 C 754.54 296.11 757.19 296.15 757.54 298.42 C 753.97 297.88 750.64 296.34 747.19 295.31 Z" />
<path fill="#ffffff" opacity="1.00" d=" M 710.56 304.30 C 713.34 302.21 715.39 298.64 719.08 298.15 C 717.87 301.44 713.78 302.45 711.98 305.46 C 711.49 305.06 711.02 304.68 710.56 304.30 Z" />
<path fill="#ffffff" opacity="1.00" d=" M 766.01 302.01 C 769.32 302.99 771.73 305.62 774.55 307.49 C 774.33 307.86 773.88 308.59 773.66 308.95 C 771.30 307.08 768.81 305.39 766.36 303.66 C 766.27 303.25 766.09 302.42 766.01 302.01 Z" />
<path fill="#ffffff" opacity="1.00" d=" M 819.03 318.98 C 819.90 315.42 822.20 312.47 823.90 309.28 C 825.59 311.22 823.30 313.09 822.61 314.93 C 821.58 316.42 821.24 318.89 819.03 318.98 Z" />
<path fill="#ffffff" opacity="1.00" d=" M 705.65 314.49 C 706.03 314.24 706.79 313.73 707.17 313.48 C 707.16 316.86 706.65 320.23 706.79 323.63 C 706.42 323.72 705.68 323.91 705.32 324.00 C 705.22 320.84 704.83 317.58 705.65 314.49 Z" />
<path fill="#ffffff" opacity="1.00" d=" M 781.09 314.99 C 784.34 316.71 785.69 320.53 787.57 323.50 C 787.13 323.50 786.26 323.50 785.82 323.50 C 784.39 320.58 781.35 318.35 781.09 314.99 Z" />
<path fill="#ffffff" opacity="1.00" d=" M 807.23 334.03 C 809.38 331.67 811.41 329.20 813.27 326.60 C 813.55 326.88 814.12 327.43 814.40 327.71 C 812.60 330.53 810.27 332.96 808.15 335.54 C 807.92 335.16 807.46 334.41 807.23 334.03 Z" />
<path fill="#ffffff" opacity="1.00" d=" M 791.32 332.24 C 793.47 335.09 794.16 338.68 795.40 341.97 L 793.72 342.28 C 792.88 339.31 791.51 336.52 790.59 333.59 C 790.77 333.25 791.14 332.58 791.32 332.24 Z" />
<path fill="#ffffff" opacity="1.00" d=" M 708.39 333.47 C 708.80 333.43 709.61 333.35 710.02 333.31 C 711.73 336.11 713.40 338.96 715.05 341.81 C 714.61 341.79 713.72 341.76 713.28 341.74 C 711.32 339.20 709.84 336.32 708.39 333.47 Z" />
<path fill="#ffffff" opacity="1.00" d=" M 792.96 349.06 C 793.91 345.49 797.97 343.89 800.49 341.42 C 800.93 342.61 800.53 343.70 799.46 344.38 C 797.38 346.04 795.53 348.17 792.96 349.06 Z" />
<path fill="#ffffff" opacity="1.00" d=" M 721.14 350.78 C 720.01 350.23 721.27 349.30 721.75 348.98 C 723.89 351.15 726.36 352.95 728.64 354.98 C 728.56 355.38 728.42 356.19 728.35 356.59 C 725.78 354.87 723.38 352.89 721.14 350.78 Z" />
<path fill="#ffffff" opacity="1.00" d=" M 796.44 352.17 C 796.97 352.00 797.52 351.88 798.09 351.80 C 798.88 354.49 799.39 357.27 799.80 360.05 C 799.91 361.04 799.49 361.70 798.54 362.03 C 797.81 358.75 797.20 355.44 796.44 352.17 Z" />
<path fill="#ffffff" opacity="1.00" d=" M 776.05 357.99 C 778.80 356.50 781.58 355.04 784.36 353.59 C 784.54 353.93 784.88 354.62 785.06 354.96 C 782.34 356.86 779.30 358.21 776.34 359.66 C 776.27 359.24 776.12 358.41 776.05 357.99 Z" />
<path fill="#ffffff" opacity="1.00" d=" M 737.15 360.19 C 740.28 361.19 743.37 362.40 746.65 362.94 C 746.66 363.39 746.69 364.29 746.71 364.75 C 743.48 364.16 740.25 363.36 737.34 361.84 C 737.29 361.43 737.19 360.60 737.15 360.19 Z" />
<path fill="#ffffff" opacity="1.00" d=" M 756.82 363.27 C 760.04 362.52 763.32 362.04 766.59 361.51 C 766.58 361.92 766.56 362.75 766.55 363.17 C 763.28 363.60 759.91 365.13 756.66 364.42 L 756.82 363.27 Z" />
<path fill="#ffffff" opacity="1.00" d=" M 799.46 391.28 C 799.82 391.43 800.56 391.72 800.92 391.86 C 800.58 395.11 800.15 398.35 799.48 401.55 C 799.11 401.44 798.37 401.23 798.00 401.13 C 798.37 397.83 798.73 394.52 799.46 391.28 Z" />
<path fill="#ffffff" opacity="1.00" d=" M 795.32 411.45 C 795.73 411.36 796.55 411.18 796.96 411.09 C 796.30 414.61 794.83 417.92 793.18 421.08 L 792.22 419.71 C 793.21 416.94 794.27 414.19 795.32 411.45 Z" />
<path fill="#ffffff" opacity="1.00" d=" M 785.95 430.11 C 786.53 429.22 787.39 428.96 788.51 429.33 C 786.80 431.96 784.92 434.50 782.65 436.69 C 782.19 436.72 781.28 436.79 780.82 436.83 C 782.29 434.41 784.35 432.43 785.95 430.11 Z" />
<path fill="#ffffff" opacity="1.00" d=" M 765.18 447.91 C 768.24 446.49 770.83 444.24 773.92 442.89 C 773.86 443.33 773.74 444.23 773.68 444.68 C 771.32 446.47 768.72 447.91 766.15 449.36 C 765.81 448.87 765.49 448.39 765.18 447.91 Z" />
<path fill="#ffffff" opacity="1.00" d=" M 587.60 449.89 C 587.47 447.12 590.33 447.59 592.20 447.27 C 594.08 447.08 595.98 446.92 597.88 446.76 C 597.91 447.28 597.98 448.34 598.01 448.87 C 596.08 449.06 594.15 449.26 592.23 449.46 C 590.68 449.61 589.13 449.75 587.60 449.89 Z" />
<path fill="#ffffff" opacity="1.00" d=" M 567.89 451.11 C 571.20 450.50 574.48 449.72 577.82 449.28 C 577.91 449.72 578.07 450.61 578.15 451.05 C 575.11 452.27 571.57 452.71 568.29 452.80 C 568.19 452.38 567.99 451.53 567.89 451.11 Z" />
<path fill="#ffffff" opacity="1.00" d=" M 667.05 449.94 C 667.21 449.78 667.52 449.46 667.67 449.30 C 670.55 451.09 674.10 451.01 677.33 451.76 C 677.33 452.18 677.33 453.03 677.33 453.46 C 674.15 452.95 670.95 452.54 667.84 451.74 C 667.64 451.29 667.25 450.39 667.05 449.94 Z" />
<path fill="#ffffff" opacity="1.00" d=" M 746.50 454.83 C 749.68 454.02 752.82 453.06 755.94 452.04 C 756.11 452.41 756.45 453.16 756.62 453.53 C 753.52 454.60 750.36 455.99 747.09 456.19 L 746.50 454.83 Z" />
<path fill="#ffffff" opacity="1.00" d=" M 556.85 453.59 C 557.53 453.56 558.22 453.54 558.92 453.52 C 558.76 454.00 558.46 454.95 558.30 455.42 C 555.18 456.52 551.92 457.19 548.74 458.09 C 548.80 457.55 548.91 456.49 548.97 455.96 C 551.53 454.97 554.21 454.35 556.85 453.59 Z" />
<path fill="#ffffff" opacity="1.00" d=" M 687.53 454.33 C 690.60 454.13 693.65 455.26 696.71 455.62 C 696.74 456.09 696.78 457.02 696.81 457.49 C 693.52 456.87 690.22 456.28 686.96 455.58 C 687.10 455.27 687.38 454.65 687.53 454.33 Z" />
<path fill="#ffffff" opacity="1.00" d=" M 727.27 457.43 C 730.42 457.21 733.58 457.03 736.72 456.54 C 736.72 457.03 736.73 458.02 736.73 458.51 C 733.48 458.61 730.26 459.18 727.02 459.14 C 727.08 458.71 727.20 457.85 727.27 457.43 Z" />
<path fill="#ffffff" opacity="1.00" d=" M 529.76 462.23 C 532.78 461.00 535.91 460.04 538.99 458.96 C 539.19 459.42 539.60 460.35 539.81 460.82 C 536.56 462.12 533.25 463.26 529.94 464.39 C 529.90 463.85 529.80 462.77 529.76 462.23 Z" />
<path fill="#ffffff" opacity="1.00" d=" M 510.81 470.14 C 513.98 468.82 517.00 466.88 520.41 466.27 C 520.60 466.68 520.99 467.51 521.18 467.92 C 517.96 469.03 514.98 471.18 511.63 471.64 C 511.43 471.27 511.01 470.52 510.81 470.14 Z" />
<path fill="#ffffff" opacity="1.00" d=" M 192.55 481.43 C 192.91 477.80 194.71 474.42 196.82 471.51 L 198.31 471.94 C 197.48 474.97 195.81 477.70 194.50 480.55 C 194.01 480.77 193.04 481.21 192.55 481.43 Z" />
<path fill="#ffffff" opacity="1.00" d=" M 501.55 474.50 C 502.59 474.40 502.44 475.71 502.84 476.36 C 499.86 477.62 497.10 479.32 494.15 480.64 C 493.18 480.25 492.94 479.58 493.45 478.65 C 496.11 477.19 498.81 475.79 501.55 474.50 Z" />
<path fill="#ffffff" opacity="1.00" d=" M 482.53 484.60 C 483.64 483.59 485.46 483.87 484.92 485.69 C 482.01 487.23 479.30 489.52 476.12 490.27 L 475.54 488.76 C 477.76 487.20 480.15 485.91 482.53 484.60 Z" />
<path fill="#ffffff" opacity="1.00" d=" M 458.70 499.00 C 461.36 497.20 464.01 495.33 466.95 494.01 C 467.26 494.40 467.89 495.17 468.20 495.56 C 465.19 497.28 462.41 499.44 459.23 500.88 C 459.10 500.41 458.84 499.47 458.70 499.00 Z" />
<path fill="#ffffff" opacity="1.00" d=" M 444.22 508.11 C 446.24 506.81 448.31 505.57 450.39 504.35 C 450.51 504.91 450.75 506.01 450.88 506.56 C 448.54 507.97 446.29 509.51 443.98 510.95 C 443.32 511.07 442.01 511.31 441.36 511.43 C 441.96 510.05 442.95 508.92 444.22 508.11 Z" />
<path fill="#ffffff" opacity="1.00" d=" M 193.95 516.79 C 193.50 514.62 190.77 511.66 192.96 509.88 C 194.56 511.15 194.92 513.42 195.89 515.16 C 196.53 516.52 197.21 517.87 197.88 519.24 C 195.87 520.37 194.84 518.23 193.95 516.79 Z" />
<path fill="#ffffff" opacity="1.00" d=" M 425.38 520.44 C 428.03 518.59 430.81 516.95 433.55 515.26 C 433.67 515.70 433.91 516.58 434.03 517.02 C 431.77 519.36 428.67 520.77 425.96 522.55 L 425.17 521.88 C 425.22 521.52 425.33 520.80 425.38 520.44 Z" />
<path fill="#ffffff" opacity="1.00" d=" M 415.16 526.88 C 415.52 526.74 416.24 526.47 416.60 526.34 C 416.87 526.69 417.40 527.39 417.67 527.74 C 416.62 528.44 415.57 529.14 414.52 529.84 C 412.53 530.84 410.63 532.97 408.33 532.74 C 408.25 532.39 408.10 531.71 408.02 531.36 C 410.30 529.72 412.74 528.31 415.16 526.88 Z" />
<path fill="#ffffff" opacity="1.00" d=" M 390.35 541.15 C 393.39 539.46 396.45 537.78 399.57 536.25 C 399.58 536.81 399.60 537.94 399.61 538.51 C 396.95 540.24 394.05 541.55 391.22 542.96 C 391.00 542.51 390.57 541.60 390.35 541.15 Z" />
<path fill="#ffffff" opacity="1.00" d=" M 371.99 549.37 C 375.19 547.92 378.46 546.64 381.68 545.25 C 381.81 545.73 382.06 546.68 382.19 547.16 C 379.34 548.77 376.27 550.07 373.11 550.92 C 372.83 550.53 372.27 549.76 371.99 549.37 Z" />
<path fill="#ffffff" opacity="1.00" d=" M 353.07 556.86 C 353.27 553.75 356.89 554.10 359.09 553.23 C 360.87 552.83 363.00 551.60 363.91 554.09 C 362.27 554.62 360.64 555.14 358.98 555.60 C 357.03 556.10 355.05 556.52 353.07 556.86 Z" />
<path fill="#ffffff" opacity="1.00" d=" M 314.39 560.85 C 314.62 560.71 315.09 560.43 315.33 560.28 C 318.22 560.42 321.11 560.22 323.99 559.97 C 324.03 560.49 324.11 561.53 324.14 562.05 C 321.50 562.29 318.87 562.54 316.22 562.71 C 315.61 562.75 314.38 562.81 313.77 562.85 C 313.92 562.35 314.23 561.35 314.39 560.85 Z" />
<path fill="#ffffff" opacity="1.00" d=" M 304.38 670.97 C 306.06 670.31 307.75 669.66 309.44 669.02 C 310.34 674.91 311.08 680.84 312.60 686.62 C 320.16 683.49 327.76 680.49 335.34 677.43 C 335.98 679.07 336.61 680.73 337.22 682.39 C 329.65 685.52 321.84 688.12 314.50 691.75 C 318.25 695.17 321.45 699.25 325.52 702.29 C 332.94 704.74 340.40 707.22 347.99 709.14 C 348.88 711.13 349.71 713.15 350.50 715.20 C 342.73 713.05 335.19 710.16 327.48 707.83 C 328.90 721.58 330.95 735.27 332.56 749.00 C 332.35 750.63 334.17 749.10 334.64 748.69 C 341.74 741.99 348.70 735.14 355.93 728.56 C 356.43 729.85 356.93 731.15 357.44 732.46 C 356.48 733.62 355.51 734.78 354.55 735.95 C 357.02 746.16 359.10 756.46 361.69 766.64 C 364.45 765.60 367.20 764.55 369.94 763.49 C 370.27 764.23 370.92 765.73 371.24 766.48 C 368.58 767.84 365.83 769.04 363.04 770.11 C 364.38 776.75 366.19 783.29 367.46 789.95 C 371.67 789.69 375.84 789.08 380.01 788.47 C 380.26 789.13 380.76 790.44 381.02 791.10 C 376.63 792.07 372.25 793.06 367.89 794.14 C 368.95 795.87 370.03 797.59 371.14 799.30 C 370.88 799.69 370.35 800.46 370.08 800.84 L 369.28 801.30 C 367.81 799.04 366.34 796.79 364.89 794.53 C 356.35 797.05 347.85 799.74 339.48 802.77 C 341.10 805.56 342.74 808.34 344.37 811.14 C 343.67 811.46 342.26 812.11 341.55 812.44 C 339.34 809.78 337.51 806.85 335.80 803.87 C 327.56 805.49 319.38 807.43 311.29 809.66 C 314.19 813.45 317.17 817.17 320.16 820.89 C 319.21 821.26 318.27 821.65 317.32 822.04 C 314.26 818.25 311.08 814.55 307.84 810.91 C 304.58 812.18 301.33 813.46 298.06 814.73 C 297.68 813.62 297.31 812.53 296.94 811.44 C 300.26 810.27 303.56 809.01 306.83 807.71 C 306.15 799.43 305.04 791.20 304.15 782.95 C 298.32 783.97 292.46 784.89 286.70 786.23 C 286.45 785.65 285.96 784.49 285.72 783.91 C 285.59 783.33 285.35 782.18 285.23 781.60 C 291.10 780.96 296.98 780.41 302.84 779.71 C 301.25 769.52 299.96 759.28 298.08 749.14 C 289.98 750.81 281.90 752.58 273.80 754.30 C 273.02 752.35 272.23 750.39 271.43 748.46 C 273.19 747.54 275.08 746.90 277.03 746.54 C 283.26 745.30 289.46 743.86 295.67 742.50 C 296.12 734.45 296.74 726.40 296.85 718.34 C 292.14 714.83 287.81 710.86 283.12 707.33 C 277.91 714.07 272.78 720.87 267.68 727.68 C 266.71 728.94 265.51 730.00 264.34 731.07 C 263.71 729.28 263.02 727.52 262.31 725.77 C 267.16 718.36 272.58 711.34 277.60 704.04 C 274.30 697.96 270.99 691.88 267.71 685.79 C 269.57 685.01 271.43 684.24 273.29 683.47 C 276.37 688.47 279.10 693.67 282.01 698.77 C 290.31 695.59 298.57 692.28 306.76 688.81 C 305.92 682.87 305.00 676.93 304.38 670.97 M 299.01 697.70 C 295.06 699.59 290.46 700.55 286.92 702.99 C 291.16 707.50 296.64 710.74 301.25 714.90 C 307.94 711.39 314.50 707.64 321.01 703.81 C 316.98 700.56 313.09 697.13 308.91 694.09 C 305.42 694.65 302.33 696.58 299.01 697.70 M 303.22 719.17 C 302.59 726.73 302.38 734.33 302.03 741.91 C 310.35 744.96 318.50 748.46 326.90 751.30 C 325.69 737.10 324.32 722.90 322.95 708.71 C 316.19 711.83 309.86 715.80 303.22 719.17 M 333.73 755.83 C 332.11 762.34 331.42 769.11 330.37 775.75 C 339.55 773.61 348.56 770.80 357.65 768.32 C 355.94 758.42 353.63 748.63 351.69 738.77 C 345.27 743.93 339.59 750.04 333.73 755.83 M 303.61 748.32 C 304.75 758.52 306.45 768.65 307.47 778.86 C 313.28 778.98 319.04 777.83 324.79 777.15 C 325.66 770.37 327.95 763.68 328.21 756.92 C 320.11 753.80 311.90 750.89 303.61 748.32 M 330.35 779.76 C 331.85 784.62 334.16 789.18 335.86 793.97 C 336.63 795.55 336.88 797.56 338.26 798.76 C 346.75 796.74 355.05 793.90 363.57 791.94 C 362.53 785.16 360.54 778.57 359.04 771.89 C 349.40 774.22 339.94 777.23 330.35 779.76 M 308.07 782.82 C 308.98 790.54 309.72 798.29 310.85 805.98 C 318.57 804.27 326.22 802.23 333.96 800.58 C 331.68 793.87 328.31 787.55 325.17 781.21 C 319.47 781.72 313.77 782.26 308.07 782.82 Z" />
<path fill="#ffffff" opacity="1.00" d=" M 348.44 820.58 C 354.54 818.89 361.49 822.84 363.03 829.01 C 365.06 835.41 360.64 842.84 354.05 844.10 C 347.78 845.68 340.85 841.31 339.61 834.97 C 338.09 828.80 342.22 821.96 348.44 820.58 M 349.37 827.48 C 345.66 828.80 345.11 834.42 348.34 836.56 C 351.36 838.92 356.37 836.76 356.61 832.90 C 357.26 829.06 352.86 825.82 349.37 827.48 Z" />
</g>
<g id="#f2f2f2ff">
<path fill="#f2f2f2" opacity="1.00" d=" M 215.05 263.03 C 219.35 259.61 223.35 255.82 227.73 252.49 C 266.71 272.35 305.93 291.72 344.97 311.46 C 346.59 312.20 348.20 313.01 349.68 314.02 C 337.30 324.17 325.19 334.63 313.08 345.09 C 310.35 347.36 307.67 349.69 305.22 352.26 C 275.48 322.21 244.71 293.16 215.05 263.03 Z" />
<path fill="#f2f2f2" opacity="1.00" d=" M 328.30 379.80 C 343.72 367.58 358.60 354.69 373.45 341.79 L 373.96 342.69 C 375.76 346.73 376.67 351.10 378.11 355.28 C 378.23 355.67 378.47 356.44 378.59 356.83 C 383.52 372.87 388.59 388.87 393.58 404.89 C 395.98 412.65 398.41 420.39 400.84 428.13 C 403.31 436.09 405.80 444.05 408.30 452.00 C 410.37 458.59 412.32 465.23 414.58 471.77 C 414.60 471.96 414.64 472.35 414.66 472.55 C 410.35 476.20 406.04 479.86 401.76 483.53 C 393.97 472.79 386.46 461.84 378.71 451.07 C 369.44 437.80 360.03 424.62 350.72 411.38 C 346.90 406.00 343.10 400.61 339.31 395.22 C 335.64 390.07 332.06 384.87 328.30 379.80 Z" />
<path fill="#f2f2f2" opacity="1.00" d=" M 196.25 397.31 C 197.76 395.89 199.29 394.49 200.94 393.25 C 212.36 398.55 223.34 404.80 234.88 409.84 C 236.25 410.57 237.60 411.37 238.94 412.17 C 235.09 417.32 231.00 422.29 227.07 427.37 C 223.18 424.98 220.02 421.65 216.99 418.29 C 210.44 410.95 203.06 404.40 196.25 397.31 Z" />
<path fill="#f2f2f2" opacity="1.00" d=" M 240.47 444.76 C 246.68 441.71 252.97 438.75 258.79 434.99 C 261.87 444.79 264.91 454.60 267.97 464.40 C 269.20 468.25 270.49 472.07 271.48 475.99 C 269.87 477.43 268.28 478.87 266.70 480.34 C 264.07 477.35 261.73 474.14 259.51 470.85 C 254.30 463.31 248.90 455.90 243.71 448.34 C 242.81 446.99 241.67 445.83 240.47 444.76 Z" />
<path fill="#f2f2f2" opacity="1.00" d=" M 619.30 699.45 C 619.40 699.49 619.61 699.57 619.71 699.61 C 619.61 699.57 619.40 699.49 619.30 699.45 Z" />
</g>
<g id="#303341ff">
<path fill="#303341" opacity="1.00" d=" M 410.10 273.76 C 414.09 273.71 418.70 274.25 421.37 277.59 C 423.98 280.84 423.61 285.34 422.80 289.17 C 420.04 282.99 415.87 277.42 410.10 273.76 Z" />
</g>
<g id="#fffeffff">
<path fill="#fffeff" opacity="1.00" d=" M 728.20 293.48 C 731.34 293.04 734.49 292.61 737.68 292.62 C 737.68 293.04 737.70 293.88 737.70 294.30 C 734.50 294.20 731.37 294.89 728.22 295.28 C 728.21 294.83 728.21 293.93 728.20 293.48 Z" />
</g>
<g id="#3ed6d9ff">
<path fill="#3ed6d9" opacity="1.00" d=" M 378.11 355.28 C 419.99 335.21 461.80 315.01 503.69 294.99 C 513.74 315.89 523.71 336.82 533.85 357.67 C 499.66 357.31 465.48 356.82 431.29 356.52 C 431.32 354.19 431.39 351.87 431.47 349.56 C 421.58 348.97 411.67 349.27 401.77 348.98 C 401.76 351.36 401.75 353.75 401.74 356.14 C 394.00 356.06 386.26 355.89 378.53 355.89 L 378.59 356.83 C 378.47 356.44 378.23 355.67 378.11 355.28 Z" />
<path fill="#3ed6d9" opacity="1.00" d=" M 106.98 485.46 C 146.89 466.73 186.36 447.08 226.31 428.46 C 221.48 436.25 216.09 443.75 212.25 452.13 C 210.56 457.14 203.75 458.56 202.94 464.02 L 204.01 464.11 C 206.79 461.89 209.05 459.10 211.34 456.40 C 221.36 453.38 231.23 449.71 240.47 444.76 C 241.67 445.83 242.81 446.99 243.71 448.34 C 248.90 455.90 254.30 463.31 259.51 470.85 C 255.60 473.67 251.91 477.18 247.03 478.18 C 239.95 479.97 231.97 480.22 226.13 485.14 C 221.09 489.41 215.51 494.11 214.14 500.93 C 213.72 503.82 211.00 505.31 208.81 506.79 C 204.43 509.46 199.99 512.05 195.89 515.16 C 194.92 513.42 194.56 511.15 192.96 509.88 C 190.77 511.66 193.50 514.62 193.95 516.79 C 191.32 519.95 189.76 523.89 189.92 528.04 C 189.51 531.43 190.76 536.16 187.15 538.18 C 178.90 542.44 169.81 544.71 161.31 548.39 C 156.55 550.53 151.86 554.47 151.37 560.00 C 152.56 567.35 161.40 572.91 168.38 569.44 C 174.49 567.38 178.18 561.30 184.28 559.39 C 192.10 558.78 199.90 561.54 206.65 565.33 C 210.97 567.57 213.21 572.10 216.80 575.17 C 223.35 579.83 231.80 579.40 239.41 580.56 C 245.01 581.26 250.21 584.20 255.96 583.85 C 262.58 583.58 269.15 582.63 275.69 581.62 C 277.96 581.09 280.62 580.88 282.19 578.93 C 280.01 576.90 276.87 576.10 273.97 576.19 C 269.51 577.24 265.08 579.65 260.38 578.48 C 255.93 576.89 254.62 570.24 258.12 567.08 C 260.33 565.25 263.09 564.20 265.19 562.22 C 270.42 557.01 273.51 549.97 274.60 542.73 C 275.46 536.85 280.48 532.08 279.92 525.98 C 278.44 522.04 273.83 520.31 269.95 519.83 C 263.99 519.34 257.95 519.32 252.05 520.34 C 253.20 524.92 256.74 528.49 257.68 533.14 C 258.26 536.25 254.26 536.58 252.09 536.83 C 246.65 536.98 240.63 537.07 235.84 534.18 C 232.22 530.73 236.60 525.85 239.02 523.03 C 242.12 520.26 241.76 515.95 242.51 512.24 C 242.89 509.78 245.84 509.02 247.96 509.04 C 252.20 508.78 252.96 514.64 256.98 515.10 C 260.78 516.26 265.46 513.20 264.87 509.00 C 264.92 505.80 261.39 504.77 258.92 504.02 C 252.81 501.99 246.22 503.37 240.06 501.78 C 238.45 501.49 236.37 499.58 237.90 498.02 C 240.08 495.15 243.92 494.44 247.11 493.18 C 252.05 491.75 257.15 488.67 262.41 490.52 C 267.65 492.49 271.08 497.19 275.36 500.57 C 276.56 501.62 277.75 502.68 279.00 503.68 C 281.70 513.25 287.23 521.69 291.31 530.70 C 296.77 543.70 304.09 555.84 309.20 569.01 C 304.32 569.74 299.42 570.44 294.61 571.52 C 289.75 572.47 286.34 577.28 285.86 582.00 C 286.16 586.91 288.71 591.51 291.88 595.16 C 297.00 599.24 304.04 599.26 309.66 602.36 C 312.35 604.39 313.76 607.61 315.64 610.34 C 315.53 620.90 315.44 631.46 315.24 642.02 C 293.60 650.80 271.92 659.47 250.25 668.19 C 246.11 669.90 241.67 671.27 238.24 674.28 C 231.17 680.20 228.49 690.66 231.88 699.26 C 235.21 707.68 238.65 716.07 242.01 724.48 C 236.39 727.02 230.97 730.01 225.23 732.30 C 191.19 661.20 156.97 590.19 122.84 519.13 C 117.64 507.87 111.75 496.91 106.98 485.46 M 192.55 481.43 C 193.04 481.21 194.01 480.77 194.50 480.55 C 195.81 477.70 197.48 474.97 198.31 471.94 L 196.82 471.51 C 194.71 474.42 192.91 477.80 192.55 481.43 M 189.67 490.70 C 189.37 494.01 189.32 497.32 189.40 500.64 C 189.94 500.64 191.03 500.65 191.58 500.65 C 191.46 497.19 191.55 493.74 191.68 490.29 C 191.18 490.39 190.17 490.60 189.67 490.70 M 274.08 559.15 C 274.13 559.72 274.23 560.86 274.28 561.43 C 277.56 561.61 280.81 562.32 284.10 562.22 C 284.02 561.75 283.87 560.81 283.79 560.34 C 280.58 559.75 277.31 559.58 274.08 559.15 M 293.89 560.99 C 294.00 561.56 294.22 562.69 294.32 563.26 C 297.42 563.07 300.52 563.31 303.63 563.32 C 303.79 562.77 304.11 561.68 304.27 561.14 C 300.81 561.11 297.35 561.05 293.89 560.99 Z" />
</g>
<g id="#763728ff">
<path fill="#763728" opacity="1.00" d=" M 401.77 348.98 C 411.67 349.27 421.58 348.97 431.47 349.56 C 431.39 351.87 431.32 354.19 431.29 356.52 C 431.11 372.72 430.90 388.93 430.73 405.13 C 430.65 412.79 430.51 420.44 430.43 428.10 C 420.57 428.65 410.70 428.08 400.84 428.13 C 401.05 420.39 401.04 412.64 401.15 404.89 C 401.39 388.64 401.51 372.39 401.74 356.14 C 401.75 353.75 401.76 351.36 401.77 348.98 Z" />
<path fill="#763728" opacity="1.00" d=" M 593.43 351.20 C 603.11 351.53 612.80 351.41 622.48 351.57 C 623.67 353.30 622.74 356.31 622.96 358.53 C 622.63 370.63 622.59 382.74 622.48 394.84 C 622.10 406.86 622.29 418.89 622.02 430.91 C 612.17 431.03 602.31 430.22 592.48 430.65 C 592.57 422.77 592.64 414.89 592.74 407.01 C 592.90 390.78 593.17 374.55 593.27 358.33 C 591.49 358.39 589.73 358.46 587.97 358.60 L 588.75 358.27 C 590.27 358.22 591.80 358.20 593.35 358.19 C 593.41 355.86 593.44 353.53 593.43 351.20 Z" />
<path fill="#763728" opacity="1.00" d=" M 592.23 449.46 C 592.50 450.94 592.78 452.43 593.07 453.93 C 599.33 454.08 605.59 453.93 611.85 454.15 C 611.21 466.10 611.48 478.07 611.37 490.04 C 611.21 512.01 610.66 533.98 610.70 555.96 C 600.81 555.83 590.91 555.72 581.02 555.61 C 581.34 521.63 581.86 487.66 582.17 453.68 C 585.44 453.73 588.71 453.75 591.98 453.76 C 592.06 452.32 592.14 450.89 592.23 449.46 Z" />
<path fill="#763728" opacity="1.00" d=" M 415.42 452.36 C 420.31 451.60 425.26 452.04 430.19 451.97 C 435.12 451.93 440.05 452.01 444.98 452.08 C 444.28 470.75 445.01 489.44 444.22 508.11 C 442.95 508.92 441.96 510.05 441.36 511.43 C 442.01 511.31 443.32 511.07 443.98 510.95 C 444.43 525.29 443.54 539.65 443.82 554.00 C 433.87 553.88 423.92 553.78 413.97 553.64 C 414.98 545.74 414.35 537.77 414.52 529.84 C 415.57 529.14 416.62 528.44 417.67 527.74 C 417.40 527.39 416.87 526.69 416.60 526.34 C 416.24 526.47 415.52 526.74 415.16 526.88 C 414.85 524.60 414.56 522.32 414.57 520.02 C 414.69 509.02 414.73 498.02 414.89 487.02 C 415.00 482.19 415.28 477.35 414.66 472.55 C 414.64 472.35 414.60 471.96 414.58 471.77 C 415.64 465.35 415.09 458.83 415.42 452.36 M 425.38 520.44 C 425.33 520.80 425.22 521.52 425.17 521.88 L 425.96 522.55 C 428.67 520.77 431.77 519.36 434.03 517.02 C 433.91 516.58 433.67 515.70 433.55 515.26 C 430.81 516.95 428.03 518.59 425.38 520.44 Z" />
<path fill="#763728" opacity="1.00" d=" M 414.05 561.70 C 423.81 561.77 433.58 561.97 443.35 562.01 C 443.46 575.18 443.36 588.35 443.12 601.51 C 433.32 601.30 423.53 601.28 413.73 601.11 C 413.55 587.97 413.95 574.84 414.05 561.70 Z" />
<path fill="#763728" opacity="1.00" d=" M 580.92 563.61 C 590.71 563.84 600.51 563.81 610.31 564.02 C 610.39 577.15 610.29 590.29 610.01 603.42 C 600.25 603.37 590.49 603.12 580.73 603.13 C 580.49 589.96 580.72 576.78 580.92 563.61 Z" />
<path fill="#763728" opacity="1.00" d=" M 413.69 609.17 C 423.45 609.29 433.21 609.41 442.97 609.51 C 443.05 621.66 442.65 633.80 442.68 645.95 C 442.59 650.29 442.57 654.64 442.60 659.00 C 442.41 665.81 442.67 672.63 442.39 679.44 C 441.38 680.58 439.33 679.79 437.94 680.09 C 429.59 679.93 421.24 679.86 412.89 679.72 C 412.41 672.79 412.93 665.84 412.89 658.91 C 412.98 654.36 412.96 649.82 413.01 645.28 C 413.49 633.24 412.93 621.18 413.69 609.17 Z" />
<path fill="#763728" opacity="1.00" d=" M 580.22 611.12 C 590.12 611.24 600.03 611.34 609.93 611.48 C 609.76 623.62 609.62 635.76 609.61 647.90 C 609.56 652.27 609.50 656.65 609.51 661.03 C 609.46 668.00 609.57 675.00 608.96 681.96 C 599.25 682.07 589.56 681.72 579.86 681.71 C 579.34 674.59 579.76 667.44 579.81 660.31 C 579.88 655.95 579.84 651.60 579.93 647.25 C 580.06 635.21 580.44 623.16 580.22 611.12 Z" />
<path fill="#763728" opacity="1.00" d=" M 368.67 694.72 C 376.26 695.16 383.88 695.03 391.48 695.19 C 391.44 696.72 391.40 698.26 391.36 699.81 C 384.23 704.53 379.26 712.48 378.56 721.05 C 378.29 725.22 378.47 729.41 378.07 733.58 C 374.21 726.01 371.51 717.93 368.33 710.07 C 368.32 704.95 368.46 699.83 368.67 694.72 Z" />
<path fill="#763728" opacity="1.00" d=" M 624.04 697.88 C 631.26 697.91 638.50 698.32 645.72 697.95 C 643.18 707.45 641.00 717.05 638.07 726.44 C 637.73 716.42 632.55 706.64 623.81 701.50 C 623.87 700.59 623.98 698.78 624.04 697.88 Z" />
</g>
<g id="#fec828ff">
<path fill="#fec828" opacity="1.00" d=" M 378.53 355.89 C 386.26 355.89 394.00 356.06 401.74 356.14 C 401.51 372.39 401.39 388.64 401.15 404.89 C 398.62 404.86 396.10 404.86 393.58 404.89 C 388.59 388.87 383.52 372.87 378.59 356.83 L 378.53 355.89 Z" />
<path fill="#fec828" opacity="1.00" d=" M 431.29 356.52 C 465.48 356.82 499.66 357.31 533.85 357.67 C 541.19 357.74 548.54 357.91 555.88 357.96 C 559.46 358.08 563.05 357.80 566.62 358.16 C 573.69 358.69 580.96 360.02 587.97 358.60 C 589.73 358.46 591.49 358.39 593.27 358.33 C 593.17 374.55 592.90 390.78 592.74 407.01 C 573.13 407.02 553.53 406.45 533.93 406.64 C 517.94 405.95 501.94 406.18 485.94 405.83 C 467.54 405.17 449.13 405.53 430.73 405.13 C 430.90 388.93 431.11 372.72 431.29 356.52 Z" />
<path fill="#fec828" opacity="1.00" d=" M 622.96 358.53 C 632.98 358.62 642.99 359.13 653.02 359.00 C 667.56 359.49 679.25 372.95 680.08 387.05 C 680.47 396.35 679.80 405.67 679.99 414.98 C 679.95 420.18 680.33 425.46 679.04 430.56 C 676.03 422.80 671.60 415.00 663.95 411.01 C 656.70 406.69 648.02 408.01 639.99 407.65 C 634.44 407.41 628.87 407.97 623.33 407.51 C 621.81 403.73 623.01 398.98 622.48 394.84 C 622.59 382.74 622.63 370.63 622.96 358.53 Z" />
<path fill="#fec828" opacity="1.00" d=" M 339.31 395.22 C 343.10 400.61 346.90 406.00 350.72 411.38 C 344.93 414.46 342.68 420.90 339.84 426.38 C 338.39 416.05 340.09 405.58 339.31 395.22 Z" />
<path fill="#fec828" opacity="1.00" d=" M 401.82 695.38 C 415.52 695.09 429.23 695.61 442.94 695.65 C 499.58 696.39 556.23 696.84 612.87 697.74 C 613.41 697.81 614.49 697.94 615.04 698.01 C 615.60 698.19 616.74 698.55 617.31 698.74 C 617.81 698.91 618.80 699.27 619.30 699.45 C 619.40 699.49 619.61 699.57 619.71 699.61 C 621.09 700.15 622.48 700.79 623.81 701.50 C 632.55 706.64 637.73 716.42 638.07 726.44 C 636.05 735.87 633.29 745.11 630.93 754.45 C 629.13 754.36 627.34 754.26 625.56 754.19 C 619.65 748.36 610.80 747.85 602.97 748.05 C 590.67 747.90 578.36 747.97 566.08 747.39 C 537.04 747.42 508.00 746.92 478.97 746.65 C 454.33 746.72 429.71 745.78 405.07 745.82 C 397.84 745.87 391.27 749.42 385.96 754.09 C 383.41 747.22 380.13 740.62 378.07 733.58 C 378.47 729.41 378.29 725.22 378.56 721.05 C 379.26 712.48 384.23 704.53 391.36 699.81 C 394.58 697.77 398.21 696.54 401.82 695.38 Z" />
</g>
<g id="#eacb4dfe">
<path fill="#eacb4d" opacity="1.00" d=" M 566.62 358.16 C 573.99 357.94 581.39 357.78 588.75 358.27 L 587.97 358.60 C 580.96 360.02 573.69 358.69 566.62 358.16 Z" />
</g>
<g id="#fffffeff">
<path fill="#fffffe" opacity="1.00" d=" M 799.47 371.51 C 799.91 371.58 800.79 371.73 801.23 371.81 C 801.36 375.05 801.60 378.29 801.46 381.54 C 801.01 381.51 800.11 381.45 799.66 381.42 C 799.71 378.11 799.66 374.80 799.47 371.51 Z" />
</g>
<g id="#34c6c6ff">
<path fill="#34c6c6" opacity="1.00" d=" M 258.79 434.99 C 282.34 417.08 305.46 398.60 328.30 379.80 C 332.06 384.87 335.64 390.07 339.31 395.22 C 340.09 405.58 338.39 416.05 339.84 426.38 C 341.59 436.30 348.26 445.46 357.69 449.33 C 361.96 451.18 366.68 451.37 371.27 451.40 C 368.12 452.35 365.45 454.31 362.98 456.41 C 357.60 458.88 355.23 464.56 351.86 469.02 C 349.79 472.22 347.05 475.24 346.22 479.05 C 346.64 482.28 351.47 482.32 352.68 484.98 C 349.63 488.87 348.40 493.66 346.29 498.05 C 347.47 499.42 348.65 500.79 349.83 502.17 C 347.36 503.91 344.66 505.28 342.09 506.86 C 343.38 508.98 344.66 511.10 345.94 513.23 C 347.94 513.05 349.95 512.88 351.95 512.73 C 354.16 509.17 354.99 505.05 356.29 501.13 C 356.60 499.39 358.39 498.74 359.66 497.84 C 359.63 501.36 359.64 504.89 359.57 508.42 C 354.79 511.08 348.99 514.86 349.12 521.03 C 348.93 525.92 345.78 530.92 348.45 535.66 C 350.04 540.35 354.66 542.76 359.16 543.97 C 359.13 547.05 359.12 550.14 359.09 553.23 C 356.89 554.10 353.27 553.75 353.07 556.86 C 355.05 556.52 357.03 556.10 358.98 555.60 C 358.98 556.53 358.98 558.41 358.98 559.35 C 354.30 559.22 349.61 559.31 344.93 559.12 L 344.31 559.10 C 344.10 558.61 343.67 557.61 343.46 557.11 C 340.01 557.42 336.65 558.24 333.26 558.92 C 328.84 559.12 324.42 558.88 320.00 558.84 C 318.29 558.68 316.63 559.14 315.33 560.28 C 315.09 560.43 314.62 560.71 314.39 560.85 C 314.23 561.35 313.92 562.35 313.77 562.85 C 314.38 562.81 315.61 562.75 316.22 562.71 C 316.18 564.91 316.14 567.10 316.13 569.31 C 313.82 569.17 311.51 569.00 309.20 569.01 C 304.09 555.84 296.77 543.70 291.31 530.70 C 287.23 521.69 281.70 513.25 279.00 503.68 C 281.84 504.86 285.75 507.09 288.43 504.42 C 290.84 501.51 290.10 497.23 292.00 494.04 C 294.98 489.46 300.18 486.72 302.84 481.90 C 304.51 475.96 299.02 471.00 299.56 465.13 C 299.88 461.28 300.33 457.43 300.17 453.56 C 293.66 453.55 287.70 456.49 281.65 458.51 C 276.91 460.04 272.37 462.09 267.97 464.40 C 264.91 454.60 261.87 444.79 258.79 434.99 M 333.73 487.94 C 335.62 488.76 337.93 489.05 339.38 490.63 C 339.89 491.99 340.11 493.43 340.43 494.86 C 342.71 495.28 345.02 494.28 346.58 492.63 C 347.40 491.57 347.20 489.71 345.68 489.51 C 342.49 488.49 339.56 486.88 336.54 485.50 C 334.91 484.62 334.32 486.92 333.73 487.94 M 332.37 493.34 C 331.99 495.38 332.74 497.96 334.98 498.55 C 337.46 497.23 336.51 494.15 335.98 492.02 C 334.70 492.11 333.04 491.95 332.37 493.34 Z" />
</g>
<g id="#ea9c1eff">
<path fill="#ea9c1e" opacity="1.00" d=" M 622.02 430.91 C 622.29 418.89 622.10 406.86 622.48 394.84 C 623.01 398.98 621.81 403.73 623.33 407.51 C 628.87 407.97 634.44 407.41 639.99 407.65 C 648.02 408.01 656.70 406.69 663.95 411.01 C 671.60 415.00 676.03 422.80 679.04 430.56 C 677.75 437.97 673.26 444.43 667.67 449.30 C 667.52 449.46 667.21 449.78 667.05 449.94 C 663.50 451.89 659.75 453.52 655.79 454.41 C 653.87 454.47 651.96 454.46 650.06 454.41 C 649.55 454.41 648.54 454.39 648.03 454.39 C 639.26 454.47 630.50 454.17 621.73 454.18 C 621.83 446.42 621.94 438.67 622.02 430.91 M 627.34 446.36 C 627.49 446.79 627.80 447.66 627.95 448.09 C 631.21 448.17 634.47 448.33 637.73 448.59 C 637.77 448.03 637.85 446.92 637.89 446.36 C 634.37 446.28 630.83 445.72 627.34 446.36 M 647.58 449.35 C 650.94 449.70 654.30 450.07 657.65 450.55 C 657.69 450.00 657.78 448.89 657.83 448.34 C 654.49 447.96 651.15 447.57 647.82 447.21 C 647.73 447.92 647.65 448.63 647.58 449.35 Z" />
<path fill="#ea9c1e" opacity="1.00" d=" M 393.58 404.89 C 396.10 404.86 398.62 404.86 401.15 404.89 C 401.04 412.64 401.05 420.39 400.84 428.13 C 398.41 420.39 395.98 412.65 393.58 404.89 Z" />
<path fill="#ea9c1e" opacity="1.00" d=" M 430.73 405.13 C 449.13 405.53 467.54 405.17 485.94 405.83 C 501.94 406.18 517.94 405.95 533.93 406.64 C 553.53 406.45 573.13 407.02 592.74 407.01 C 592.64 414.89 592.57 422.77 592.48 430.65 C 592.35 436.19 592.40 441.73 592.20 447.27 C 590.33 447.59 587.47 447.12 587.60 449.89 C 589.13 449.75 590.68 449.61 592.23 449.46 C 592.14 450.89 592.06 452.32 591.98 453.76 C 588.71 453.75 585.44 453.73 582.17 453.68 C 574.42 453.67 566.67 453.37 558.92 453.52 C 558.22 453.54 557.53 453.56 556.85 453.59 C 519.57 452.69 482.27 452.65 444.98 452.08 C 440.05 452.01 435.12 451.93 430.19 451.97 C 430.27 444.01 430.36 436.05 430.43 428.10 C 430.51 420.44 430.65 412.79 430.73 405.13 M 567.89 451.11 C 567.99 451.53 568.19 452.38 568.29 452.80 C 571.57 452.71 575.11 452.27 578.15 451.05 C 578.07 450.61 577.91 449.72 577.82 449.28 C 574.48 449.72 571.20 450.50 567.89 451.11 Z" />
<path fill="#ea9c1e" opacity="1.00" d=" M 339.84 426.38 C 342.68 420.90 344.93 414.46 350.72 411.38 C 360.03 424.62 369.44 437.80 378.71 451.07 C 376.22 451.20 373.75 451.30 371.27 451.40 C 366.68 451.37 361.96 451.18 357.69 449.33 C 348.26 445.46 341.59 436.30 339.84 426.38 Z" />
<path fill="#ea9c1e" opacity="1.00" d=" M 385.96 754.09 C 391.27 749.42 397.84 745.87 405.07 745.82 C 429.71 745.78 454.33 746.72 478.97 746.65 C 508.00 746.92 537.04 747.42 566.08 747.39 C 578.36 747.97 590.67 747.90 602.97 748.05 C 610.80 747.85 619.65 748.36 625.56 754.19 C 608.63 753.62 591.70 752.78 574.77 752.22 C 570.96 751.90 567.19 754.97 567.10 758.87 C 566.61 764.72 566.62 770.61 566.33 776.48 C 566.27 778.05 566.20 779.63 566.14 781.23 C 565.63 791.70 565.24 802.19 564.90 812.68 C 554.27 812.29 543.63 812.60 533.00 812.45 C 516.34 811.59 499.65 812.37 482.99 811.65 C 471.30 811.42 459.60 811.53 447.90 811.44 C 434.85 810.82 421.78 811.09 408.72 810.92 C 401.32 791.91 393.53 773.04 385.96 754.09 Z" />
</g>
<g id="#5d281aff">
<path fill="#5d281a" opacity="1.00" d=" M 400.84 428.13 C 410.70 428.08 420.57 428.65 430.43 428.10 C 430.36 436.05 430.27 444.01 430.19 451.97 C 425.26 452.04 420.31 451.60 415.42 452.36 C 413.06 451.92 410.67 451.84 408.30 452.00 C 405.80 444.05 403.31 436.09 400.84 428.13 Z" />
<path fill="#5d281a" opacity="1.00" d=" M 592.48 430.65 C 602.31 430.22 612.17 431.03 622.02 430.91 C 621.94 438.67 621.83 446.42 621.73 454.18 C 618.43 454.22 615.14 454.25 611.85 454.15 C 605.59 453.93 599.33 454.08 593.07 453.93 C 592.78 452.43 592.50 450.94 592.23 449.46 C 594.15 449.26 596.08 449.06 598.01 448.87 C 597.98 448.34 597.91 447.28 597.88 446.76 C 595.98 446.92 594.08 447.08 592.20 447.27 C 592.40 441.73 592.35 436.19 592.48 430.65 M 607.89 446.18 C 607.85 446.69 607.77 447.73 607.73 448.25 C 611.15 448.10 614.58 448.00 618.01 447.93 C 617.93 447.40 617.76 446.34 617.68 445.81 C 614.41 445.91 611.14 445.86 607.89 446.18 Z" />
</g>
<g id="#fefefeff">
<path fill="#fefefe" opacity="1.00" d=" M 607.89 446.18 C 611.14 445.86 614.41 445.91 617.68 445.81 C 617.76 446.34 617.93 447.40 618.01 447.93 C 614.58 448.00 611.15 448.10 607.73 448.25 C 607.77 447.73 607.85 446.69 607.89 446.18 Z" />
<path fill="#fefefe" opacity="1.00" d=" M 333.26 558.92 C 336.65 558.24 340.01 557.42 343.46 557.11 C 343.67 557.61 344.10 558.61 344.31 559.10 C 341.01 559.46 337.78 560.28 334.49 560.67 C 334.18 560.23 333.57 559.36 333.26 558.92 Z" />
</g>
<g id="#fefffeff">
<path fill="#fefffe" opacity="1.00" d=" M 627.34 446.36 C 630.83 445.72 634.37 446.28 637.89 446.36 C 637.85 446.92 637.77 448.03 637.73 448.59 C 634.47 448.33 631.21 448.17 627.95 448.09 C 627.80 447.66 627.49 446.79 627.34 446.36 Z" />
<path fill="#fefffe" opacity="1.00" d=" M 707.16 457.14 C 710.37 457.21 713.59 457.37 716.82 457.47 C 716.80 457.95 716.78 458.91 716.76 459.39 C 713.54 459.21 710.33 459.02 707.13 458.71 C 707.14 458.32 707.15 457.53 707.16 457.14 Z" />
<path fill="#fefffe" opacity="1.00" d=" M 189.67 490.70 C 190.17 490.60 191.18 490.39 191.68 490.29 C 191.55 493.74 191.46 497.19 191.58 500.65 C 191.03 500.65 189.94 500.64 189.40 500.64 C 189.32 497.32 189.37 494.01 189.67 490.70 Z" />
</g>
<g id="#fdfefdff">
<path fill="#fdfefd" opacity="1.00" d=" M 647.58 449.35 C 647.65 448.63 647.73 447.92 647.82 447.21 C 651.15 447.57 654.49 447.96 657.83 448.34 C 657.78 448.89 657.69 450.00 657.65 450.55 C 654.30 450.07 650.94 449.70 647.58 449.35 Z" />
<path fill="#fdfefd" opacity="1.00" d=" M 353.48 673.30 C 354.86 673.32 356.24 673.35 357.64 673.38 C 357.59 676.76 357.55 680.15 357.83 683.54 C 356.17 680.21 354.81 676.76 353.48 673.30 Z" />
</g>
<g id="#303342ff">
<path fill="#303342" opacity="1.00" d=" M 371.27 451.40 C 373.75 451.30 376.22 451.20 378.71 451.07 C 386.46 461.84 393.97 472.79 401.76 483.53 C 406.04 479.86 410.35 476.20 414.66 472.55 C 415.28 477.35 415.00 482.19 414.89 487.02 C 414.73 498.02 414.69 509.02 414.57 520.02 C 414.56 522.32 414.85 524.60 415.16 526.88 C 412.74 528.31 410.30 529.72 408.02 531.36 C 408.10 531.71 408.25 532.39 408.33 532.74 C 410.63 532.97 412.53 530.84 414.52 529.84 C 414.35 537.77 414.98 545.74 413.97 553.64 C 409.71 553.63 405.46 553.55 401.21 553.43 C 400.86 571.94 400.77 590.47 400.50 608.99 C 404.89 609.12 409.29 609.12 413.69 609.17 C 412.93 621.18 413.49 633.24 413.01 645.28 C 394.67 645.56 376.33 645.03 357.98 644.99 C 358.37 616.44 358.63 587.89 358.98 559.35 C 358.98 558.41 358.98 556.53 358.98 555.60 C 360.64 555.14 362.27 554.62 363.91 554.09 C 363.00 551.60 360.87 552.83 359.09 553.23 C 359.12 550.14 359.13 547.05 359.16 543.97 C 359.31 532.12 359.45 520.27 359.57 508.42 C 359.64 504.89 359.63 501.36 359.66 497.84 C 359.90 487.20 359.91 476.56 360.09 465.92 C 359.97 462.51 361.34 459.32 362.98 456.41 C 365.45 454.31 368.12 452.35 371.27 451.40 M 390.35 541.15 C 390.57 541.60 391.00 542.51 391.22 542.96 C 394.05 541.55 396.95 540.24 399.61 538.51 C 399.60 537.94 399.58 536.81 399.57 536.25 C 396.45 537.78 393.39 539.46 390.35 541.15 M 371.99 549.37 C 372.27 549.76 372.83 550.53 373.11 550.92 C 376.27 550.07 379.34 548.77 382.19 547.16 C 382.06 546.68 381.81 545.73 381.68 545.25 C 378.46 546.64 375.19 547.92 371.99 549.37 Z" />
<path fill="#303342" opacity="1.00" d=" M 408.30 452.00 C 410.67 451.84 413.06 451.92 415.42 452.36 C 415.09 458.83 415.64 465.35 414.58 471.77 C 412.32 465.23 410.37 458.59 408.30 452.00 Z" />
<path fill="#303342" opacity="1.00" d=" M 444.98 452.08 C 482.27 452.65 519.57 452.69 556.85 453.59 C 554.21 454.35 551.53 454.97 548.97 455.96 C 548.91 456.49 548.80 457.55 548.74 458.09 C 551.92 457.19 555.18 456.52 558.30 455.42 C 558.46 454.95 558.76 454.00 558.92 453.52 C 566.67 453.37 574.42 453.67 582.17 453.68 C 581.86 487.66 581.34 521.63 581.02 555.61 C 576.71 555.54 572.40 555.48 568.09 555.44 C 567.73 573.95 567.67 592.47 567.37 610.98 C 571.65 610.98 575.94 611.11 580.22 611.12 C 580.44 623.16 580.06 635.21 579.93 647.25 C 560.26 647.57 540.59 646.94 520.92 646.84 C 494.85 646.13 468.76 646.38 442.68 645.95 C 442.65 633.80 443.05 621.66 442.97 609.51 C 447.62 609.58 452.26 609.64 456.91 609.69 C 457.33 591.19 457.32 572.68 457.67 554.18 C 453.05 554.13 448.43 554.02 443.82 554.00 C 443.54 539.65 444.43 525.29 443.98 510.95 C 446.29 509.51 448.54 507.97 450.88 506.56 C 450.75 506.01 450.51 504.91 450.39 504.35 C 448.31 505.57 446.24 506.81 444.22 508.11 C 445.01 489.44 444.28 470.75 444.98 452.08 M 529.76 462.23 C 529.80 462.77 529.90 463.85 529.94 464.39 C 533.25 463.26 536.56 462.12 539.81 460.82 C 539.60 460.35 539.19 459.42 538.99 458.96 C 535.91 460.04 532.78 461.00 529.76 462.23 M 510.81 470.14 C 511.01 470.52 511.43 471.27 511.63 471.64 C 514.98 471.18 517.96 469.03 521.18 467.92 C 520.99 467.51 520.60 466.68 520.41 466.27 C 517.00 466.88 513.98 468.82 510.81 470.14 M 501.55 474.50 C 498.81 475.79 496.11 477.19 493.45 478.65 C 492.94 479.58 493.18 480.25 494.15 480.64 C 497.10 479.32 499.86 477.62 502.84 476.36 C 502.44 475.71 502.59 474.40 501.55 474.50 M 482.53 484.60 C 480.15 485.91 477.76 487.20 475.54 488.76 L 476.12 490.27 C 479.30 489.52 482.01 487.23 484.92 485.69 C 485.46 483.87 483.64 483.59 482.53 484.60 M 458.70 499.00 C 458.84 499.47 459.10 500.41 459.23 500.88 C 462.41 499.44 465.19 497.28 468.20 495.56 C 467.89 495.17 467.26 494.40 466.95 494.01 C 464.01 495.33 461.36 497.20 458.70 499.00 Z" />
<path fill="#303342" opacity="1.00" d=" M 611.85 454.15 C 615.14 454.25 618.43 454.22 621.73 454.18 C 630.50 454.17 639.26 454.47 648.03 454.39 C 648.71 455.75 649.39 455.76 650.06 454.41 C 651.96 454.46 653.87 454.47 655.79 454.41 L 655.80 454.41 C 653.86 454.66 651.88 454.68 649.95 454.85 C 654.98 457.54 659.45 462.28 659.30 468.35 C 659.37 472.90 659.23 477.44 659.19 481.99 C 659.12 490.46 658.93 498.93 658.94 507.40 C 658.73 514.77 658.67 522.13 658.69 529.50 C 658.33 540.62 658.42 551.75 658.25 562.88 C 657.87 591.32 657.60 619.77 657.23 648.21 C 641.36 648.52 625.48 647.90 609.61 647.90 C 609.62 635.76 609.76 623.62 609.93 611.48 C 614.56 611.49 619.19 611.59 623.82 611.67 C 624.13 593.16 624.31 574.64 624.49 556.13 C 619.89 556.03 615.30 556.00 610.70 555.96 C 610.66 533.98 611.21 512.01 611.37 490.04 C 611.48 478.07 611.21 466.10 611.85 454.15 Z" />
<path fill="#303342" opacity="1.00" d=" M 443.35 562.01 C 445.39 562.06 447.43 562.10 449.47 562.12 C 449.32 575.24 449.23 588.37 448.99 601.49 C 447.03 601.49 445.07 601.50 443.12 601.51 C 443.36 588.35 443.46 575.18 443.35 562.01 Z" />
<path fill="#303342" opacity="1.00" d=" M 576.02 563.64 C 577.65 563.62 579.28 563.62 580.92 563.61 C 580.72 576.78 580.49 589.96 580.73 603.13 C 578.98 603.07 577.23 603.01 575.50 602.98 C 575.76 589.86 575.77 576.75 576.02 563.64 Z" />
<path fill="#303342" opacity="1.00" d=" M 610.31 564.02 C 612.32 564.00 614.33 563.99 616.36 563.99 C 616.26 577.14 616.04 590.29 615.93 603.44 C 613.95 603.48 611.97 603.48 610.01 603.42 C 610.29 590.29 610.39 577.15 610.31 564.02 Z" />
</g>
<g id="#85dddeff">
<path fill="#85ddde" opacity="1.00" d=" M 281.65 458.51 C 287.70 456.49 293.66 453.55 300.17 453.56 C 300.33 457.43 299.88 461.28 299.56 465.13 C 299.02 471.00 304.51 475.96 302.84 481.90 C 300.18 486.72 294.98 489.46 292.00 494.04 C 290.10 497.23 290.84 501.51 288.43 504.42 C 285.75 507.09 281.84 504.86 279.00 503.68 C 277.75 502.68 276.56 501.62 275.36 500.57 C 276.01 498.02 274.38 495.82 273.37 493.63 C 271.07 489.23 269.81 484.27 266.70 480.34 C 268.28 478.87 269.87 477.43 271.48 475.99 C 270.49 472.07 269.20 468.25 267.97 464.40 C 272.37 462.09 276.91 460.04 281.65 458.51 Z" />
<path fill="#85ddde" opacity="1.00" d=" M 351.86 469.02 C 355.23 464.56 357.60 458.88 362.98 456.41 C 361.34 459.32 359.97 462.51 360.09 465.92 C 359.91 476.56 359.90 487.20 359.66 497.84 C 358.39 498.74 356.60 499.39 356.29 501.13 C 354.99 505.05 354.16 509.17 351.95 512.73 C 349.95 512.88 347.94 513.05 345.94 513.23 C 344.66 511.10 343.38 508.98 342.09 506.86 C 344.66 505.28 347.36 503.91 349.83 502.17 C 348.65 500.79 347.47 499.42 346.29 498.05 C 348.40 493.66 349.63 488.87 352.68 484.98 C 351.47 482.32 346.64 482.28 346.22 479.05 C 347.05 475.24 349.79 472.22 351.86 469.02 Z" />
<path fill="#85ddde" opacity="1.00" d=" M 349.12 521.03 C 348.99 514.86 354.79 511.08 359.57 508.42 C 359.45 520.27 359.31 532.12 359.16 543.97 C 354.66 542.76 350.04 540.35 348.45 535.66 C 345.78 530.92 348.93 525.92 349.12 521.03 Z" />
</g>
<g id="#c3a75fff">
<path fill="#c3a75f" opacity="1.00" d=" M 648.03 454.39 C 648.54 454.39 649.55 454.41 650.06 454.41 C 649.39 455.76 648.71 455.75 648.03 454.39 Z" />
</g>
<g id="#04a501ff">
<path fill="#04a501" opacity="1.00" d=" M 677.96 473.77 C 680.55 470.57 681.99 466.50 684.53 463.21 C 698.36 471.39 712.42 479.20 726.34 487.25 C 724.33 491.01 722.17 494.70 720.08 498.42 C 709.01 492.69 698.56 485.84 687.47 480.18 C 679.69 493.80 671.89 507.41 664.11 521.03 C 662.51 523.98 660.87 526.93 658.69 529.50 C 658.67 522.13 658.73 514.77 658.94 507.40 C 662.26 499.64 668.25 493.36 671.18 485.38 C 667.18 484.23 663.19 483.08 659.19 481.99 C 659.23 477.44 659.37 472.90 659.30 468.35 C 665.48 470.27 671.68 472.19 677.96 473.77 Z" />
<path fill="#04a501" opacity="1.00" d=" M 755.59 504.18 C 759.43 501.27 763.21 498.28 767.02 495.34 C 777.03 508.15 787.01 520.98 797.02 533.80 C 793.60 536.32 790.29 538.98 786.92 541.56 C 778.81 532.07 771.54 521.90 763.70 512.19 C 748.21 524.19 732.78 536.28 717.31 548.31 C 711.13 553.33 704.52 557.84 698.67 563.26 C 692.66 563.29 686.65 563.16 680.65 563.10 C 686.10 558.10 692.27 554.00 697.95 549.28 C 713.49 537.10 729.10 525.03 744.63 512.84 C 748.34 510.02 752.07 507.23 755.59 504.18 Z" />
</g>
<g id="#8be6e7ff">
<path fill="#8be6e7" opacity="1.00" d=" M 259.51 470.85 C 261.73 474.14 264.07 477.35 266.70 480.34 C 269.81 484.27 271.07 489.23 273.37 493.63 C 274.38 495.82 276.01 498.02 275.36 500.57 C 271.08 497.19 267.65 492.49 262.41 490.52 C 257.15 488.67 252.05 491.75 247.11 493.18 C 243.92 494.44 240.08 495.15 237.90 498.02 C 236.37 499.58 238.45 501.49 240.06 501.78 C 246.22 503.37 252.81 501.99 258.92 504.02 C 261.39 504.77 264.92 505.80 264.87 509.00 C 265.46 513.20 260.78 516.26 256.98 515.10 C 252.96 514.64 252.20 508.78 247.96 509.04 C 245.84 509.02 242.89 509.78 242.51 512.24 C 241.76 515.95 242.12 520.26 239.02 523.03 C 236.60 525.85 232.22 530.73 235.84 534.18 C 240.63 537.07 246.65 536.98 252.09 536.83 C 254.26 536.58 258.26 536.25 257.68 533.14 C 256.74 528.49 253.20 524.92 252.05 520.34 C 257.95 519.32 263.99 519.34 269.95 519.83 C 273.83 520.31 278.44 522.04 279.92 525.98 C 280.48 532.08 275.46 536.85 274.60 542.73 C 273.51 549.97 270.42 557.01 265.19 562.22 C 263.09 564.20 260.33 565.25 258.12 567.08 C 254.62 570.24 255.93 576.89 260.38 578.48 C 265.08 579.65 269.51 577.24 273.97 576.19 C 276.87 576.10 280.01 576.90 282.19 578.93 C 280.62 580.88 277.96 581.09 275.69 581.62 C 269.15 582.63 262.58 583.58 255.96 583.85 C 250.21 584.20 245.01 581.26 239.41 580.56 C 231.80 579.40 223.35 579.83 216.80 575.17 C 213.21 572.10 210.97 567.57 206.65 565.33 C 199.90 561.54 192.10 558.78 184.28 559.39 C 178.18 561.30 174.49 567.38 168.38 569.44 C 161.40 572.91 152.56 567.35 151.37 560.00 C 151.86 554.47 156.55 550.53 161.31 548.39 C 169.81 544.71 178.90 542.44 187.15 538.18 C 190.76 536.16 189.51 531.43 189.92 528.04 C 189.76 523.89 191.32 519.95 193.95 516.79 C 194.84 518.23 195.87 520.37 197.88 519.24 C 197.21 517.87 196.53 516.52 195.89 515.16 C 199.99 512.05 204.43 509.46 208.81 506.79 C 211.00 505.31 213.72 503.82 214.14 500.93 C 215.51 494.11 221.09 489.41 226.13 485.14 C 231.97 480.22 239.95 479.97 247.03 478.18 C 251.91 477.18 255.60 473.67 259.51 470.85 M 202.34 528.61 C 204.45 531.21 206.85 533.74 209.88 535.28 C 210.07 534.81 210.46 533.87 210.65 533.40 C 208.24 531.41 206.14 529.09 203.78 527.06 C 202.45 526.87 201.97 527.39 202.34 528.61 M 217.61 539.58 C 217.73 540.11 217.96 541.17 218.08 541.69 C 220.84 543.52 223.62 545.68 227.01 546.13 C 226.93 545.65 226.79 544.69 226.72 544.22 C 223.83 542.43 220.99 540.27 217.61 539.58 M 235.92 548.72 C 235.76 549.21 235.42 550.20 235.26 550.70 C 238.52 552.09 241.76 553.59 245.24 554.32 C 245.17 553.77 245.01 552.66 244.94 552.11 C 242.05 550.68 238.97 549.70 235.92 548.72 M 255.27 555.31 C 253.90 555.19 253.90 557.53 255.25 557.53 C 258.16 558.30 261.14 559.37 264.18 559.18 C 264.16 558.71 264.13 557.77 264.12 557.30 C 261.20 556.53 258.28 555.63 255.27 555.31 Z" />
<path fill="#8be6e7" opacity="1.00" d=" M 294.61 571.52 C 299.42 570.44 304.32 569.74 309.20 569.01 C 311.51 569.00 313.82 569.17 316.13 569.31 C 315.93 582.99 315.87 596.66 315.64 610.34 C 313.76 607.61 312.35 604.39 309.66 602.36 C 304.04 599.26 297.00 599.24 291.88 595.16 C 288.71 591.51 286.16 586.91 285.86 582.00 C 286.34 577.28 289.75 572.47 294.61 571.52 Z" />
<path fill="#8be6e7" opacity="1.00" d=" M 612.87 697.74 C 616.59 697.64 620.31 697.95 624.04 697.88 C 623.98 698.78 623.87 700.59 623.81 701.50 C 622.48 700.79 621.09 700.15 619.71 699.61 C 619.61 699.57 619.40 699.49 619.30 699.45 C 618.80 699.27 617.81 698.91 617.31 698.74 C 616.74 698.55 615.60 698.19 615.04 698.01 C 614.49 697.94 613.41 697.81 612.87 697.74 Z" />
</g>
<g id="#58b425ff">
<path fill="#58b425" opacity="1.00" d=" M 687.47 480.18 C 698.56 485.84 709.01 492.69 720.08 498.42 L 719.92 498.69 C 717.25 503.39 714.52 508.06 712.01 512.85 C 710.02 511.71 707.99 510.67 705.96 509.63 C 701.10 517.45 696.71 525.57 692.24 533.62 C 694.42 534.83 696.59 536.08 698.76 537.34 C 696.33 539.84 694.67 542.92 692.95 545.92 C 685.57 542.37 675.98 543.11 669.99 548.98 C 666.08 552.53 664.40 557.75 663.93 562.88 C 662.03 562.86 660.14 562.87 658.25 562.88 C 658.42 551.75 658.33 540.62 658.69 529.50 C 660.87 526.93 662.51 523.98 664.11 521.03 C 671.89 507.41 679.69 493.80 687.47 480.18 Z" />
<path fill="#58b425" opacity="1.00" d=" M 659.19 481.99 C 663.19 483.08 667.18 484.23 671.18 485.38 C 668.25 493.36 662.26 499.64 658.94 507.40 C 658.93 498.93 659.12 490.46 659.19 481.99 Z" />
<path fill="#58b425" opacity="1.00" d=" M 717.31 548.31 C 732.78 536.28 748.21 524.19 763.70 512.19 C 771.54 521.90 778.81 532.07 786.92 541.56 L 786.61 541.79 C 782.34 545.05 778.27 548.60 773.70 551.46 C 772.31 549.72 770.75 548.14 769.19 546.57 C 762.24 552.21 754.85 557.35 748.13 563.26 C 748.65 565.46 750.49 567.06 751.78 568.87 C 749.06 570.91 746.41 573.03 743.82 575.24 C 740.09 571.56 735.40 568.53 730.05 568.21 C 721.73 567.13 713.18 572.48 710.43 580.39 C 707.98 586.69 709.58 593.82 713.11 599.38 C 709.71 601.58 706.38 603.95 703.56 606.89 L 703.33 607.32 C 703.36 592.67 703.76 578.03 703.73 563.38 C 702.04 563.33 700.35 563.28 698.67 563.26 C 704.52 557.84 711.13 553.33 717.31 548.31 Z" />
</g>
<g id="#85ddddff">
<path fill="#85dddd" opacity="1.00" d=" M 333.73 487.94 C 334.32 486.92 334.91 484.62 336.54 485.50 C 339.56 486.88 342.49 488.49 345.68 489.51 C 347.20 489.71 347.40 491.57 346.58 492.63 C 345.02 494.28 342.71 495.28 340.43 494.86 C 340.11 493.43 339.89 491.99 339.38 490.63 C 337.93 489.05 335.62 488.76 333.73 487.94 Z" />
</g>
<g id="#04b100ff">
<path fill="#04b100" opacity="1.00" d=" M 726.34 487.25 C 736.07 492.92 745.99 498.30 755.59 504.18 C 752.07 507.23 748.34 510.02 744.63 512.84 C 736.54 507.88 728.26 503.22 719.92 498.69 L 720.08 498.42 C 722.17 494.70 724.33 491.01 726.34 487.25 Z" />
<path fill="#04b100" opacity="1.00" d=" M 692.24 533.62 C 696.71 525.57 701.10 517.45 705.96 509.63 C 707.99 510.67 710.02 511.71 712.01 512.85 C 713.73 513.84 715.43 514.88 717.13 515.91 C 712.88 524.08 708.00 531.90 703.55 539.97 C 701.94 539.11 700.33 538.24 698.76 537.34 C 696.59 536.08 694.42 534.83 692.24 533.62 Z" />
<path fill="#04b100" opacity="1.00" d=" M 786.92 541.56 C 790.29 538.98 793.60 536.32 797.02 533.80 C 806.53 546.12 816.28 558.26 825.65 570.70 C 798.12 592.02 770.64 613.41 743.29 634.95 C 739.46 633.90 735.60 632.94 731.78 631.91 C 757.60 611.51 783.74 591.49 809.55 571.08 C 802.00 561.24 794.45 551.40 786.61 541.79 L 786.92 541.56 Z" />
<path fill="#04b100" opacity="1.00" d=" M 669.99 548.98 C 675.98 543.11 685.57 542.37 692.95 545.92 C 694.65 546.97 696.29 548.13 697.95 549.28 C 692.27 554.00 686.10 558.10 680.65 563.10 C 680.01 563.10 678.74 563.08 678.10 563.08 C 673.37 563.01 668.65 562.97 663.93 562.88 C 664.40 557.75 666.08 552.53 669.99 548.98 Z" />
<path fill="#04b100" opacity="1.00" d=" M 748.13 563.26 C 754.85 557.35 762.24 552.21 769.19 546.57 C 770.75 548.14 772.31 549.72 773.70 551.46 C 775.00 553.17 776.15 554.99 777.29 556.81 C 770.14 562.43 762.99 568.06 755.77 573.60 C 754.42 572.03 753.08 570.46 751.78 568.87 C 750.49 567.06 748.65 565.46 748.13 563.26 Z" />
<path fill="#04b100" opacity="1.00" d=" M 710.43 580.39 C 713.18 572.48 721.73 567.13 730.05 568.21 C 735.40 568.53 740.09 571.56 743.82 575.24 C 748.16 580.96 750.23 588.72 747.67 595.64 C 745.14 602.93 737.77 608.13 730.05 608.01 C 723.36 608.24 717.22 604.44 713.11 599.38 C 709.58 593.82 707.98 586.69 710.43 580.39 Z" />
<path fill="#04b100" opacity="1.00" d=" M 703.33 607.32 L 703.56 606.89 C 704.63 608.54 705.70 610.19 706.79 611.84 C 705.60 612.69 704.41 613.55 703.23 614.42 C 703.25 612.04 703.25 609.68 703.33 607.32 Z" />
</g>
<g id="#85deddff">
<path fill="#85dedd" opacity="1.00" d=" M 332.37 493.34 C 333.04 491.95 334.70 492.11 335.98 492.02 C 336.51 494.15 337.46 497.23 334.98 498.55 C 332.74 497.96 331.99 495.38 332.37 493.34 Z" />
</g>
<g id="#6dbf2dff">
<path fill="#6dbf2d" opacity="1.00" d=" M 712.01 512.85 C 714.52 508.06 717.25 503.39 719.92 498.69 C 728.26 503.22 736.54 507.88 744.63 512.84 C 729.10 525.03 713.49 537.10 697.95 549.28 C 696.29 548.13 694.65 546.97 692.95 545.92 C 694.67 542.92 696.33 539.84 698.76 537.34 C 700.33 538.24 701.94 539.11 703.55 539.97 C 708.00 531.90 712.88 524.08 717.13 515.91 C 715.43 514.88 713.73 513.84 712.01 512.85 Z" />
<path fill="#6dbf2d" opacity="1.00" d=" M 773.70 551.46 C 778.27 548.60 782.34 545.05 786.61 541.79 C 794.45 551.40 802.00 561.24 809.55 571.08 C 783.74 591.49 757.60 611.51 731.78 631.91 C 722.20 629.39 712.62 626.90 703.05 624.36 C 703.11 621.04 703.17 617.73 703.23 614.42 C 704.41 613.55 705.60 612.69 706.79 611.84 C 705.70 610.19 704.63 608.54 703.56 606.89 C 706.38 603.95 709.71 601.58 713.11 599.38 C 717.22 604.44 723.36 608.24 730.05 608.01 C 737.77 608.13 745.14 602.93 747.67 595.64 C 750.23 588.72 748.16 580.96 743.82 575.24 C 746.41 573.03 749.06 570.91 751.78 568.87 C 753.08 570.46 754.42 572.03 755.77 573.60 C 762.99 568.06 770.14 562.43 777.29 556.81 C 776.15 554.99 775.00 553.17 773.70 551.46 Z" />
</g>
<g id="#eafafaff">
<path fill="#eafafa" opacity="1.00" d=" M 202.34 528.61 C 201.97 527.39 202.45 526.87 203.78 527.06 C 206.14 529.09 208.24 531.41 210.65 533.40 C 210.46 533.87 210.07 534.81 209.88 535.28 C 206.85 533.74 204.45 531.21 202.34 528.61 Z" />
</g>
<g id="#ecfbfaff">
<path fill="#ecfbfa" opacity="1.00" d=" M 217.61 539.58 C 220.99 540.27 223.83 542.43 226.72 544.22 C 226.79 544.69 226.93 545.65 227.01 546.13 C 223.62 545.68 220.84 543.52 218.08 541.69 C 217.96 541.17 217.73 540.11 217.61 539.58 Z" />
</g>
<g id="#edfafaff">
<path fill="#edfafa" opacity="1.00" d=" M 235.92 548.72 C 238.97 549.70 242.05 550.68 244.94 552.11 C 245.01 552.66 245.17 553.77 245.24 554.32 C 241.76 553.59 238.52 552.09 235.26 550.70 C 235.42 550.20 235.76 549.21 235.92 548.72 Z" />
</g>
<g id="#fff3c3ff">
<path fill="#fff3c3" opacity="1.00" d=" M 401.21 553.43 C 405.46 553.55 409.71 553.63 413.97 553.64 C 423.92 553.78 433.87 553.88 443.82 554.00 C 448.43 554.02 453.05 554.13 457.67 554.18 C 457.32 572.68 457.33 591.19 456.91 609.69 C 452.26 609.64 447.62 609.58 442.97 609.51 C 433.21 609.41 423.45 609.29 413.69 609.17 C 409.29 609.12 404.89 609.12 400.50 608.99 C 400.77 590.47 400.86 571.94 401.21 553.43 M 409.13 561.65 C 408.90 574.81 408.85 587.97 408.62 601.13 C 410.32 601.12 412.02 601.12 413.73 601.11 C 423.53 601.28 433.32 601.30 443.12 601.51 C 445.07 601.50 447.03 601.49 448.99 601.49 C 449.23 588.37 449.32 575.24 449.47 562.12 C 447.43 562.10 445.39 562.06 443.35 562.01 C 433.58 561.97 423.81 561.77 414.05 561.70 C 412.40 561.66 410.76 561.65 409.13 561.65 Z" />
<path fill="#fff3c3" opacity="1.00" d=" M 568.09 555.44 C 572.40 555.48 576.71 555.54 581.02 555.61 C 590.91 555.72 600.81 555.83 610.70 555.96 C 615.30 556.00 619.89 556.03 624.49 556.13 C 624.31 574.64 624.13 593.16 623.82 611.67 C 619.19 611.59 614.56 611.49 609.93 611.48 C 600.03 611.34 590.12 611.24 580.22 611.12 C 575.94 611.11 571.65 610.98 567.37 610.98 C 567.67 592.47 567.73 573.95 568.09 555.44 M 576.02 563.64 C 575.77 576.75 575.76 589.86 575.50 602.98 C 577.23 603.01 578.98 603.07 580.73 603.13 C 590.49 603.12 600.25 603.37 610.01 603.42 C 611.97 603.48 613.95 603.48 615.93 603.44 C 616.04 590.29 616.26 577.14 616.36 563.99 C 614.33 563.99 612.32 564.00 610.31 564.02 C 600.51 563.81 590.71 563.84 580.92 563.61 C 579.28 563.62 577.65 563.62 576.02 563.64 Z" />
</g>
<g id="#ebfafaff">
<path fill="#ebfafa" opacity="1.00" d=" M 255.27 555.31 C 258.28 555.63 261.20 556.53 264.12 557.30 C 264.13 557.77 264.16 558.71 264.18 559.18 C 261.14 559.37 258.16 558.30 255.25 557.53 C 253.90 557.53 253.90 555.19 255.27 555.31 Z" />
</g>
<g id="#fffefeff">
<path fill="#fffefe" opacity="1.00" d=" M 274.08 559.15 C 277.31 559.58 280.58 559.75 283.79 560.34 C 283.87 560.81 284.02 561.75 284.10 562.22 C 280.81 562.32 277.56 561.61 274.28 561.43 C 274.23 560.86 274.13 559.72 274.08 559.15 Z" />
<path fill="#fffefe" opacity="1.00" d=" M 293.89 560.99 C 297.35 561.05 300.81 561.11 304.27 561.14 C 304.11 561.68 303.79 562.77 303.63 563.32 C 300.52 563.31 297.42 563.07 294.32 563.26 C 294.22 562.69 294.00 561.56 293.89 560.99 Z" />
</g>
<g id="#c32645ff">
<path fill="#c32645" opacity="1.00" d=" M 315.33 560.28 C 316.63 559.14 318.29 558.68 320.00 558.84 C 324.42 558.88 328.84 559.12 333.26 558.92 C 333.57 559.36 334.18 560.23 334.49 560.67 C 337.78 560.28 341.01 559.46 344.31 559.10 L 344.93 559.12 C 344.49 574.93 344.78 590.75 344.47 606.56 C 343.69 620.85 344.58 635.21 343.42 649.46 C 337.27 640.74 324.90 637.41 315.24 642.02 C 315.44 631.46 315.53 620.90 315.64 610.34 C 315.87 596.66 315.93 582.99 316.13 569.31 C 316.14 567.10 316.18 564.91 316.22 562.71 C 318.87 562.54 321.50 562.29 324.14 562.05 C 324.11 561.53 324.03 560.49 323.99 559.97 C 321.11 560.22 318.22 560.42 315.33 560.28 Z" />
<path fill="#c32645" opacity="1.00" d=" M 678.10 563.08 C 678.74 563.08 680.01 563.10 680.65 563.10 C 686.65 563.16 692.66 563.29 698.67 563.26 C 700.35 563.28 702.04 563.33 703.73 563.38 C 703.76 578.03 703.36 592.67 703.33 607.32 C 703.25 609.68 703.25 612.04 703.23 614.42 C 703.17 617.73 703.11 621.04 703.05 624.36 C 699.75 623.51 696.46 622.65 693.17 621.79 C 688.05 620.42 682.92 619.13 677.81 617.74 C 677.33 599.52 678.24 581.30 678.10 563.08 Z" />
</g>
<g id="#91152fff">
<path fill="#91152f" opacity="1.00" d=" M 344.93 559.12 C 349.61 559.31 354.30 559.22 358.98 559.35 C 358.63 587.89 358.37 616.44 357.98 644.99 C 357.89 649.33 357.87 653.67 357.85 658.02 C 357.76 663.13 357.71 668.25 357.64 673.38 C 356.24 673.35 354.86 673.32 353.48 673.30 C 350.07 665.38 347.51 657.07 343.42 649.46 C 344.58 635.21 343.69 620.85 344.47 606.56 C 344.78 590.75 344.49 574.93 344.93 559.12 Z" />
<path fill="#91152f" opacity="1.00" d=" M 658.25 562.88 C 660.14 562.87 662.03 562.86 663.93 562.88 C 668.65 562.97 673.37 563.01 678.10 563.08 C 678.24 581.30 677.33 599.52 677.81 617.74 C 675.06 617.12 672.04 615.85 669.33 617.25 C 667.22 618.14 666.10 620.28 665.55 622.38 C 662.84 632.73 660.16 643.09 657.40 653.42 C 657.35 651.67 657.26 649.94 657.23 648.21 C 657.60 619.77 657.87 591.32 658.25 562.88 Z" />
</g>
<g id="#313342ff">
<path fill="#313342" opacity="1.00" d=" M 409.13 561.65 C 410.76 561.65 412.40 561.66 414.05 561.70 C 413.95 574.84 413.55 587.97 413.73 601.11 C 412.02 601.12 410.32 601.12 408.62 601.13 C 408.85 587.97 408.90 574.81 409.13 561.65 Z" />
</g>
<g id="#044362ff">
<path fill="#044362" opacity="1.00" d=" M 669.33 617.25 C 672.04 615.85 675.06 617.12 677.81 617.74 C 682.92 619.13 688.05 620.42 693.17 621.79 C 681.39 666.35 669.67 710.92 658.08 755.54 C 649.03 755.18 639.98 754.79 630.93 754.45 C 633.29 745.11 636.05 735.87 638.07 726.44 C 641.00 717.05 643.18 707.45 645.72 697.95 C 648.97 685.96 652.02 673.92 655.14 661.91 C 655.92 659.08 656.73 656.27 657.40 653.42 C 660.16 643.09 662.84 632.73 665.55 622.38 C 666.10 620.28 667.22 618.14 669.33 617.25 Z" />
</g>
<g id="#065a7fff">
<path fill="#065a7f" opacity="1.00" d=" M 693.17 621.79 C 696.46 622.65 699.75 623.51 703.05 624.36 C 712.62 626.90 722.20 629.39 731.78 631.91 C 735.60 632.94 739.46 633.90 743.29 634.95 C 752.15 637.45 761.09 639.67 769.99 642.03 C 773.18 642.89 776.68 643.47 779.15 645.87 C 782.83 649.02 784.34 654.36 782.87 658.98 C 771.84 701.00 760.81 743.02 749.83 785.04 C 748.59 789.44 748.15 794.78 743.97 797.54 C 744.24 794.61 744.34 791.68 744.40 788.76 C 744.43 787.08 744.49 785.41 744.58 783.75 C 744.84 777.82 745.27 771.90 745.30 765.98 C 745.37 762.82 743.07 759.77 739.99 759.08 C 737.13 758.48 734.19 758.63 731.31 758.47 C 730.93 756.41 731.28 753.90 729.52 752.41 C 728.03 750.80 725.66 750.97 723.69 750.72 C 723.83 749.27 724.00 747.84 724.14 746.41 C 726.32 744.41 727.81 740.88 725.90 738.23 C 724.11 736.83 721.25 735.47 719.20 737.09 C 717.17 738.46 717.05 741.06 716.58 743.23 C 714.43 743.11 712.27 742.98 710.13 742.88 C 711.97 740.63 716.33 741.27 716.56 737.71 C 716.56 734.36 712.43 734.06 709.96 733.62 C 709.14 736.75 708.36 739.90 707.24 742.94 C 706.68 742.94 705.58 742.92 705.02 742.92 C 705.70 741.66 706.61 740.49 706.90 739.08 C 706.32 737.37 705.13 736.00 704.10 734.58 C 705.42 734.68 706.73 734.77 708.07 734.81 C 708.20 731.56 702.98 731.07 701.27 733.23 C 700.28 735.87 702.58 737.86 703.96 739.81 C 702.62 739.54 701.29 739.29 699.97 739.05 C 699.82 739.46 699.51 740.28 699.35 740.69 C 700.12 741.32 700.89 741.97 701.67 742.63 C 701.36 745.02 701.13 747.42 700.95 749.83 C 698.41 749.87 695.64 749.31 693.30 750.55 C 691.10 751.85 691.02 754.59 690.70 756.84 C 679.82 756.42 668.95 755.96 658.08 755.54 C 669.67 710.92 681.39 666.35 693.17 621.79 M 713.19 666.42 C 705.57 668.04 698.48 672.74 694.56 679.56 C 687.38 691.12 690.26 707.65 701.00 716.04 C 708.96 722.54 720.58 724.22 729.99 719.98 C 742.48 714.91 749.78 700.05 746.10 687.06 C 742.87 672.91 727.38 663.10 713.19 666.42 M 676.06 725.02 C 674.64 727.55 674.18 730.52 673.55 733.32 C 673.16 734.67 675.04 734.47 675.79 735.00 C 676.23 734.12 676.68 733.25 677.15 732.39 C 678.53 732.05 680.10 732.11 681.35 731.34 C 682.51 729.97 682.58 727.91 681.65 726.42 C 680.02 725.40 677.99 724.58 676.06 725.02 M 686.14 728.02 C 684.18 730.76 682.34 733.62 681.04 736.74 C 683.81 736.72 687.38 734.50 688.74 738.22 C 691.79 738.72 695.31 741.45 698.22 739.23 C 700.26 737.20 698.01 734.61 696.68 732.93 C 697.95 732.77 701.16 733.41 699.88 731.09 C 698.04 729.65 694.84 729.24 693.32 731.35 C 692.11 734.15 695.22 735.68 696.02 738.02 C 694.77 737.54 693.56 737.02 692.36 736.49 C 692.05 736.89 691.42 737.71 691.11 738.11 C 690.61 734.76 690.40 731.39 690.05 728.04 C 688.81 728.03 686.99 726.50 686.14 728.02 M 729.24 738.94 C 728.48 742.20 727.43 745.41 727.10 748.76 C 727.72 748.76 728.97 748.75 729.60 748.75 C 729.83 748.03 730.29 746.61 730.52 745.89 C 731.61 747.69 732.14 750.71 734.92 750.17 C 734.64 748.82 734.23 747.49 734.22 746.13 C 735.06 744.57 736.41 743.02 735.81 741.12 C 734.17 739.28 731.53 739.07 729.24 738.94 M 738.06 740.96 C 737.86 741.37 737.46 742.21 737.25 742.63 C 737.78 742.95 738.85 743.59 739.38 743.91 C 738.81 746.50 738.33 749.12 738.07 751.77 C 738.71 751.75 739.99 751.70 740.63 751.67 C 741.63 748.96 741.05 744.21 745.14 744.49 C 745.22 740.98 740.39 741.81 738.06 740.96 Z" />
<path fill="#065a7f" opacity="1.00" d=" M 716.56 677.12 C 718.76 673.83 722.07 668.71 726.69 670.45 C 729.45 673.15 729.59 677.37 729.88 680.99 C 725.31 680.24 720.74 679.16 716.56 677.12 Z" />
<path fill="#065a7f" opacity="1.00" d=" M 695.28 685.20 C 697.40 681.08 699.78 676.55 703.99 674.26 C 706.64 675.51 709.00 677.29 711.48 678.86 C 709.93 682.10 708.58 685.43 707.58 688.88 C 703.38 688.05 699.11 687.16 695.28 685.20 Z" />
<path fill="#065a7f" opacity="1.00" d=" M 714.42 680.18 C 719.51 681.69 724.48 683.66 729.77 684.45 C 729.44 687.99 728.93 691.54 727.95 694.97 C 722.19 693.46 716.51 691.71 710.82 690.02 C 711.44 686.55 713.03 683.38 714.42 680.18 Z" />
<path fill="#065a7f" opacity="1.00" d=" M 733.01 684.92 C 736.05 684.90 739.08 684.96 742.12 685.06 C 743.78 689.55 744.33 694.49 743.18 699.18 C 739.10 698.37 735.12 697.15 731.19 695.83 C 731.94 692.22 732.63 688.59 733.01 684.92 Z" />
<path fill="#065a7f" opacity="1.00" d=" M 694.21 689.02 C 698.31 689.60 702.18 691.16 706.19 692.18 C 705.81 695.78 705.11 699.33 704.69 702.93 C 701.57 703.32 698.42 703.31 695.31 702.96 C 693.95 698.44 693.25 693.69 694.21 689.02 Z" />
<path fill="#065a7f" opacity="1.00" d=" M 709.60 693.32 C 715.43 694.77 721.22 696.37 726.93 698.24 C 725.93 701.63 724.57 704.89 722.87 707.99 C 718.00 706.23 713.02 704.78 707.93 703.84 C 708.09 700.28 708.75 696.77 709.60 693.32 Z" />
<path fill="#065a7f" opacity="1.00" d=" M 730.29 699.15 C 734.29 700.19 738.32 701.19 742.16 702.73 C 740.36 706.90 737.99 711.30 734.10 713.78 C 731.16 713.16 728.87 710.82 726.16 709.58 C 727.40 706.05 728.96 702.64 730.29 699.15 Z" />
<path fill="#065a7f" opacity="1.00" d=" M 707.93 707.10 C 712.15 707.94 716.37 708.95 720.34 710.64 C 720.43 710.88 720.62 711.38 720.71 711.62 C 719.25 714.08 717.21 716.23 714.73 717.66 C 713.25 718.61 711.09 718.35 710.09 716.86 C 708.10 714.04 707.82 710.43 707.93 707.10 Z" />
</g>
<g id="#3b4043ff">
<path fill="#3b4043" opacity="1.00" d=" M 315.24 642.02 C 324.90 637.41 337.27 640.74 343.42 649.46 C 347.51 657.07 350.07 665.38 353.48 673.30 C 354.81 676.76 356.17 680.21 357.83 683.54 C 358.59 685.24 359.32 686.96 359.99 688.71 C 362.27 696.01 365.49 702.97 368.33 710.07 C 371.51 717.93 374.21 726.01 378.07 733.58 C 380.13 740.62 383.41 747.22 385.96 754.09 C 393.53 773.04 401.32 791.91 408.72 810.92 C 411.01 818.80 408.55 827.86 402.46 833.40 C 399.96 835.91 396.71 837.45 393.44 838.70 C 371.86 847.32 350.33 856.05 328.76 864.69 C 325.53 865.96 322.38 867.52 318.94 868.10 C 311.39 869.53 303.24 866.65 298.20 860.88 C 294.92 857.31 293.54 852.56 291.73 848.18 C 276.70 811.01 261.89 773.76 246.87 736.59 C 245.24 732.56 243.64 728.52 242.01 724.48 C 238.65 716.07 235.21 707.68 231.88 699.26 C 228.49 690.66 231.17 680.20 238.24 674.28 C 241.67 671.27 246.11 669.90 250.25 668.19 C 271.92 659.47 293.60 650.80 315.24 642.02 M 309.44 669.02 C 307.75 669.66 306.06 670.31 304.38 670.97 C 294.04 675.19 283.68 679.37 273.29 683.47 C 271.43 684.24 269.57 685.01 267.71 685.79 C 261.60 688.26 255.40 690.53 249.39 693.22 C 253.42 704.17 258.06 714.90 262.31 725.77 C 263.02 727.52 263.71 729.28 264.34 731.07 C 266.77 736.84 269.33 742.58 271.22 748.56 L 271.43 748.46 C 272.23 750.39 273.02 752.35 273.80 754.30 C 277.77 764.17 281.73 774.05 285.72 783.91 C 285.96 784.49 286.45 785.65 286.70 786.23 C 290.08 794.65 293.27 803.15 296.94 811.44 C 297.31 812.53 297.68 813.62 298.06 814.73 C 299.95 819.02 301.41 823.51 303.52 827.71 C 308.07 825.68 312.74 823.96 317.32 822.04 C 318.27 821.65 319.21 821.26 320.16 820.89 C 327.32 818.14 334.34 815.05 341.55 812.44 C 342.26 812.11 343.67 811.46 344.37 811.14 C 352.72 807.98 360.88 804.31 369.28 801.30 L 370.08 800.84 C 374.40 799.21 378.60 797.30 382.92 795.65 C 382.29 794.12 381.65 792.60 381.02 791.10 C 380.76 790.44 380.26 789.13 380.01 788.47 C 377.08 781.14 374.02 773.86 371.24 766.48 C 370.92 765.73 370.27 764.23 369.94 763.49 C 365.88 753.06 361.42 742.80 357.56 732.30 L 357.44 732.46 C 356.93 731.15 356.43 729.85 355.93 728.56 C 354.08 724.12 352.35 719.64 350.50 715.20 C 349.71 713.15 348.88 711.13 347.99 709.14 C 344.52 700.17 340.97 691.24 337.22 682.39 C 336.61 680.73 335.98 679.07 335.34 677.43 C 333.05 672.02 331.16 666.45 328.60 661.16 C 322.28 663.95 315.78 666.29 309.44 669.02 M 348.44 820.58 C 342.22 821.96 338.09 828.80 339.61 834.97 C 340.85 841.31 347.78 845.68 354.05 844.10 C 360.64 842.84 365.06 835.41 363.03 829.01 C 361.49 822.84 354.54 818.89 348.44 820.58 Z" />
<path fill="#3b4043" opacity="1.00" d=" M 349.37 827.48 C 352.86 825.82 357.26 829.06 356.61 832.90 C 356.37 836.76 351.36 838.92 348.34 836.56 C 345.11 834.42 345.66 828.80 349.37 827.48 Z" />
</g>
<g id="#141623ff">
<path fill="#141623" opacity="1.00" d=" M 357.98 644.99 C 376.33 645.03 394.67 645.56 413.01 645.28 C 412.96 649.82 412.98 654.36 412.89 658.91 C 405.27 658.81 397.63 659.06 390.03 658.30 C 379.31 657.95 368.57 658.25 357.85 658.02 C 357.87 653.67 357.89 649.33 357.98 644.99 Z" />
<path fill="#141623" opacity="1.00" d=" M 442.68 645.95 C 468.76 646.38 494.85 646.13 520.92 646.84 C 540.59 646.94 560.26 647.57 579.93 647.25 C 579.84 651.60 579.88 655.95 579.81 660.31 C 572.60 661.65 565.28 660.44 558.04 660.16 C 531.01 660.15 503.97 659.86 476.94 659.80 C 465.52 658.72 454.05 659.31 442.60 659.00 C 442.57 654.64 442.59 650.29 442.68 645.95 Z" />
<path fill="#141623" opacity="1.00" d=" M 609.61 647.90 C 625.48 647.90 641.36 648.52 657.23 648.21 C 657.26 649.94 657.35 651.67 657.40 653.42 C 656.73 656.27 655.92 659.08 655.14 661.91 C 645.73 662.25 636.40 660.81 627.00 661.14 C 621.17 661.13 615.34 661.13 609.51 661.03 C 609.50 656.65 609.56 652.27 609.61 647.90 Z" />
</g>
<g id="#212330ff">
<path fill="#212330" opacity="1.00" d=" M 357.85 658.02 C 368.57 658.25 379.31 657.95 390.03 658.30 C 397.63 659.06 405.27 658.81 412.89 658.91 C 412.93 665.84 412.41 672.79 412.89 679.72 C 421.24 679.86 429.59 679.93 437.94 680.09 C 439.33 679.79 441.38 680.58 442.39 679.44 C 442.67 672.63 442.41 665.81 442.60 659.00 C 454.05 659.31 465.52 658.72 476.94 659.80 C 503.97 659.86 531.01 660.15 558.04 660.16 C 565.28 660.44 572.60 661.65 579.81 660.31 C 579.76 667.44 579.34 674.59 579.86 681.71 C 589.56 681.72 599.25 682.07 608.96 681.96 C 609.57 675.00 609.46 668.00 609.51 661.03 C 615.34 661.13 621.17 661.13 627.00 661.14 C 636.40 660.81 645.73 662.25 655.14 661.91 C 652.02 673.92 648.97 685.96 645.72 697.95 C 638.50 698.32 631.26 697.91 624.04 697.88 C 620.31 697.95 616.59 697.64 612.87 697.74 C 556.23 696.84 499.58 696.39 442.94 695.65 C 429.23 695.61 415.52 695.09 401.82 695.38 C 398.37 695.27 394.93 695.21 391.48 695.19 C 383.88 695.03 376.26 695.16 368.67 694.72 C 365.21 693.71 362.09 691.67 359.99 688.71 C 359.32 686.96 358.59 685.24 357.83 683.54 C 357.55 680.15 357.59 676.76 357.64 673.38 C 357.71 668.25 357.76 663.13 357.85 658.02 Z" />
</g>
<g id="#a8d576ff">
<path fill="#a8d576" opacity="1.00" d=" M 309.44 669.02 C 315.78 666.29 322.28 663.95 328.60 661.16 C 331.16 666.45 333.05 672.02 335.34 677.43 C 327.76 680.49 320.16 683.49 312.60 686.62 C 311.08 680.84 310.34 674.91 309.44 669.02 Z" />
<path fill="#a8d576" opacity="1.00" d=" M 249.39 693.22 C 255.40 690.53 261.60 688.26 267.71 685.79 C 270.99 691.88 274.30 697.96 277.60 704.04 C 272.58 711.34 267.16 718.36 262.31 725.77 C 258.06 714.90 253.42 704.17 249.39 693.22 Z" />
<path fill="#a8d576" opacity="1.00" d=" M 299.01 697.70 C 302.33 696.58 305.42 694.65 308.91 694.09 C 313.09 697.13 316.98 700.56 321.01 703.81 C 314.50 707.64 307.94 711.39 301.25 714.90 C 296.64 710.74 291.16 707.50 286.92 702.99 C 290.46 700.55 295.06 699.59 299.01 697.70 Z" />
<path fill="#a8d576" opacity="1.00" d=" M 327.48 707.83 C 335.19 710.16 342.73 713.05 350.50 715.20 C 352.35 719.64 354.08 724.12 355.93 728.56 C 348.70 735.14 341.74 741.99 334.64 748.69 C 334.17 749.10 332.35 750.63 332.56 749.00 C 330.95 735.27 328.90 721.58 327.48 707.83 Z" />
<path fill="#a8d576" opacity="1.00" d=" M 357.44 732.46 L 357.56 732.30 C 361.42 742.80 365.88 753.06 369.94 763.49 C 367.20 764.55 364.45 765.60 361.69 766.64 C 359.10 756.46 357.02 746.16 354.55 735.95 C 355.51 734.78 356.48 733.62 357.44 732.46 Z" />
<path fill="#a8d576" opacity="1.00" d=" M 273.80 754.30 C 281.90 752.58 289.98 750.81 298.08 749.14 C 299.96 759.28 301.25 769.52 302.84 779.71 C 296.98 780.41 291.10 780.96 285.23 781.60 C 285.35 782.18 285.59 783.33 285.72 783.91 C 281.73 774.05 277.77 764.17 273.80 754.30 Z" />
<path fill="#a8d576" opacity="1.00" d=" M 308.07 782.82 C 313.77 782.26 319.47 781.72 325.17 781.21 C 328.31 787.55 331.68 793.87 333.96 800.58 C 326.22 802.23 318.57 804.27 310.85 805.98 C 309.72 798.29 308.98 790.54 308.07 782.82 Z" />
<path fill="#a8d576" opacity="1.00" d=" M 339.48 802.77 C 347.85 799.74 356.35 797.05 364.89 794.53 C 366.34 796.79 367.81 799.04 369.28 801.30 C 360.88 804.31 352.72 807.98 344.37 811.14 C 342.74 808.34 341.10 805.56 339.48 802.77 Z" />
<path fill="#a8d576" opacity="1.00" d=" M 298.06 814.73 C 301.33 813.46 304.58 812.18 307.84 810.91 C 311.08 814.55 314.26 818.25 317.32 822.04 C 312.74 823.96 308.07 825.68 303.52 827.71 C 301.41 823.51 299.95 819.02 298.06 814.73 Z" />
</g>
<g id="#387a9aff">
<path fill="#387a9a" opacity="1.00" d=" M 713.19 666.42 C 727.38 663.10 742.87 672.91 746.10 687.06 C 749.78 700.05 742.48 714.91 729.99 719.98 C 720.58 724.22 708.96 722.54 701.00 716.04 C 690.26 707.65 687.38 691.12 694.56 679.56 C 698.48 672.74 705.57 668.04 713.19 666.42 M 707.35 672.01 C 709.00 673.78 711.20 674.83 713.43 675.72 C 715.01 673.53 716.84 671.51 718.20 669.17 C 714.42 669.25 710.55 669.91 707.35 672.01 M 716.56 677.12 C 720.74 679.16 725.31 680.24 729.88 680.99 C 729.59 677.37 729.45 673.15 726.69 670.45 C 722.07 668.71 718.76 673.83 716.56 677.12 M 732.28 673.05 C 732.64 675.94 732.97 678.83 733.25 681.73 C 735.54 681.76 737.83 681.77 740.13 681.72 C 738.57 678.03 735.49 675.31 732.28 673.05 M 695.28 685.20 C 699.11 687.16 703.38 688.05 707.58 688.88 C 708.58 685.43 709.93 682.10 711.48 678.86 C 709.00 677.29 706.64 675.51 703.99 674.26 C 699.78 676.55 697.40 681.08 695.28 685.20 M 714.42 680.18 C 713.03 683.38 711.44 686.55 710.82 690.02 C 716.51 691.71 722.19 693.46 727.95 694.97 C 728.93 691.54 729.44 687.99 729.77 684.45 C 724.48 683.66 719.51 681.69 714.42 680.18 M 733.01 684.92 C 732.63 688.59 731.94 692.22 731.19 695.83 C 735.12 697.15 739.10 698.37 743.18 699.18 C 744.33 694.49 743.78 689.55 742.12 685.06 C 739.08 684.96 736.05 684.90 733.01 684.92 M 694.21 689.02 C 693.25 693.69 693.95 698.44 695.31 702.96 C 698.42 703.31 701.57 703.32 704.69 702.93 C 705.11 699.33 705.81 695.78 706.19 692.18 C 702.18 691.16 698.31 689.60 694.21 689.02 M 709.60 693.32 C 708.75 696.77 708.09 700.28 707.93 703.84 C 713.02 704.78 718.00 706.23 722.87 707.99 C 724.57 704.89 725.93 701.63 726.93 698.24 C 721.22 696.37 715.43 694.77 709.60 693.32 M 730.29 699.15 C 728.96 702.64 727.40 706.05 726.16 709.58 C 728.87 710.82 731.16 713.16 734.10 713.78 C 737.99 711.30 740.36 706.90 742.16 702.73 C 738.32 701.19 734.29 700.19 730.29 699.15 M 697.15 706.32 C 699.02 709.95 701.89 713.09 705.52 715.02 C 704.93 712.32 704.93 709.51 704.25 706.86 C 702.15 705.75 699.46 706.51 697.15 706.32 M 707.93 707.10 C 707.82 710.43 708.10 714.04 710.09 716.86 C 711.09 718.35 713.25 718.61 714.73 717.66 C 717.21 716.23 719.25 714.08 720.71 711.62 C 720.62 711.38 720.43 710.88 720.34 710.64 C 716.37 708.95 712.15 707.94 707.93 707.10 M 724.38 712.24 C 722.66 714.53 720.84 716.74 719.03 718.95 C 722.73 718.93 726.49 718.30 729.80 716.56 C 729.29 714.11 726.18 713.55 724.38 712.24 Z" />
<path fill="#387a9a" opacity="1.00" d=" M 686.14 728.02 C 686.99 726.50 688.81 728.03 690.05 728.04 C 690.40 731.39 690.61 734.76 691.11 738.11 C 691.42 737.71 692.05 736.89 692.36 736.49 C 693.56 737.02 694.77 737.54 696.02 738.02 C 695.22 735.68 692.11 734.15 693.32 731.35 C 694.84 729.24 698.04 729.65 699.88 731.09 C 701.16 733.41 697.95 732.77 696.68 732.93 C 698.01 734.61 700.26 737.20 698.22 739.23 C 695.31 741.45 691.79 738.72 688.74 738.22 C 687.38 734.50 683.81 736.72 681.04 736.74 C 682.34 733.62 684.18 730.76 686.14 728.02 Z" />
</g>
<g id="#055a7fff">
<path fill="#055a7f" opacity="1.00" d=" M 707.35 672.01 C 710.55 669.91 714.42 669.25 718.20 669.17 C 716.84 671.51 715.01 673.53 713.43 675.72 C 711.20 674.83 709.00 673.78 707.35 672.01 Z" />
<path fill="#055a7f" opacity="1.00" d=" M 697.15 706.32 C 699.46 706.51 702.15 705.75 704.25 706.86 C 704.93 709.51 704.93 712.32 705.52 715.02 C 701.89 713.09 699.02 709.95 697.15 706.32 Z" />
<path fill="#055a7f" opacity="1.00" d=" M 724.38 712.24 C 726.18 713.55 729.29 714.11 729.80 716.56 C 726.49 718.30 722.73 718.93 719.03 718.95 C 720.84 716.74 722.66 714.53 724.38 712.24 Z" />
</g>
<g id="#9ea09dff">
<path fill="#9ea09d" opacity="1.00" d=" M 273.29 683.47 C 283.68 679.37 294.04 675.19 304.38 670.97 C 305.00 676.93 305.92 682.87 306.76 688.81 C 298.57 692.28 290.31 695.59 282.01 698.77 C 279.10 693.67 276.37 688.47 273.29 683.47 Z" />
<path fill="#9ea09d" opacity="1.00" d=" M 314.50 691.75 C 321.84 688.12 329.65 685.52 337.22 682.39 C 340.97 691.24 344.52 700.17 347.99 709.14 C 340.40 707.22 332.94 704.74 325.52 702.29 C 321.45 699.25 318.25 695.17 314.50 691.75 Z" />
<path fill="#9ea09d" opacity="1.00" d=" M 267.68 727.68 C 272.78 720.87 277.91 714.07 283.12 707.33 C 287.81 710.86 292.14 714.83 296.85 718.34 C 296.74 726.40 296.12 734.45 295.67 742.50 C 289.46 743.86 283.26 745.30 277.03 746.54 C 275.08 746.90 273.19 747.54 271.43 748.46 L 271.22 748.56 C 269.33 742.58 266.77 736.84 264.34 731.07 C 265.51 730.00 266.71 728.94 267.68 727.68 Z" />
<path fill="#9ea09d" opacity="1.00" d=" M 303.22 719.17 C 309.86 715.80 316.19 711.83 322.95 708.71 C 324.32 722.90 325.69 737.10 326.90 751.30 C 318.50 748.46 310.35 744.96 302.03 741.91 C 302.38 734.33 302.59 726.73 303.22 719.17 Z" />
<path fill="#9ea09d" opacity="1.00" d=" M 333.73 755.83 C 339.59 750.04 345.27 743.93 351.69 738.77 C 353.63 748.63 355.94 758.42 357.65 768.32 C 348.56 770.80 339.55 773.61 330.37 775.75 C 331.42 769.11 332.11 762.34 333.73 755.83 Z" />
<path fill="#9ea09d" opacity="1.00" d=" M 303.61 748.32 C 311.90 750.89 320.11 753.80 328.21 756.92 C 327.95 763.68 325.66 770.37 324.79 777.15 C 319.04 777.83 313.28 778.98 307.47 778.86 C 306.45 768.65 304.75 758.52 303.61 748.32 Z" />
<path fill="#9ea09d" opacity="1.00" d=" M 371.24 766.48 C 374.02 773.86 377.08 781.14 380.01 788.47 C 375.84 789.08 371.67 789.69 367.46 789.95 C 366.19 783.29 364.38 776.75 363.04 770.11 C 365.83 769.04 368.58 767.84 371.24 766.48 Z" />
<path fill="#9ea09d" opacity="1.00" d=" M 330.35 779.76 C 339.94 777.23 349.40 774.22 359.04 771.89 C 360.54 778.57 362.53 785.16 363.57 791.94 C 355.05 793.90 346.75 796.74 338.26 798.76 C 336.88 797.56 336.63 795.55 335.86 793.97 C 334.16 789.18 331.85 784.62 330.35 779.76 Z" />
<path fill="#9ea09d" opacity="1.00" d=" M 286.70 786.23 C 292.46 784.89 298.32 783.97 304.15 782.95 C 305.04 791.20 306.15 799.43 306.83 807.71 C 303.56 809.01 300.26 810.27 296.94 811.44 C 293.27 803.15 290.08 794.65 286.70 786.23 Z" />
<path fill="#9ea09d" opacity="1.00" d=" M 311.29 809.66 C 319.38 807.43 327.56 805.49 335.80 803.87 C 337.51 806.85 339.34 809.78 341.55 812.44 C 334.34 815.05 327.32 818.14 320.16 820.89 C 317.17 817.17 314.19 813.45 311.29 809.66 Z" />
</g>
<g id="#055a7eff">
<path fill="#055a7e" opacity="1.00" d=" M 732.28 673.05 C 735.49 675.31 738.57 678.03 740.13 681.72 C 737.83 681.77 735.54 681.76 733.25 681.73 C 732.97 678.83 732.64 675.94 732.28 673.05 Z" />
</g>
<g id="#9adaf5ff">
<path fill="#9adaf5" opacity="1.00" d=" M 359.99 688.71 C 362.09 691.67 365.21 693.71 368.67 694.72 C 368.46 699.83 368.32 704.95 368.33 710.07 C 365.49 702.97 362.27 696.01 359.99 688.71 Z" />
</g>
<g id="#8fd0ecff">
<path fill="#8fd0ec" opacity="1.00" d=" M 391.48 695.19 C 394.93 695.21 398.37 695.27 401.82 695.38 C 398.21 696.54 394.58 697.77 391.36 699.81 C 391.40 698.26 391.44 696.72 391.48 695.19 Z" />
</g>
<g id="#d6cf7bff">
<path fill="#d6cf7b" opacity="1.00" d=" M 615.04 698.01 C 615.60 698.19 616.74 698.55 617.31 698.74 C 616.74 698.55 615.60 698.19 615.04 698.01 Z" />
</g>
<g id="#38799aff">
<path fill="#38799a" opacity="1.00" d=" M 676.06 725.02 C 677.99 724.58 680.02 725.40 681.65 726.42 C 682.58 727.91 682.51 729.97 681.35 731.34 C 680.10 732.11 678.53 732.05 677.15 732.39 C 676.68 733.25 676.23 734.12 675.79 735.00 C 675.04 734.47 673.16 734.67 673.55 733.32 C 674.18 730.52 674.64 727.55 676.06 725.02 Z" />
</g>
<g id="#387999ff">
<path fill="#387999" opacity="1.00" d=" M 701.27 733.23 C 702.98 731.07 708.20 731.56 708.07 734.81 C 706.73 734.77 705.42 734.68 704.10 734.58 C 705.13 736.00 706.32 737.37 706.90 739.08 C 706.61 740.49 705.70 741.66 705.02 742.92 C 704.19 742.85 702.51 742.71 701.67 742.63 C 700.89 741.97 700.12 741.32 699.35 740.69 C 699.51 740.28 699.82 739.46 699.97 739.05 C 701.29 739.29 702.62 739.54 703.96 739.81 C 702.58 737.86 700.28 735.87 701.27 733.23 Z" />
</g>
<g id="#377a99ff">
<path fill="#377a99" opacity="1.00" d=" M 709.96 733.62 C 712.43 734.06 716.56 734.36 716.56 737.71 C 716.33 741.27 711.97 740.63 710.13 742.88 C 709.15 742.90 708.19 742.92 707.24 742.94 C 708.36 739.90 709.14 736.75 709.96 733.62 Z" />
</g>
<g id="#397b9aff">
<path fill="#397b9a" opacity="1.00" d=" M 719.20 737.09 C 721.25 735.47 724.11 736.83 725.90 738.23 C 727.81 740.88 726.32 744.41 724.14 746.41 C 724.04 745.81 723.85 744.60 723.75 743.99 C 721.37 743.59 718.98 743.35 716.58 743.23 C 717.05 741.06 717.17 738.46 719.20 737.09 M 719.77 743.10 C 721.11 743.02 722.45 742.94 723.81 742.87 C 723.65 741.53 724.02 739.98 722.89 739.00 C 720.38 738.16 719.46 741.17 719.77 743.10 Z" />
</g>
<g id="#0a5d81ff">
<path fill="#0a5d81" opacity="1.00" d=" M 719.77 743.10 C 719.46 741.17 720.38 738.16 722.89 739.00 C 724.02 739.98 723.65 741.53 723.81 742.87 C 722.45 742.94 721.11 743.02 719.77 743.10 Z" />
</g>
<g id="#387a99ff">
<path fill="#387a99" opacity="1.00" d=" M 729.24 738.94 C 731.53 739.07 734.17 739.28 735.81 741.12 C 736.41 743.02 735.06 744.57 734.22 746.13 C 734.23 747.49 734.64 748.82 734.92 750.17 C 732.14 750.71 731.61 747.69 730.52 745.89 C 730.29 746.61 729.83 748.03 729.60 748.75 C 728.97 748.75 727.72 748.76 727.10 748.76 C 727.43 745.41 728.48 742.20 729.24 738.94 Z" />
</g>
<g id="#377a9aff">
<path fill="#377a9a" opacity="1.00" d=" M 738.06 740.96 C 740.39 741.81 745.22 740.98 745.14 744.49 C 741.05 744.21 741.63 748.96 740.63 751.67 C 739.99 751.70 738.71 751.75 738.07 751.77 C 738.33 749.12 738.81 746.50 739.38 743.91 C 738.85 743.59 737.78 742.95 737.25 742.63 C 737.46 742.21 737.86 741.37 738.06 740.96 Z" />
</g>
<g id="#7a7a7aff">
<path fill="#7a7a7a" opacity="1.00" d=" M 700.95 749.83 C 701.13 747.42 701.36 745.02 701.67 742.63 C 702.51 742.71 704.19 742.85 705.02 742.92 C 705.58 742.92 706.68 742.94 707.24 742.94 C 708.19 742.92 709.15 742.90 710.13 742.88 C 712.27 742.98 714.43 743.11 716.58 743.23 C 718.98 743.35 721.37 743.59 723.75 743.99 C 723.85 744.60 724.04 745.81 724.14 746.41 C 724.00 747.84 723.83 749.27 723.69 750.72 C 716.09 750.72 708.52 750.32 700.95 749.83 Z" />
</g>
<g id="#a1a1a1ff">
<path fill="#a1a1a1" opacity="1.00" d=" M 693.30 750.55 C 695.64 749.31 698.41 749.87 700.95 749.83 C 708.52 750.32 716.09 750.72 723.69 750.72 C 725.66 750.97 728.03 750.80 729.52 752.41 C 731.28 753.90 730.93 756.41 731.31 758.47 C 717.77 757.91 704.23 757.48 690.70 756.84 C 691.02 754.59 691.10 751.85 693.30 750.55 Z" />
</g>
<g id="#1f1e23ff">
<path fill="#1f1e23" opacity="1.00" d=" M 582.23 761.32 C 583.63 760.46 585.36 760.82 586.92 760.78 C 594.08 761.17 601.26 761.25 608.42 761.75 C 615.24 763.06 614.90 774.86 608.05 775.88 C 599.68 775.68 591.27 775.48 582.93 774.79 C 577.46 772.80 577.28 764.03 582.23 761.32 Z" />
</g>
<g id="#e72718ff">
<path fill="#e72718" opacity="1.00" d=" M 690.54 762.63 C 696.17 760.21 702.06 766.42 700.45 772.00 C 699.62 777.02 693.24 780.04 689.02 776.95 C 683.88 773.62 684.73 764.73 690.54 762.63 Z" />
</g>
<g id="#302d34ff">
<path fill="#302d34" opacity="1.00" d=" M 628.35 779.21 C 634.40 774.67 641.48 771.35 649.07 770.64 C 660.56 769.21 672.27 773.48 680.74 781.24 C 682.43 782.93 683.90 784.82 685.36 786.72 C 686.16 787.77 686.99 788.85 687.84 789.91 C 691.05 797.17 693.49 805.03 692.57 813.08 C 691.46 827.53 681.59 840.80 668.12 846.13 C 661.80 848.85 654.74 849.34 647.96 848.61 C 642.69 847.98 637.81 845.74 632.95 843.75 C 626.30 838.82 620.28 832.66 617.17 824.86 C 611.39 811.50 614.05 795.18 623.46 784.14 C 624.98 782.39 626.60 780.73 628.35 779.21 M 648.34 780.47 C 638.90 782.35 630.67 789.11 626.92 797.96 C 621.73 809.71 625.24 824.69 635.35 832.70 C 644.44 840.39 658.37 841.66 668.72 835.77 C 680.56 829.63 686.77 814.78 683.08 802.01 C 679.55 787.16 663.24 777.07 648.34 780.47 Z" />
</g>
<g id="#6d7879ff">
<path fill="#6d7879" opacity="1.00" d=" M 566.14 781.23 C 566.20 779.63 566.27 778.05 566.33 776.48 C 587.00 777.47 607.71 777.82 628.35 779.21 C 626.60 780.73 624.98 782.39 623.46 784.14 C 616.67 783.01 609.79 783.33 602.95 782.95 C 590.68 782.34 578.38 782.21 566.14 781.23 Z" />
<path fill="#6d7879" opacity="1.00" d=" M 687.84 789.91 C 693.52 796.08 696.04 804.71 696.20 812.98 C 696.51 824.04 691.57 834.96 683.43 842.37 C 676.46 849.28 666.57 852.49 656.96 853.07 C 648.38 852.37 638.99 850.40 632.95 843.75 C 637.81 845.74 642.69 847.98 647.96 848.61 C 654.74 849.34 661.80 848.85 668.12 846.13 C 681.59 840.80 691.46 827.53 692.57 813.08 C 693.49 805.03 691.05 797.17 687.84 789.91 Z" />
</g>
<g id="#000000ff">
<path fill="#000000" opacity="1.00" d=" M 648.34 780.47 C 663.24 777.07 679.55 787.16 683.08 802.01 C 686.77 814.78 680.56 829.63 668.72 835.77 C 658.37 841.66 644.44 840.39 635.35 832.70 C 625.24 824.69 621.73 809.71 626.92 797.96 C 630.67 789.11 638.90 782.35 648.34 780.47 Z" />
</g>
<g id="#859393ff">
<path fill="#859393" opacity="1.00" d=" M 566.14 781.23 C 578.38 782.21 590.68 782.34 602.95 782.95 C 609.79 783.33 616.67 783.01 623.46 784.14 C 614.05 795.18 611.39 811.50 617.17 824.86 C 620.28 832.66 626.30 838.82 632.95 843.75 C 638.99 850.40 648.38 852.37 656.96 853.07 C 666.57 852.49 676.46 849.28 683.43 842.37 C 691.57 834.96 696.51 824.04 696.20 812.98 C 696.04 804.71 693.52 796.08 687.84 789.91 C 686.99 788.85 686.16 787.77 685.36 786.72 C 687.27 786.54 689.19 786.39 691.12 786.49 C 708.87 787.40 726.66 787.63 744.40 788.76 C 744.34 791.68 744.24 794.61 743.97 797.54 C 742.77 819.05 742.59 840.63 741.01 862.12 C 741.09 860.58 741.15 859.04 741.19 857.52 C 709.16 856.06 677.12 854.92 645.09 853.56 C 617.93 852.60 590.78 851.12 563.62 850.49 C 563.81 837.88 564.83 825.29 564.90 812.68 C 565.24 802.19 565.63 791.70 566.14 781.23 Z" />
</g>
<g id="#6d7979ff">
<path fill="#6d7979" opacity="1.00" d=" M 680.74 781.24 C 702.03 781.79 723.31 782.77 744.58 783.75 C 744.49 785.41 744.43 787.08 744.40 788.76 C 726.66 787.63 708.87 787.40 691.12 786.49 C 689.19 786.39 687.27 786.54 685.36 786.72 C 683.90 784.82 682.43 782.93 680.74 781.24 Z" />
</g>
<g id="#9ea09cff">
<path fill="#9ea09c" opacity="1.00" d=" M 367.89 794.14 C 372.25 793.06 376.63 792.07 381.02 791.10 C 381.65 792.60 382.29 794.12 382.92 795.65 C 378.60 797.30 374.40 799.21 370.08 800.84 C 370.35 800.46 370.88 799.69 371.14 799.30 C 370.03 797.59 368.95 795.87 367.89 794.14 Z" />
</g>
</svg>
