<?xml version="1.0" encoding="UTF-8" ?>
<!DOCTYPE svg PUBLIC "-//W3C//DTD SVG 1.1//EN" "http://www.w3.org/Graphics/SVG/1.1/DTD/svg11.dtd">
<svg width="840pt" height="405pt" viewBox="0 0 840 405" version="1.1" xmlns="http://www.w3.org/2000/svg">
<g id="#ffffffff">
</g>
<g id="#ae7cf5ff">
<path fill="#ae7cf5" opacity="1.00" d=" M 154.03 19.83 C 153.41 16.98 157.81 15.28 160.02 16.99 C 168.06 18.52 174.20 24.65 179.79 30.20 C 185.57 35.73 188.87 43.91 187.86 51.93 C 186.09 60.13 179.88 66.54 173.38 71.42 C 158.20 82.76 138.79 85.73 123.08 96.10 C 116.24 100.31 109.81 106.28 107.04 114.01 C 108.93 120.98 118.42 118.65 123.74 120.29 C 126.88 120.86 130.18 121.41 133.30 120.42 C 154.55 119.33 174.53 111.49 195.17 107.15 C 196.35 107.00 197.54 106.84 198.73 106.67 C 205.22 107.00 211.73 107.12 218.23 106.77 C 219.70 106.91 221.18 107.06 222.65 107.22 C 231.06 109.51 242.23 113.87 243.02 123.98 C 242.99 127.32 243.00 130.68 243.02 134.03 C 241.83 144.80 230.05 149.16 221.01 152.04 C 192.88 161.34 162.89 161.21 134.07 167.23 C 112.75 171.82 91.01 175.60 70.70 183.71 C 65.95 186.80 58.57 190.78 60.12 197.79 C 72.18 208.34 87.42 213.91 101.97 220.09 C 117.21 226.17 132.73 231.48 148.29 236.67 C 164.99 241.88 182.43 243.48 199.74 245.30 C 203.47 245.82 207.22 246.07 211.00 246.03 C 218.44 246.46 225.80 245.63 233.16 245.00 C 233.61 244.97 234.50 244.93 234.94 244.90 C 235.09 230.60 234.99 216.30 234.98 201.99 C 233.41 194.75 237.63 184.92 246.23 185.42 C 259.06 186.35 269.42 196.28 274.31 207.70 C 278.39 217.56 280.32 230.06 272.88 238.85 C 266.91 248.33 254.78 249.10 245.17 252.20 C 244.14 269.78 242.18 287.76 235.09 304.07 C 226.43 324.14 214.94 343.81 197.99 358.00 C 187.21 366.33 175.76 374.03 162.98 378.91 C 150.55 382.27 137.73 384.47 125.00 386.03 C 121.32 385.98 117.66 385.98 113.99 386.01 C 103.74 386.19 93.71 383.05 84.65 378.44 C 64.05 370.16 46.09 355.24 35.29 335.69 C 31.96 326.43 40.80 320.89 46.27 315.23 C 46.65 315.20 47.42 315.13 47.81 315.09 C 53.51 324.05 58.74 333.34 65.24 341.78 C 76.00 350.63 86.93 360.02 100.31 364.61 C 108.48 367.29 116.52 370.48 125.04 371.92 C 140.71 373.16 156.31 369.68 170.71 363.70 C 186.45 357.68 200.25 346.66 209.82 332.81 C 225.42 314.63 233.16 290.97 234.30 267.26 C 234.97 262.55 235.23 257.79 234.93 253.05 C 233.64 253.21 231.05 253.53 229.75 253.70 C 227.85 253.99 225.92 254.03 224.00 254.02 C 217.99 253.98 211.99 253.94 206.00 254.01 C 178.47 253.38 151.15 248.67 124.35 242.51 C 101.34 236.49 77.81 231.74 55.99 222.02 C 46.64 218.62 40.23 209.51 38.95 199.85 C 38.95 198.17 38.95 194.82 38.95 193.15 C 38.68 190.13 40.81 187.63 42.08 185.09 C 48.61 179.55 56.25 175.57 64.02 172.09 C 83.06 166.40 102.84 163.94 122.35 160.51 C 149.80 155.62 177.65 152.59 204.70 145.64 C 213.42 142.67 224.49 137.64 225.00 127.05 C 222.11 120.27 215.04 116.25 208.02 114.98 C 192.63 111.09 177.41 117.06 163.04 121.97 C 149.67 126.00 135.88 128.58 122.01 130.01 C 114.67 130.00 107.33 129.97 99.99 130.03 C 91.82 130.31 81.47 125.19 81.05 116.07 C 83.99 107.03 93.27 102.61 100.79 97.81 C 118.47 89.13 137.88 84.12 154.71 73.69 C 164.82 66.79 174.50 55.57 171.58 42.34 C 169.17 32.89 163.02 23.99 154.03 19.83 M 249.17 202.06 C 246.66 206.10 246.94 211.43 246.99 216.00 L 246.02 216.00 C 245.93 223.08 245.87 230.17 246.27 237.25 C 246.08 238.50 245.99 239.77 245.99 241.04 C 250.61 241.01 253.84 236.81 257.63 234.60 C 264.36 228.53 261.99 218.03 258.04 210.98 C 255.87 207.52 253.96 202.11 249.17 202.06 Z" />
</g>
<g id="#fa1d3bff">
<path fill="#fa1d3b" opacity="1.00" d=" M 215.43 71.41 C 218.60 69.09 221.60 65.09 226.02 66.00 C 225.98 66.70 225.90 68.10 225.86 68.80 C 220.18 72.43 215.32 77.51 213.00 83.94 C 218.16 83.17 228.35 83.76 228.06 91.15 C 228.05 92.83 228.05 96.18 228.05 97.85 C 227.60 101.50 224.65 104.28 222.65 107.22 C 221.18 107.06 219.70 106.91 218.23 106.77 C 211.82 106.13 205.07 104.99 198.73 106.67 C 197.54 106.84 196.35 107.00 195.17 107.15 C 190.18 99.88 188.67 87.28 197.64 82.60 C 201.66 79.93 205.09 83.15 208.71 83.91 C 209.89 79.25 212.68 75.28 215.43 71.41 Z" />
</g>
<g id="#fca4a8ff">
<path fill="#fca4a8" opacity="1.00" d=" M 228.06 91.15 C 229.85 91.96 229.85 97.04 228.05 97.85 C 228.05 96.18 228.05 92.83 228.06 91.15 Z" />
</g>
<g id="#dd54acff">
<path fill="#dd54ac" opacity="1.00" d=" M 198.73 106.67 C 205.07 104.99 211.82 106.13 218.23 106.77 C 211.73 107.12 205.22 107.00 198.73 106.67 Z" />
</g>
<g id="#c1a0f7ff">
<path fill="#c1a0f7" opacity="1.00" d=" M 123.74 120.29 C 126.91 120.08 130.16 119.67 133.30 120.42 C 130.18 121.41 126.88 120.86 123.74 120.29 Z" />
</g>
<g id="#dcccfaff">
<path fill="#dcccfa" opacity="1.00" d=" M 243.02 123.98 L 244.00 124.01 C 243.76 126.52 243.26 131.52 243.02 134.03 C 243.00 130.68 242.99 127.32 243.02 123.98 Z" />
</g>
<g id="#9e714eff">
<path fill="#9e714e" opacity="1.00" d=" M 593.34 145.80 C 588.89 138.19 594.78 129.02 602.06 125.96 C 602.14 128.91 598.74 130.10 597.31 132.28 C 595.82 135.17 594.74 138.40 595.24 141.72 C 597.81 146.35 603.13 149.26 604.41 154.67 C 606.26 161.41 604.06 170.25 597.91 174.07 L 597.86 173.21 C 600.92 168.80 602.53 163.53 601.95 158.10 C 600.38 153.15 596.11 149.99 593.34 145.80 Z" />
</g>
<g id="#d1bcf9ff">
<path fill="#d1bcf9" opacity="1.00" d=" M 99.99 130.03 C 107.33 129.97 114.67 130.00 122.01 130.01 L 121.99 130.98 C 114.67 131.01 107.34 131.12 100.02 130.97 L 99.99 130.03 Z" />
</g>
<g id="#d1bbf9ff">
<path fill="#d1bbf9" opacity="1.00" d=" M 512.00 130.01 C 514.74 130.01 520.23 130.01 522.98 130.01 L 523.03 130.98 C 519.33 130.98 515.70 131.01 512.02 130.98 L 512.00 130.01 Z" />
<path fill="#d1bbf9" opacity="1.00" d=" M 229.75 253.70 C 231.05 253.53 233.64 253.21 234.93 253.05 C 235.23 257.79 234.97 262.55 234.30 267.26 C 233.97 262.88 234.15 258.50 233.93 254.13 C 232.53 253.98 231.14 253.83 229.75 253.70 Z" />
</g>
<g id="#ae7df5ff">
<path fill="#ae7df5" opacity="1.00" d=" M 732.34 130.39 C 735.90 128.57 741.21 130.72 741.00 134.98 C 740.95 137.98 741.00 141.01 741.02 144.02 C 740.93 149.68 737.88 154.78 735.90 159.97 C 724.86 181.11 707.86 198.66 689.17 213.19 C 687.28 215.87 686.13 218.97 685.08 222.05 C 684.40 224.56 688.32 224.28 688.39 226.67 C 691.94 237.09 690.56 249.89 698.72 258.28 C 701.83 262.21 707.37 260.86 711.69 260.71 C 718.16 257.67 723.23 251.87 726.59 245.69 C 738.02 212.92 751.34 180.49 770.34 151.32 C 776.95 143.36 783.07 133.50 793.67 130.58 C 797.29 128.52 803.20 130.38 803.00 134.98 C 802.94 137.98 803.00 141.01 803.02 144.02 C 802.93 149.68 799.88 154.78 797.90 159.97 C 786.86 181.11 769.86 198.66 751.17 213.19 C 749.27 215.87 748.13 218.97 747.08 222.05 C 746.31 224.35 749.67 224.14 750.08 225.96 C 754.11 236.50 752.31 249.69 760.72 258.28 C 763.83 262.21 769.37 260.86 773.69 260.71 C 781.70 257.09 786.53 249.29 791.15 242.15 C 792.00 242.76 794.31 242.49 793.91 244.01 C 788.93 256.16 777.05 269.02 762.67 265.42 C 759.03 264.47 756.24 261.76 753.05 259.95 C 753.19 282.90 746.53 306.32 732.95 324.96 C 729.02 327.97 723.28 331.89 718.28 328.71 C 713.89 327.19 712.33 322.20 711.98 318.02 C 711.97 314.00 711.97 309.99 711.99 305.98 C 713.11 289.91 718.49 274.57 722.05 258.95 C 716.11 263.42 709.18 267.90 701.33 265.63 C 697.42 264.74 694.42 261.91 691.05 259.95 C 691.19 282.90 684.53 306.32 670.95 324.96 C 667.02 327.97 661.28 331.89 656.28 328.71 C 651.89 327.19 650.33 322.20 649.98 318.02 C 649.97 314.00 649.98 309.99 649.99 305.98 C 651.21 288.85 657.06 272.48 661.04 255.92 C 655.99 258.20 650.89 261.35 644.99 261.01 C 639.69 262.11 635.09 259.15 630.17 258.00 C 625.12 268.12 615.23 275.04 604.72 278.68 C 590.03 284.42 572.99 281.59 560.07 272.91 C 546.98 264.62 538.90 249.28 537.97 234.00 C 537.98 229.65 538.02 225.32 537.98 220.99 C 540.48 200.14 559.88 182.08 581.00 180.97 C 585.65 181.00 590.34 180.99 595.02 181.00 C 604.82 181.16 614.85 185.19 621.28 192.72 C 625.09 196.33 627.56 201.05 631.14 204.88 C 635.51 200.86 642.51 197.98 648.04 201.91 C 652.93 203.31 654.42 208.71 656.16 212.91 C 661.64 228.69 653.94 245.72 642.83 256.93 C 651.02 256.76 660.97 253.70 664.59 245.69 C 675.93 213.15 689.17 180.96 707.92 151.93 C 714.72 143.57 721.18 133.19 732.34 130.39 M 729.28 143.28 C 720.67 147.44 716.22 156.50 711.09 164.06 C 703.87 177.29 696.86 190.82 691.96 205.09 C 708.69 189.51 724.01 171.41 733.36 150.32 C 735.95 146.80 733.50 141.86 729.28 143.28 M 791.28 143.28 C 782.67 147.44 778.22 156.50 773.09 164.06 C 765.87 177.29 758.86 190.82 753.96 205.09 C 770.68 189.51 786.01 171.41 795.36 150.32 C 797.95 146.80 795.50 141.86 791.28 143.28 M 581.32 186.40 C 563.66 188.41 548.29 203.00 546.95 220.98 C 546.51 230.47 548.71 240.64 554.95 248.04 C 563.03 259.13 577.85 263.21 591.01 262.04 C 612.77 262.89 631.73 241.49 628.96 220.04 C 626.03 198.18 603.12 181.75 581.32 186.40 M 636.34 209.34 C 634.91 209.71 633.38 210.17 634.03 212.01 C 635.25 218.30 637.88 224.45 637.00 231.01 C 636.52 237.16 635.14 243.23 633.14 249.06 C 636.18 249.18 639.53 249.06 641.86 246.84 C 649.01 238.28 652.82 225.22 647.01 215.00 C 644.70 211.65 641.21 206.87 636.34 209.34 M 679.12 239.15 C 675.14 249.66 672.14 261.02 668.83 271.96 C 665.18 286.94 660.34 302.11 662.18 317.74 C 663.42 319.63 665.53 320.64 667.77 319.82 C 672.08 315.99 674.10 310.46 676.33 305.30 C 681.34 294.60 683.28 282.86 685.59 271.37 C 687.57 260.28 684.85 249.03 679.83 239.12 L 679.12 239.15 M 741.12 239.15 C 737.14 249.66 734.14 261.02 730.83 271.96 C 727.18 286.94 722.34 302.11 724.18 317.74 C 725.42 319.63 727.53 320.64 729.77 319.82 C 734.08 315.99 736.10 310.46 738.33 305.30 C 743.34 294.60 745.28 282.86 747.59 271.37 C 749.57 260.28 746.85 249.03 741.83 239.12 L 741.12 239.15 Z" />
</g>
<g id="#af7df5ff">
<path fill="#af7df5" opacity="1.00" d=" M 501.28 133.35 C 504.74 132.30 508.33 130.98 512.02 130.98 C 515.70 131.01 519.33 130.98 523.03 130.98 C 527.36 131.02 531.01 134.14 533.78 137.26 C 539.56 151.37 532.52 166.49 525.95 178.97 C 523.00 184.08 516.02 193.10 509.30 188.68 C 507.86 187.72 506.15 186.19 507.29 184.32 C 516.04 174.18 523.84 162.65 527.58 149.66 C 530.31 142.71 524.81 134.32 516.98 135.99 C 501.82 138.12 490.77 150.45 482.14 162.16 C 466.02 184.28 454.65 210.40 451.71 237.74 C 450.76 242.86 450.68 248.15 451.68 253.28 C 452.72 266.39 459.82 281.14 473.72 284.31 C 477.49 285.08 481.53 285.38 485.32 284.41 C 507.43 279.53 524.04 261.48 534.13 242.06 C 535.87 242.20 536.51 244.33 535.71 245.72 C 527.81 259.26 518.63 272.62 505.38 281.43 C 497.32 286.24 488.70 291.09 479.01 291.02 C 476.32 290.99 473.65 290.99 470.99 291.02 C 459.41 291.06 448.72 283.81 443.02 273.98 C 438.78 266.32 436.67 257.63 435.87 248.96 C 429.65 254.99 425.96 264.36 418.36 269.43 C 410.85 275.60 400.64 281.10 390.66 278.46 C 383.91 277.17 379.45 269.66 381.13 263.07 C 383.34 249.73 393.73 238.35 391.74 224.30 C 389.39 219.71 385.30 215.33 380.27 214.04 C 377.26 223.76 372.51 232.89 368.03 242.01 C 363.06 254.00 355.21 264.92 344.99 273.00 C 339.10 277.04 332.37 280.41 325.00 280.01 C 321.11 279.32 316.89 277.72 314.96 274.02 C 312.10 268.41 312.81 261.84 314.06 255.88 C 307.82 264.01 303.45 275.28 292.88 278.85 C 286.58 281.71 278.39 278.62 276.04 271.96 C 269.45 261.25 274.80 249.12 277.24 238.17 C 280.11 230.16 283.14 222.01 288.22 215.10 C 291.92 213.73 295.38 215.70 297.85 218.16 C 292.25 229.49 286.47 241.07 284.69 253.73 C 284.12 256.54 283.61 259.53 284.57 262.32 C 285.44 265.27 285.55 268.77 288.19 270.79 C 290.57 273.89 295.42 271.89 297.78 269.76 C 312.32 256.30 318.63 236.91 328.17 220.06 C 331.64 220.31 336.53 221.55 337.90 224.99 C 333.22 236.75 327.33 248.26 324.68 260.72 C 324.30 263.51 323.28 266.65 324.67 269.32 C 325.59 272.90 328.95 275.28 332.95 273.92 C 342.64 271.15 349.75 263.51 355.94 255.96 C 364.17 243.65 370.69 230.27 375.48 216.26 C 379.36 210.91 373.74 204.38 376.98 198.97 C 378.30 195.83 381.08 192.18 384.78 192.12 C 388.53 195.82 384.98 201.00 384.03 204.95 C 386.80 212.61 397.34 213.85 400.99 221.00 C 402.20 223.15 404.47 225.24 404.02 227.98 C 403.98 230.97 404.00 234.01 404.02 237.01 C 403.18 248.45 393.15 257.85 395.11 269.83 C 400.80 274.69 408.87 270.70 413.95 266.96 C 422.87 260.56 430.16 251.99 435.15 242.20 C 436.50 239.75 435.71 236.68 436.05 233.99 C 437.05 214.46 444.78 196.01 454.09 179.06 C 465.36 160.06 480.68 142.39 501.28 133.35 Z" />
</g>
<g id="#cfb7f8ff">
<path fill="#cfb7f8" opacity="1.00" d=" M 741.00 134.98 C 744.20 135.10 741.26 141.54 741.96 143.97 L 741.02 144.02 C 741.00 141.01 740.95 137.98 741.00 134.98 Z" />
<path fill="#cfb7f8" opacity="1.00" d=" M 803.00 134.98 C 806.20 135.10 803.26 141.54 803.96 143.97 L 803.02 144.02 C 803.00 141.01 802.94 137.98 803.00 134.98 Z" />
</g>
<g id="#fcfbffff">
</g>
<g id="#a37b5eff">
<path fill="#a37b5e" opacity="1.00" d=" M 588.93 143.92 C 590.46 144.39 590.88 146.20 591.97 147.23 C 595.00 150.57 598.60 153.63 599.99 158.11 C 600.82 163.05 598.74 167.69 596.99 172.15 C 596.27 172.25 595.55 172.33 594.83 172.41 C 595.73 170.40 596.95 168.50 597.32 166.29 C 597.71 163.49 598.75 160.34 597.31 157.68 C 596.27 151.95 589.78 149.53 588.93 143.92 Z" />
</g>
<g id="#e7e0dcff">
<path fill="#e7e0dc" opacity="1.00" d=" M 593.34 145.80 C 596.11 149.99 600.38 153.15 601.95 158.10 C 602.53 163.53 600.92 168.80 597.86 173.21 C 597.64 172.95 597.21 172.42 596.99 172.15 C 598.74 167.69 600.82 163.05 599.99 158.11 C 598.60 153.63 595.00 150.57 591.97 147.23 C 592.32 146.87 593.00 146.15 593.34 145.80 Z" />
<path fill="#e7e0dc" opacity="1.00" d=" M 582.98 258.01 C 586.33 258.02 589.62 257.99 593.01 257.98 L 592.99 258.98 C 590.49 258.74 585.48 258.25 582.98 258.01 Z" />
</g>
<g id="#d1c2bbff">
<path fill="#d1c2bb" opacity="1.00" d=" M 597.31 157.68 C 598.75 160.34 597.71 163.49 597.32 166.29 C 596.87 163.44 596.84 160.53 597.31 157.68 Z" />
</g>
<g id="#cdbcb3ff">
<path fill="#cdbcb3" opacity="1.00" d=" M 590.94 177.08 C 592.23 175.59 593.16 173.31 594.83 172.41 C 595.55 172.33 596.27 172.25 596.99 172.15 C 597.21 172.42 597.64 172.95 597.86 173.21 L 597.91 174.07 C 598.02 176.17 595.65 175.79 594.27 175.51 C 593.25 176.22 592.20 176.93 590.94 177.08 Z" />
</g>
<g id="#c9aef8ff">
<path fill="#c9aef8" opacity="1.00" d=" M 581.00 180.01 C 585.63 179.99 590.32 179.84 594.97 180.05 L 595.02 181.00 C 590.34 180.99 585.65 181.00 581.00 180.97 L 581.00 180.01 Z" />
</g>
<g id="#f8f5f7ff">
<path fill="#f8f5f7" opacity="1.00" d=" M 581.32 186.40 C 603.12 181.75 626.03 198.18 628.96 220.04 C 631.73 241.49 612.77 262.89 591.01 262.04 C 577.85 263.21 563.03 259.13 554.95 248.04 C 548.71 240.64 546.51 230.47 546.95 220.98 C 548.29 203.00 563.66 188.41 581.32 186.40 M 585.00 190.98 C 569.04 191.88 553.56 204.81 551.95 221.15 C 550.14 221.96 550.14 227.04 551.95 227.85 C 552.99 243.97 566.85 257.43 582.98 258.01 C 585.48 258.25 590.49 258.74 592.99 258.98 L 593.01 257.98 C 609.15 256.72 623.18 243.38 624.05 227.02 C 625.90 209.32 610.61 191.84 593.00 190.98 L 592.98 190.04 C 590.58 190.46 585.88 188.79 585.00 190.98 Z" />
</g>
<g id="#d1c2bcff">
<path fill="#d1c2bc" opacity="1.00" d=" M 585.00 190.98 C 585.88 188.79 590.58 190.46 592.98 190.04 L 593.00 190.98 C 590.32 191.01 587.65 191.01 585.00 190.98 Z" />
</g>
<g id="#966236ff">
<path fill="#966236" opacity="1.00" d=" M 551.95 221.15 C 553.56 204.81 569.04 191.88 585.00 190.98 C 587.65 191.01 590.32 191.01 593.00 190.98 C 610.61 191.84 625.90 209.32 624.05 227.02 C 623.18 243.38 609.15 256.72 593.01 257.98 C 589.62 257.99 586.33 258.02 582.98 258.01 C 566.85 257.43 552.99 243.97 551.95 227.85 C 551.95 226.17 551.95 222.82 551.95 221.15 Z" />
</g>
<g id="#d4c0f9ff">
<path fill="#d4c0f9" opacity="1.00" d=" M 38.95 199.85 C 37.14 199.04 37.15 193.96 38.95 193.15 C 38.95 194.82 38.95 198.17 38.95 199.85 Z" />
</g>
<g id="#d8c7faff">
<path fill="#d8c7fa" opacity="1.00" d=" M 234.03 202.02 L 234.98 201.99 C 234.99 216.30 235.09 230.60 234.94 244.90 C 234.50 244.93 233.61 244.97 233.16 245.00 C 235.07 230.78 233.44 216.33 234.03 202.02 Z" />
</g>
<g id="#fdfcffff">
</g>
<g id="#dfd1fbff">
<path fill="#dfd1fb" opacity="1.00" d=" M 246.02 216.00 L 246.99 216.00 C 246.97 223.08 247.40 230.22 246.27 237.25 C 245.87 230.17 245.93 223.08 246.02 216.00 Z" />
</g>
<g id="#e2d5fbff">
<path fill="#e2d5fb" opacity="1.00" d=" M 537.04 221.03 L 537.98 220.99 C 538.02 225.32 537.98 229.65 537.97 234.00 L 537.01 234.00 C 536.97 229.67 536.84 225.35 537.04 221.03 Z" />
</g>
<g id="#ddd3d0ff">
<path fill="#ddd3d0" opacity="1.00" d=" M 551.95 227.85 C 550.14 227.04 550.14 221.96 551.95 221.15 C 551.95 222.82 551.95 226.17 551.95 227.85 Z" />
</g>
<g id="#d0b8f9ff">
<path fill="#d0b8f9" opacity="1.00" d=" M 404.02 227.98 C 407.23 228.10 404.25 234.54 404.96 236.97 L 404.02 237.01 C 404.00 234.01 403.98 230.97 404.02 227.98 Z" />
</g>
<g id="#dfd0faff">
<path fill="#dfd0fa" opacity="1.00" d=" M 435.15 242.20 C 435.52 239.75 433.69 234.85 436.05 233.99 C 435.71 236.68 436.50 239.75 435.15 242.20 Z" />
</g>
<g id="#d7c5faff">
<path fill="#d7c5fa" opacity="1.00" d=" M 451.68 253.28 C 450.68 248.15 450.76 242.86 451.71 237.74 C 451.91 242.89 452.41 248.13 451.68 253.28 Z" />
</g>
<g id="#decffaff">
<path fill="#decffa" opacity="1.00" d=" M 199.74 245.30 C 202.56 245.22 208.19 245.08 211.01 245.01 L 211.00 246.03 C 207.22 246.07 203.47 245.82 199.74 245.30 Z" />
<path fill="#decffa" opacity="1.00" d=" M 649.01 317.99 C 650.14 314.86 646.91 307.44 649.99 305.98 C 649.98 309.99 649.97 314.00 649.98 318.02 L 649.01 317.99 Z" />
<path fill="#decffa" opacity="1.00" d=" M 711.01 317.99 C 712.14 314.86 708.91 307.44 711.99 305.98 C 711.97 309.99 711.97 314.00 711.98 318.02 L 711.01 317.99 Z" />
</g>
<g id="#e0d3fbff">
<path fill="#e0d3fb" opacity="1.00" d=" M 206.00 254.01 C 211.99 253.94 217.99 253.98 224.00 254.02 L 224.00 254.99 C 218.00 254.98 212.01 255.17 206.02 254.96 L 206.00 254.01 Z" />
</g>
<g id="#cab0f8ff">
<path fill="#cab0f8" opacity="1.00" d=" M 284.57 262.32 C 283.61 259.53 284.12 256.54 284.69 253.73 C 285.11 256.57 285.21 259.50 284.57 262.32 Z" />
</g>
<g id="#d7c3faff">
<path fill="#d7c3fa" opacity="1.00" d=" M 324.67 269.32 C 323.28 266.65 324.30 263.51 324.68 260.72 C 325.13 263.56 325.15 266.48 324.67 269.32 Z" />
</g>
<g id="#d6c2f9ff">
<path fill="#d6c2f9" opacity="1.00" d=" M 473.72 284.31 C 477.55 284.07 481.51 283.62 485.32 284.41 C 481.53 285.38 477.49 285.08 473.72 284.31 Z" />
</g>
<g id="#e8defcff">
<path fill="#e8defc" opacity="1.00" d=" M 470.99 291.02 C 473.65 290.99 476.32 290.99 479.01 291.02 C 478.09 293.21 473.42 291.53 471.03 291.96 L 470.99 291.02 Z" />
</g>
<g id="#e7defcff">
<path fill="#e7defc" opacity="1.00" d=" M 113.99 386.01 C 117.66 385.98 121.32 385.98 125.00 386.03 L 125.00 387.00 C 122.25 387.00 116.76 386.99 114.02 386.98 L 113.99 386.01 Z" />
</g>
</svg>
